<?xml version="1.0" encoding="UTF-8"?>
<svg xmlns="http://www.w3.org/2000/svg" xmlns:xlink="http://www.w3.org/1999/xlink" width="800" height="600" viewBox="0 0 800 600">
<rect x="-80" y="-60" width="960" height="720" fill="rgb(100%, 100%, 100%)" fill-opacity="1"/>
<path fill-rule="nonzero" fill="rgb(100%, 38.823529%, 51.764706%)" fill-opacity="1" stroke-width="2" stroke-linecap="butt" stroke-linejoin="miter" stroke="rgb(100%, 100%, 100%)" stroke-opacity="1" stroke-miterlimit="10" d="M 280.859375 10 L 320.859375 10 L 320.859375 22 L 280.859375 22 Z M 280.859375 10 "/>
<path fill-rule="nonzero" fill="rgb(40%, 40%, 40%)" fill-opacity="1" d="M 327.804688 20.160156 L 327.804688 11.570312 L 331.609375 11.570312 C 332.371094 11.570312 332.953125 11.648438 333.355469 11.804688 C 333.75 11.960938 334.070312 12.234375 334.3125 12.621094 C 334.550781 13.015625 334.667969 13.445312 334.671875 13.914062 C 334.667969 14.523438 334.472656 15.039062 334.078125 15.457031 C 333.679688 15.875 333.070312 16.140625 332.25 16.253906 C 332.550781 16.398438 332.777344 16.539062 332.9375 16.679688 C 333.265625 16.984375 333.582031 17.367188 333.878906 17.824219 L 335.375 20.160156 L 333.945312 20.160156 L 332.804688 18.371094 C 332.472656 17.859375 332.199219 17.464844 331.984375 17.1875 C 331.769531 16.917969 331.578125 16.726562 331.410156 16.613281 C 331.238281 16.507812 331.066406 16.429688 330.890625 16.386719 C 330.757812 16.363281 330.546875 16.351562 330.257812 16.347656 L 328.9375 16.347656 L 328.9375 20.160156 Z M 328.9375 15.363281 L 331.382812 15.363281 C 331.902344 15.367188 332.308594 15.3125 332.601562 15.203125 C 332.890625 15.09375 333.113281 14.921875 333.269531 14.6875 C 333.421875 14.453125 333.496094 14.195312 333.5 13.914062 C 333.496094 13.507812 333.347656 13.175781 333.054688 12.914062 C 332.757812 12.652344 332.292969 12.519531 331.65625 12.519531 L 328.9375 12.519531 Z M 340.574219 18.15625 L 341.664062 18.292969 C 341.492188 18.929688 341.171875 19.421875 340.707031 19.773438 C 340.242188 20.125 339.648438 20.300781 338.929688 20.300781 C 338.015625 20.300781 337.292969 20.023438 336.761719 19.460938 C 336.222656 18.90625 335.957031 18.117188 335.960938 17.101562 C 335.957031 16.054688 336.226562 15.242188 336.769531 14.664062 C 337.304688 14.085938 338.003906 13.796875 338.867188 13.796875 C 339.699219 13.796875 340.378906 14.082031 340.90625 14.648438 C 341.433594 15.214844 341.699219 16.011719 341.699219 17.035156 C 341.699219 17.101562 341.695312 17.195312 341.695312 17.316406 L 337.054688 17.316406 C 337.085938 18.003906 337.28125 18.527344 337.632812 18.890625 C 337.980469 19.253906 338.414062 19.433594 338.933594 19.433594 C 339.320312 19.433594 339.648438 19.332031 339.925781 19.128906 C 340.195312 18.925781 340.414062 18.601562 340.574219 18.15625 Z M 337.109375 16.449219 L 340.585938 16.449219 C 340.539062 15.933594 340.40625 15.539062 340.1875 15.273438 C 339.851562 14.867188 339.414062 14.664062 338.882812 14.664062 C 338.394531 14.664062 337.988281 14.828125 337.660156 15.152344 C 337.328125 15.476562 337.144531 15.910156 337.109375 16.449219 Z M 347.027344 20.160156 L 347.027344 19.375 C 346.628906 19.992188 346.046875 20.300781 345.285156 20.300781 C 344.789062 20.300781 344.332031 20.164062 343.917969 19.890625 C 343.496094 19.617188 343.175781 19.238281 342.949219 18.746094 C 342.722656 18.261719 342.609375 17.695312 342.609375 17.054688 C 342.609375 16.433594 342.710938 15.871094 342.917969 15.363281 C 343.125 14.859375 343.4375 14.472656 343.851562 14.203125 C 344.265625 13.933594 344.726562 13.796875 345.238281 13.796875 C 345.609375 13.796875 345.945312 13.878906 346.242188 14.035156 C 346.535156 14.195312 346.773438 14.398438 346.957031 14.652344 L 346.957031 11.570312 L 348.003906 11.570312 L 348.003906 20.160156 Z M 343.691406 17.054688 C 343.6875 17.851562 343.855469 18.449219 344.195312 18.84375 C 344.527344 19.238281 344.925781 19.433594 345.386719 19.433594 C 345.847656 19.433594 346.238281 19.246094 346.558594 18.867188 C 346.878906 18.492188 347.039062 17.917969 347.042969 17.144531 C 347.039062 16.292969 346.875 15.667969 346.550781 15.265625 C 346.21875 14.871094 345.816406 14.671875 345.339844 14.667969 C 344.871094 14.671875 344.476562 14.863281 344.164062 15.242188 C 343.84375 15.628906 343.6875 16.230469 343.691406 17.054688 Z M 326.859375 9.296875 "/>
<path fill-rule="nonzero" fill="rgb(21.176471%, 63.529412%, 92.156863%)" fill-opacity="1" stroke-width="2" stroke-linecap="butt" stroke-linejoin="miter" stroke="rgb(100%, 100%, 100%)" stroke-opacity="1" stroke-miterlimit="10" d="M 358.875 10 L 398.875 10 L 398.875 22 L 358.875 22 Z M 358.875 10 "/>
<path fill-rule="nonzero" fill="rgb(40%, 40%, 40%)" fill-opacity="1" d="M 405.753906 20.160156 L 405.753906 11.570312 L 408.976562 11.570312 C 409.632812 11.570312 410.15625 11.660156 410.554688 11.832031 C 410.945312 12.007812 411.257812 12.273438 411.484375 12.632812 C 411.710938 12.996094 411.824219 13.375 411.824219 13.769531 C 411.824219 14.136719 411.722656 14.480469 411.523438 14.804688 C 411.324219 15.132812 411.023438 15.394531 410.625 15.589844 C 411.140625 15.742188 411.539062 16.003906 411.820312 16.367188 C 412.097656 16.738281 412.238281 17.171875 412.242188 17.667969 C 412.238281 18.074219 412.152344 18.449219 411.984375 18.792969 C 411.8125 19.140625 411.605469 19.40625 411.355469 19.589844 C 411.105469 19.78125 410.789062 19.921875 410.414062 20.015625 C 410.035156 20.113281 409.574219 20.160156 409.03125 20.160156 Z M 406.890625 15.179688 L 408.75 15.179688 C 409.25 15.179688 409.613281 15.148438 409.832031 15.082031 C 410.121094 14.996094 410.335938 14.851562 410.484375 14.652344 C 410.625 14.457031 410.699219 14.207031 410.703125 13.902344 C 410.699219 13.617188 410.632812 13.367188 410.5 13.148438 C 410.363281 12.933594 410.167969 12.785156 409.914062 12.703125 C 409.65625 12.625 409.21875 12.585938 408.609375 12.582031 L 406.890625 12.582031 Z M 406.890625 19.144531 L 409.03125 19.144531 C 409.390625 19.148438 409.648438 19.132812 409.804688 19.105469 C 410.0625 19.058594 410.28125 18.980469 410.457031 18.871094 C 410.632812 18.761719 410.777344 18.605469 410.890625 18.394531 C 411.003906 18.191406 411.0625 17.949219 411.0625 17.667969 C 411.0625 17.355469 410.980469 17.078125 410.816406 16.835938 C 410.652344 16.601562 410.421875 16.433594 410.132812 16.335938 C 409.835938 16.242188 409.417969 16.195312 408.875 16.191406 L 406.890625 16.191406 Z M 413.644531 20.160156 L 413.644531 11.570312 L 414.699219 11.570312 L 414.699219 20.160156 Z M 420.414062 20.160156 L 420.414062 19.246094 C 419.925781 19.949219 419.269531 20.300781 418.441406 20.300781 C 418.074219 20.300781 417.730469 20.230469 417.414062 20.089844 C 417.09375 19.949219 416.855469 19.773438 416.703125 19.558594 C 416.546875 19.347656 416.441406 19.085938 416.378906 18.777344 C 416.332031 18.570312 416.308594 18.242188 416.3125 17.792969 L 416.3125 13.9375 L 417.367188 13.9375 L 417.367188 17.386719 C 417.363281 17.941406 417.386719 18.3125 417.433594 18.503906 C 417.496094 18.78125 417.636719 19 417.855469 19.15625 C 418.070312 19.320312 418.335938 19.398438 418.652344 19.394531 C 418.964844 19.398438 419.261719 19.316406 419.542969 19.152344 C 419.820312 18.988281 420.015625 18.769531 420.132812 18.488281 C 420.246094 18.210938 420.304688 17.804688 420.304688 17.269531 L 420.304688 13.9375 L 421.359375 13.9375 L 421.359375 20.160156 Z M 427.269531 18.15625 L 428.359375 18.292969 C 428.1875 18.929688 427.867188 19.421875 427.402344 19.773438 C 426.9375 20.125 426.34375 20.300781 425.625 20.300781 C 424.710938 20.300781 423.988281 20.023438 423.457031 19.460938 C 422.917969 18.90625 422.652344 18.117188 422.65625 17.101562 C 422.652344 16.054688 422.921875 15.242188 423.464844 14.664062 C 424 14.085938 424.699219 13.796875 425.5625 13.796875 C 426.394531 13.796875 427.074219 14.082031 427.601562 14.648438 C 428.128906 15.214844 428.394531 16.011719 428.394531 17.035156 C 428.394531 17.101562 428.390625 17.195312 428.390625 17.316406 L 423.75 17.316406 C 423.78125 18.003906 423.976562 18.527344 424.328125 18.890625 C 424.675781 19.253906 425.109375 19.433594 425.628906 19.433594 C 426.015625 19.433594 426.34375 19.332031 426.621094 19.128906 C 426.890625 18.925781 427.109375 18.601562 427.269531 18.15625 Z M 423.804688 16.449219 L 427.28125 16.449219 C 427.234375 15.933594 427.101562 15.539062 426.882812 15.273438 C 426.546875 14.867188 426.109375 14.664062 425.578125 14.664062 C 425.089844 14.664062 424.683594 14.828125 424.355469 15.152344 C 424.023438 15.476562 423.839844 15.910156 423.804688 16.449219 Z M 404.875 9.296875 "/>
<path fill-rule="nonzero" fill="rgb(100%, 80.392157%, 33.72549%)" fill-opacity="1" stroke-width="2" stroke-linecap="butt" stroke-linejoin="miter" stroke="rgb(100%, 100%, 100%)" stroke-opacity="1" stroke-miterlimit="10" d="M 438.890625 10 L 478.890625 10 L 478.890625 22 L 438.890625 22 Z M 438.890625 10 "/>
<path fill-rule="nonzero" fill="rgb(40%, 40%, 40%)" fill-opacity="1" d="M 488.234375 20.160156 L 488.234375 16.519531 L 484.925781 11.570312 L 486.308594 11.570312 L 488 14.160156 C 488.308594 14.644531 488.601562 15.128906 488.875 15.613281 C 489.132812 15.167969 489.445312 14.664062 489.8125 14.097656 L 491.476562 11.570312 L 492.800781 11.570312 L 489.375 16.519531 L 489.375 20.160156 Z M 496.84375 18.15625 L 497.933594 18.292969 C 497.761719 18.929688 497.441406 19.421875 496.976562 19.773438 C 496.511719 20.125 495.917969 20.300781 495.199219 20.300781 C 494.285156 20.300781 493.5625 20.023438 493.03125 19.460938 C 492.492188 18.90625 492.226562 18.117188 492.230469 17.101562 C 492.226562 16.054688 492.496094 15.242188 493.039062 14.664062 C 493.574219 14.085938 494.273438 13.796875 495.136719 13.796875 C 495.96875 13.796875 496.648438 14.082031 497.175781 14.648438 C 497.703125 15.214844 497.96875 16.011719 497.96875 17.035156 C 497.96875 17.101562 497.964844 17.195312 497.964844 17.316406 L 493.324219 17.316406 C 493.355469 18.003906 493.550781 18.527344 493.902344 18.890625 C 494.25 19.253906 494.683594 19.433594 495.203125 19.433594 C 495.589844 19.433594 495.917969 19.332031 496.195312 19.128906 C 496.464844 18.925781 496.683594 18.601562 496.84375 18.15625 Z M 493.378906 16.449219 L 496.855469 16.449219 C 496.808594 15.933594 496.675781 15.539062 496.457031 15.273438 C 496.121094 14.867188 495.683594 14.664062 495.152344 14.664062 C 494.664062 14.664062 494.257812 14.828125 493.929688 15.152344 C 493.597656 15.476562 493.414062 15.910156 493.378906 16.449219 Z M 499.234375 20.160156 L 499.234375 11.570312 L 500.289062 11.570312 L 500.289062 20.160156 Z M 501.898438 20.160156 L 501.898438 11.570312 L 502.953125 11.570312 L 502.953125 20.160156 Z M 504.195312 17.050781 C 504.195312 15.898438 504.515625 15.042969 505.15625 14.488281 C 505.691406 14.027344 506.34375 13.796875 507.113281 13.796875 C 507.96875 13.796875 508.667969 14.078125 509.210938 14.640625 C 509.75 15.203125 510.019531 15.976562 510.023438 16.960938 C 510.019531 17.761719 509.898438 18.394531 509.664062 18.851562 C 509.421875 19.3125 509.074219 19.667969 508.617188 19.921875 C 508.15625 20.175781 507.65625 20.300781 507.113281 20.300781 C 506.238281 20.300781 505.53125 20.023438 505 19.464844 C 504.460938 18.90625 504.195312 18.101562 504.195312 17.050781 Z M 505.28125 17.050781 C 505.277344 17.851562 505.453125 18.449219 505.800781 18.839844 C 506.144531 19.238281 506.582031 19.433594 507.113281 19.433594 C 507.636719 19.433594 508.070312 19.234375 508.417969 18.835938 C 508.765625 18.4375 508.941406 17.832031 508.941406 17.011719 C 508.941406 16.246094 508.765625 15.664062 508.414062 15.265625 C 508.0625 14.871094 507.628906 14.671875 507.113281 14.667969 C 506.582031 14.671875 506.144531 14.867188 505.800781 15.261719 C 505.453125 15.660156 505.277344 16.257812 505.28125 17.050781 Z M 512.410156 20.160156 L 510.507812 13.9375 L 511.597656 13.9375 L 512.589844 17.527344 L 512.957031 18.863281 C 512.972656 18.800781 513.078125 18.371094 513.277344 17.582031 L 514.269531 13.9375 L 515.355469 13.9375 L 516.285156 17.546875 L 516.597656 18.738281 L 516.953125 17.535156 L 518.019531 13.9375 L 519.042969 13.9375 L 517.097656 20.160156 L 516.003906 20.160156 L 515.011719 16.433594 L 514.773438 15.371094 L 513.511719 20.160156 Z M 484.890625 9.296875 "/>
<path fill-rule="nonzero" fill="rgb(100%, 38.823529%, 51.764706%)" fill-opacity="1" stroke-width="2" stroke-linecap="butt" stroke-linejoin="bevel" stroke="rgb(100%, 100%, 100%)" stroke-opacity="1" stroke-miterlimit="10" d="M 400 33 C 501.105469 33 594.53125 86.941406 645.085938 174.5 C 695.636719 262.058594 695.636719 369.941406 645.085938 457.5 C 594.53125 545.058594 501.105469 599 400 599 C 298.894531 599 205.46875 545.058594 154.914062 457.5 L 277.457031 386.75 C 302.734375 430.53125 349.445312 457.5 400 457.5 C 450.554688 457.5 497.265625 430.53125 522.542969 386.75 C 547.820312 342.96875 547.820312 289.03125 522.542969 245.25 C 497.265625 201.46875 450.554688 174.5 400 174.5 Z M 400 33 "/>
<path fill-rule="nonzero" fill="rgb(21.176471%, 63.529412%, 92.156863%)" fill-opacity="1" stroke-width="2" stroke-linecap="butt" stroke-linejoin="bevel" stroke="rgb(100%, 100%, 100%)" stroke-opacity="1" stroke-miterlimit="10" d="M 154.914062 457.5 C 121.648438 399.878906 109.746094 332.378906 121.300781 266.859375 L 260.648438 291.429688 C 254.871094 324.191406 260.824219 357.941406 277.457031 386.75 Z M 154.914062 457.5 "/>
<path fill-rule="nonzero" fill="rgb(100%, 80.392157%, 33.72549%)" fill-opacity="1" stroke-width="2" stroke-linecap="butt" stroke-linejoin="bevel" stroke="rgb(100%, 100%, 100%)" stroke-opacity="1" stroke-miterlimit="10" d="M 121.300781 266.859375 C 145.148438 131.605469 262.660156 33 400 33 L 400 174.5 C 331.332031 174.5 272.574219 223.804688 260.648438 291.429688 Z M 121.300781 266.859375 "/>
</svg>
