<?xml version="1.0" encoding="UTF-8"?>
<svg xmlns="http://www.w3.org/2000/svg" xmlns:xlink="http://www.w3.org/1999/xlink" width="800" height="600" viewBox="0 0 800 600">
<defs>
<clipPath id="clip-0">
<path clip-rule="nonzero" d="M 22.347656 34 L 794.332031 34 L 794.332031 576.601562 L 22.347656 576.601562 Z M 22.347656 34 "/>
</clipPath>
<clipPath id="clip-1">
<path clip-rule="nonzero" d="M 22.347656 254 L 45 254 L 45 289 L 22.347656 289 Z M 22.347656 254 "/>
</clipPath>
<clipPath id="clip-2">
<path clip-rule="nonzero" d="M 772 554 L 794.332031 554 L 794.332031 576.601562 L 772 576.601562 Z M 772 554 "/>
</clipPath>
</defs>
<rect x="-80" y="-60" width="960" height="720" fill="rgb(100%, 100%, 100%)" fill-opacity="1"/>
<path fill="none" stroke-width="1" stroke-linecap="butt" stroke-linejoin="miter" stroke="rgb(0%, 0%, 0%)" stroke-opacity="0.0980392" stroke-miterlimit="10" d="M 27.5 32 L 27.5 571 "/>
<path fill="none" stroke-width="1" stroke-linecap="butt" stroke-linejoin="miter" stroke="rgb(0%, 0%, 0%)" stroke-opacity="0.0980392" stroke-miterlimit="10" d="M 27.5 572 L 27.5 579.601562 "/>
<path fill="none" stroke-width="1" stroke-linecap="butt" stroke-linejoin="miter" stroke="rgb(0%, 0%, 0%)" stroke-opacity="0.0980392" stroke-miterlimit="10" d="M 154.5 32 L 154.5 571 "/>
<path fill="none" stroke-width="1" stroke-linecap="butt" stroke-linejoin="miter" stroke="rgb(0%, 0%, 0%)" stroke-opacity="0.0980392" stroke-miterlimit="10" d="M 154.5 572 L 154.5 579.601562 "/>
<path fill="none" stroke-width="1" stroke-linecap="butt" stroke-linejoin="miter" stroke="rgb(0%, 0%, 0%)" stroke-opacity="0.0980392" stroke-miterlimit="10" d="M 281.5 32 L 281.5 571 "/>
<path fill="none" stroke-width="1" stroke-linecap="butt" stroke-linejoin="miter" stroke="rgb(0%, 0%, 0%)" stroke-opacity="0.0980392" stroke-miterlimit="10" d="M 281.5 572 L 281.5 579.601562 "/>
<path fill="none" stroke-width="1" stroke-linecap="butt" stroke-linejoin="miter" stroke="rgb(0%, 0%, 0%)" stroke-opacity="0.0980392" stroke-miterlimit="10" d="M 408.5 32 L 408.5 571 "/>
<path fill="none" stroke-width="1" stroke-linecap="butt" stroke-linejoin="miter" stroke="rgb(0%, 0%, 0%)" stroke-opacity="0.0980392" stroke-miterlimit="10" d="M 408.5 572 L 408.5 579.601562 "/>
<path fill="none" stroke-width="1" stroke-linecap="butt" stroke-linejoin="miter" stroke="rgb(0%, 0%, 0%)" stroke-opacity="0.0980392" stroke-miterlimit="10" d="M 535.5 32 L 535.5 571 "/>
<path fill="none" stroke-width="1" stroke-linecap="butt" stroke-linejoin="miter" stroke="rgb(0%, 0%, 0%)" stroke-opacity="0.0980392" stroke-miterlimit="10" d="M 535.5 572 L 535.5 579.601562 "/>
<path fill="none" stroke-width="1" stroke-linecap="butt" stroke-linejoin="miter" stroke="rgb(0%, 0%, 0%)" stroke-opacity="0.0980392" stroke-miterlimit="10" d="M 662.5 32 L 662.5 571 "/>
<path fill="none" stroke-width="1" stroke-linecap="butt" stroke-linejoin="miter" stroke="rgb(0%, 0%, 0%)" stroke-opacity="0.0980392" stroke-miterlimit="10" d="M 662.5 572 L 662.5 579.601562 "/>
<path fill="none" stroke-width="1" stroke-linecap="butt" stroke-linejoin="miter" stroke="rgb(0%, 0%, 0%)" stroke-opacity="0.0980392" stroke-miterlimit="10" d="M 789.5 32 L 789.5 571 "/>
<path fill="none" stroke-width="1" stroke-linecap="butt" stroke-linejoin="miter" stroke="rgb(0%, 0%, 0%)" stroke-opacity="0.0980392" stroke-miterlimit="10" d="M 789.5 572 L 789.5 579.601562 "/>
<path fill="none" stroke-width="1" stroke-linecap="butt" stroke-linejoin="miter" stroke="rgb(0%, 0%, 0%)" stroke-opacity="0.0980392" stroke-miterlimit="10" d="M 28 571.5 L 789.328125 571.5 "/>
<path fill="none" stroke-width="1" stroke-linecap="butt" stroke-linejoin="miter" stroke="rgb(0%, 0%, 0%)" stroke-opacity="0.0980392" stroke-miterlimit="10" d="M 19.347656 571.5 L 27 571.5 "/>
<path fill="none" stroke-width="1" stroke-linecap="butt" stroke-linejoin="miter" stroke="rgb(0%, 0%, 0%)" stroke-opacity="0.0980392" stroke-miterlimit="10" d="M 28 511.5 L 789.328125 511.5 "/>
<path fill="none" stroke-width="1" stroke-linecap="butt" stroke-linejoin="miter" stroke="rgb(0%, 0%, 0%)" stroke-opacity="0.0980392" stroke-miterlimit="10" d="M 19.347656 511.5 L 27 511.5 "/>
<path fill="none" stroke-width="1" stroke-linecap="butt" stroke-linejoin="miter" stroke="rgb(0%, 0%, 0%)" stroke-opacity="0.0980392" stroke-miterlimit="10" d="M 28 451.5 L 789.328125 451.5 "/>
<path fill="none" stroke-width="1" stroke-linecap="butt" stroke-linejoin="miter" stroke="rgb(0%, 0%, 0%)" stroke-opacity="0.0980392" stroke-miterlimit="10" d="M 19.347656 451.5 L 27 451.5 "/>
<path fill="none" stroke-width="1" stroke-linecap="butt" stroke-linejoin="miter" stroke="rgb(0%, 0%, 0%)" stroke-opacity="0.0980392" stroke-miterlimit="10" d="M 28 391.5 L 789.328125 391.5 "/>
<path fill="none" stroke-width="1" stroke-linecap="butt" stroke-linejoin="miter" stroke="rgb(0%, 0%, 0%)" stroke-opacity="0.0980392" stroke-miterlimit="10" d="M 19.347656 391.5 L 27 391.5 "/>
<path fill="none" stroke-width="1" stroke-linecap="butt" stroke-linejoin="miter" stroke="rgb(0%, 0%, 0%)" stroke-opacity="0.0980392" stroke-miterlimit="10" d="M 28 331.5 L 789.328125 331.5 "/>
<path fill="none" stroke-width="1" stroke-linecap="butt" stroke-linejoin="miter" stroke="rgb(0%, 0%, 0%)" stroke-opacity="0.0980392" stroke-miterlimit="10" d="M 19.347656 331.5 L 27 331.5 "/>
<path fill="none" stroke-width="1" stroke-linecap="butt" stroke-linejoin="miter" stroke="rgb(0%, 0%, 0%)" stroke-opacity="0.0980392" stroke-miterlimit="10" d="M 28 271.5 L 789.328125 271.5 "/>
<path fill="none" stroke-width="1" stroke-linecap="butt" stroke-linejoin="miter" stroke="rgb(0%, 0%, 0%)" stroke-opacity="0.0980392" stroke-miterlimit="10" d="M 19.347656 271.5 L 27 271.5 "/>
<path fill="none" stroke-width="1" stroke-linecap="butt" stroke-linejoin="miter" stroke="rgb(0%, 0%, 0%)" stroke-opacity="0.0980392" stroke-miterlimit="10" d="M 28 211.5 L 789.328125 211.5 "/>
<path fill="none" stroke-width="1" stroke-linecap="butt" stroke-linejoin="miter" stroke="rgb(0%, 0%, 0%)" stroke-opacity="0.0980392" stroke-miterlimit="10" d="M 19.347656 211.5 L 27 211.5 "/>
<path fill="none" stroke-width="1" stroke-linecap="butt" stroke-linejoin="miter" stroke="rgb(0%, 0%, 0%)" stroke-opacity="0.0980392" stroke-miterlimit="10" d="M 28 151.5 L 789.328125 151.5 "/>
<path fill="none" stroke-width="1" stroke-linecap="butt" stroke-linejoin="miter" stroke="rgb(0%, 0%, 0%)" stroke-opacity="0.0980392" stroke-miterlimit="10" d="M 19.347656 151.5 L 27 151.5 "/>
<path fill="none" stroke-width="1" stroke-linecap="butt" stroke-linejoin="miter" stroke="rgb(0%, 0%, 0%)" stroke-opacity="0.0980392" stroke-miterlimit="10" d="M 28 91.5 L 789.328125 91.5 "/>
<path fill="none" stroke-width="1" stroke-linecap="butt" stroke-linejoin="miter" stroke="rgb(0%, 0%, 0%)" stroke-opacity="0.0980392" stroke-miterlimit="10" d="M 19.347656 91.5 L 27 91.5 "/>
<path fill="none" stroke-width="1" stroke-linecap="butt" stroke-linejoin="miter" stroke="rgb(0%, 0%, 0%)" stroke-opacity="0.0980392" stroke-miterlimit="10" d="M 28 32.5 L 789.328125 32.5 "/>
<path fill="none" stroke-width="1" stroke-linecap="butt" stroke-linejoin="miter" stroke="rgb(0%, 0%, 0%)" stroke-opacity="0.0980392" stroke-miterlimit="10" d="M 19.347656 32.5 L 27 32.5 "/>
<path fill-rule="nonzero" fill="rgb(0%, 0%, 0%)" fill-opacity="0.0980392" stroke-width="3" stroke-linecap="butt" stroke-linejoin="miter" stroke="rgb(29.411765%, 75.294118%, 75.294118%)" stroke-opacity="1" stroke-miterlimit="10" d="M 333.328125 10 L 373.328125 10 L 373.328125 22 L 333.328125 22 Z M 333.328125 10 "/>
<path fill-rule="nonzero" fill="rgb(40%, 40%, 40%)" fill-opacity="1" d="M 380.21875 20.160156 L 380.21875 11.570312 L 381.929688 11.570312 L 383.960938 17.652344 C 384.144531 18.222656 384.28125 18.648438 384.375 18.925781 C 384.46875 18.617188 384.621094 18.15625 384.828125 17.546875 L 386.886719 11.570312 L 388.414062 11.570312 L 388.414062 20.160156 L 387.320312 20.160156 L 387.320312 12.972656 L 384.824219 20.160156 L 383.796875 20.160156 L 381.3125 12.847656 L 381.3125 20.160156 Z M 390.066406 22.558594 L 389.949219 21.566406 C 390.179688 21.628906 390.382812 21.660156 390.554688 21.660156 C 390.789062 21.660156 390.976562 21.621094 391.117188 21.542969 C 391.257812 21.464844 391.371094 21.355469 391.464844 21.214844 C 391.527344 21.109375 391.636719 20.847656 391.785156 20.429688 C 391.804688 20.367188 391.835938 20.28125 391.878906 20.171875 L 389.519531 13.9375 L 390.652344 13.9375 L 391.949219 17.542969 C 392.113281 18 392.261719 18.480469 392.402344 18.980469 C 392.519531 18.5 392.664062 18.027344 392.832031 17.566406 L 394.164062 13.9375 L 395.21875 13.9375 L 392.851562 20.265625 C 392.597656 20.949219 392.398438 21.417969 392.261719 21.675781 C 392.070312 22.023438 391.855469 22.277344 391.617188 22.441406 C 391.371094 22.597656 391.082031 22.679688 390.746094 22.683594 C 390.539062 22.679688 390.3125 22.636719 390.066406 22.558594 Z M 399.640625 20.160156 L 399.640625 11.570312 L 405.4375 11.570312 L 405.4375 12.582031 L 400.777344 12.582031 L 400.777344 15.246094 L 404.808594 15.246094 L 404.808594 16.257812 L 400.777344 16.257812 L 400.777344 20.160156 Z M 406.785156 12.785156 L 406.785156 11.570312 L 407.839844 11.570312 L 407.839844 12.785156 Z M 406.785156 20.160156 L 406.785156 13.9375 L 407.839844 13.9375 L 407.839844 20.160156 Z M 409.4375 20.160156 L 409.4375 13.9375 L 410.382812 13.9375 L 410.382812 14.878906 C 410.625 14.441406 410.847656 14.148438 411.054688 14.007812 C 411.257812 13.867188 411.484375 13.796875 411.734375 13.796875 C 412.085938 13.796875 412.449219 13.910156 412.816406 14.136719 L 412.453125 15.113281 C 412.195312 14.964844 411.9375 14.886719 411.679688 14.886719 C 411.449219 14.886719 411.242188 14.957031 411.058594 15.09375 C 410.871094 15.234375 410.738281 15.425781 410.664062 15.671875 C 410.546875 16.046875 410.488281 16.457031 410.492188 16.902344 L 410.492188 20.160156 Z M 413.015625 18.300781 L 414.0625 18.136719 C 414.117188 18.558594 414.28125 18.878906 414.550781 19.101562 C 414.816406 19.324219 415.191406 19.433594 415.671875 19.433594 C 416.15625 19.433594 416.515625 19.335938 416.75 19.136719 C 416.984375 18.941406 417.101562 18.710938 417.101562 18.441406 C 417.101562 18.207031 416.996094 18.019531 416.789062 17.878906 C 416.644531 17.789062 416.285156 17.667969 415.710938 17.523438 C 414.9375 17.328125 414.402344 17.160156 414.105469 17.015625 C 413.804688 16.875 413.578125 16.679688 413.425781 16.425781 C 413.269531 16.175781 413.191406 15.894531 413.195312 15.589844 C 413.191406 15.316406 413.253906 15.0625 413.382812 14.820312 C 413.507812 14.585938 413.683594 14.386719 413.902344 14.230469 C 414.066406 14.113281 414.289062 14.011719 414.574219 13.925781 C 414.855469 13.839844 415.160156 13.796875 415.484375 13.796875 C 415.972656 13.796875 416.398438 13.867188 416.769531 14.007812 C 417.136719 14.148438 417.410156 14.339844 417.585938 14.582031 C 417.761719 14.824219 417.882812 15.144531 417.953125 15.542969 L 416.921875 15.683594 C 416.871094 15.363281 416.734375 15.113281 416.511719 14.933594 C 416.285156 14.753906 415.96875 14.664062 415.5625 14.664062 C 415.074219 14.664062 414.730469 14.746094 414.523438 14.90625 C 414.3125 15.066406 414.207031 15.253906 414.210938 15.464844 C 414.207031 15.605469 414.25 15.726562 414.34375 15.835938 C 414.421875 15.949219 414.558594 16.042969 414.746094 16.117188 C 414.851562 16.15625 415.160156 16.246094 415.679688 16.386719 C 416.421875 16.585938 416.941406 16.75 417.238281 16.875 C 417.527344 17.003906 417.761719 17.1875 417.933594 17.429688 C 418.101562 17.671875 418.183594 17.972656 418.1875 18.332031 C 418.183594 18.683594 418.082031 19.015625 417.878906 19.328125 C 417.671875 19.640625 417.375 19.882812 416.988281 20.046875 C 416.601562 20.21875 416.164062 20.300781 415.679688 20.300781 C 414.867188 20.300781 414.25 20.132812 413.828125 19.796875 C 413.402344 19.460938 413.132812 18.964844 413.015625 18.300781 Z M 421.742188 19.214844 L 421.894531 20.148438 C 421.597656 20.210938 421.332031 20.242188 421.097656 20.242188 C 420.714844 20.242188 420.417969 20.183594 420.207031 20.0625 C 419.996094 19.941406 419.847656 19.78125 419.761719 19.582031 C 419.675781 19.386719 419.632812 18.972656 419.632812 18.339844 L 419.632812 14.757812 L 418.859375 14.757812 L 418.859375 13.9375 L 419.632812 13.9375 L 419.632812 12.394531 L 420.679688 11.761719 L 420.679688 13.9375 L 421.742188 13.9375 L 421.742188 14.757812 L 420.679688 14.757812 L 420.679688 18.394531 C 420.675781 18.699219 420.695312 18.890625 420.734375 18.976562 C 420.773438 19.0625 420.832031 19.132812 420.917969 19.183594 C 421 19.234375 421.121094 19.257812 421.28125 19.257812 C 421.390625 19.257812 421.546875 19.246094 421.742188 19.214844 Z M 426.246094 20.160156 L 426.246094 11.570312 L 429.203125 11.570312 C 429.871094 11.570312 430.382812 11.613281 430.734375 11.691406 C 431.226562 11.808594 431.644531 12.011719 431.992188 12.308594 C 432.441406 12.691406 432.78125 13.183594 433.007812 13.777344 C 433.234375 14.375 433.347656 15.054688 433.347656 15.816406 C 433.347656 16.472656 433.269531 17.050781 433.117188 17.554688 C 432.964844 18.058594 432.769531 18.476562 432.53125 18.804688 C 432.292969 19.140625 432.03125 19.398438 431.75 19.585938 C 431.464844 19.773438 431.125 19.917969 430.726562 20.015625 C 430.324219 20.113281 429.863281 20.160156 429.34375 20.160156 Z M 427.382812 19.144531 L 429.21875 19.144531 C 429.78125 19.148438 430.226562 19.09375 430.546875 18.988281 C 430.867188 18.886719 431.125 18.738281 431.320312 18.542969 C 431.589844 18.273438 431.796875 17.914062 431.949219 17.457031 C 432.097656 17.003906 432.175781 16.449219 432.175781 15.800781 C 432.175781 14.902344 432.027344 14.214844 431.730469 13.730469 C 431.433594 13.25 431.074219 12.925781 430.65625 12.761719 C 430.351562 12.644531 429.863281 12.585938 429.1875 12.582031 L 427.382812 12.582031 Z M 438.835938 19.394531 C 438.445312 19.726562 438.066406 19.960938 437.707031 20.097656 C 437.339844 20.234375 436.953125 20.300781 436.546875 20.300781 C 435.859375 20.300781 435.335938 20.136719 434.96875 19.800781 C 434.601562 19.472656 434.417969 19.042969 434.417969 18.519531 C 434.417969 18.214844 434.484375 17.9375 434.625 17.6875 C 434.761719 17.4375 434.945312 17.234375 435.171875 17.078125 C 435.394531 16.925781 435.648438 16.8125 435.929688 16.730469 C 436.136719 16.683594 436.449219 16.628906 436.867188 16.574219 C 437.71875 16.472656 438.34375 16.351562 438.75 16.210938 C 438.75 16.070312 438.753906 15.980469 438.753906 15.933594 C 438.753906 15.511719 438.652344 15.207031 438.453125 15.027344 C 438.183594 14.789062 437.785156 14.671875 437.253906 14.667969 C 436.753906 14.671875 436.386719 14.757812 436.152344 14.929688 C 435.917969 15.105469 435.742188 15.414062 435.632812 15.855469 L 434.601562 15.714844 C 434.691406 15.273438 434.847656 14.917969 435.0625 14.644531 C 435.273438 14.378906 435.582031 14.167969 435.992188 14.019531 C 436.394531 13.871094 436.867188 13.796875 437.40625 13.796875 C 437.9375 13.796875 438.367188 13.859375 438.699219 13.984375 C 439.03125 14.109375 439.277344 14.269531 439.433594 14.457031 C 439.589844 14.648438 439.699219 14.886719 439.761719 15.175781 C 439.792969 15.355469 439.808594 15.679688 439.8125 16.144531 L 439.8125 17.550781 C 439.808594 18.535156 439.832031 19.15625 439.878906 19.414062 C 439.925781 19.675781 440.015625 19.921875 440.148438 20.160156 L 439.046875 20.160156 C 438.9375 19.941406 438.867188 19.6875 438.835938 19.394531 Z M 438.75 17.035156 C 438.359375 17.195312 437.785156 17.328125 437.023438 17.433594 C 436.589844 17.5 436.285156 17.570312 436.105469 17.644531 C 435.925781 17.726562 435.785156 17.839844 435.6875 17.988281 C 435.589844 18.140625 435.542969 18.308594 435.542969 18.488281 C 435.542969 18.773438 435.648438 19.007812 435.859375 19.191406 C 436.070312 19.382812 436.382812 19.476562 436.796875 19.472656 C 437.203125 19.476562 437.5625 19.386719 437.878906 19.207031 C 438.195312 19.03125 438.429688 18.789062 438.578125 18.480469 C 438.691406 18.242188 438.746094 17.890625 438.75 17.425781 Z M 443.75 19.214844 L 443.902344 20.148438 C 443.605469 20.210938 443.339844 20.242188 443.105469 20.242188 C 442.722656 20.242188 442.425781 20.183594 442.214844 20.0625 C 442.003906 19.941406 441.855469 19.78125 441.769531 19.582031 C 441.683594 19.386719 441.640625 18.972656 441.640625 18.339844 L 441.640625 14.757812 L 440.867188 14.757812 L 440.867188 13.9375 L 441.640625 13.9375 L 441.640625 12.394531 L 442.6875 11.761719 L 442.6875 13.9375 L 443.75 13.9375 L 443.75 14.757812 L 442.6875 14.757812 L 442.6875 18.394531 C 442.683594 18.699219 442.703125 18.890625 442.742188 18.976562 C 442.78125 19.0625 442.839844 19.132812 442.925781 19.183594 C 443.007812 19.234375 443.128906 19.257812 443.289062 19.257812 C 443.398438 19.257812 443.554688 19.246094 443.75 19.214844 Z M 448.84375 19.394531 C 448.453125 19.726562 448.074219 19.960938 447.714844 20.097656 C 447.347656 20.234375 446.960938 20.300781 446.554688 20.300781 C 445.867188 20.300781 445.34375 20.136719 444.976562 19.800781 C 444.609375 19.472656 444.425781 19.042969 444.425781 18.519531 C 444.425781 18.214844 444.492188 17.9375 444.632812 17.6875 C 444.769531 17.4375 444.953125 17.234375 445.179688 17.078125 C 445.402344 16.925781 445.65625 16.8125 445.9375 16.730469 C 446.144531 16.683594 446.457031 16.628906 446.875 16.574219 C 447.726562 16.472656 448.351562 16.351562 448.757812 16.210938 C 448.757812 16.070312 448.761719 15.980469 448.761719 15.933594 C 448.761719 15.511719 448.660156 15.207031 448.460938 15.027344 C 448.191406 14.789062 447.792969 14.671875 447.261719 14.667969 C 446.761719 14.671875 446.394531 14.757812 446.160156 14.929688 C 445.925781 15.105469 445.75 15.414062 445.640625 15.855469 L 444.609375 15.714844 C 444.699219 15.273438 444.855469 14.917969 445.070312 14.644531 C 445.28125 14.378906 445.589844 14.167969 446 14.019531 C 446.402344 13.871094 446.875 13.796875 447.414062 13.796875 C 447.945312 13.796875 448.375 13.859375 448.707031 13.984375 C 449.039062 14.109375 449.285156 14.269531 449.441406 14.457031 C 449.597656 14.648438 449.707031 14.886719 449.769531 15.175781 C 449.800781 15.355469 449.816406 15.679688 449.820312 16.144531 L 449.820312 17.550781 C 449.816406 18.535156 449.839844 19.15625 449.886719 19.414062 C 449.933594 19.675781 450.023438 19.921875 450.15625 20.160156 L 449.054688 20.160156 C 448.945312 19.941406 448.875 19.6875 448.84375 19.394531 Z M 448.757812 17.035156 C 448.367188 17.195312 447.792969 17.328125 447.03125 17.433594 C 446.597656 17.5 446.292969 17.570312 446.113281 17.644531 C 445.933594 17.726562 445.792969 17.839844 445.695312 17.988281 C 445.597656 18.140625 445.550781 18.308594 445.550781 18.488281 C 445.550781 18.773438 445.65625 19.007812 445.867188 19.191406 C 446.078125 19.382812 446.390625 19.476562 446.804688 19.472656 C 447.210938 19.476562 447.570312 19.386719 447.886719 19.207031 C 448.203125 19.03125 448.4375 18.789062 448.585938 18.480469 C 448.699219 18.242188 448.753906 17.890625 448.757812 17.425781 Z M 451.03125 18.300781 L 452.078125 18.136719 C 452.132812 18.558594 452.296875 18.878906 452.566406 19.101562 C 452.832031 19.324219 453.207031 19.433594 453.6875 19.433594 C 454.171875 19.433594 454.53125 19.335938 454.765625 19.136719 C 455 18.941406 455.117188 18.710938 455.117188 18.441406 C 455.117188 18.207031 455.011719 18.019531 454.804688 17.878906 C 454.660156 17.789062 454.300781 17.667969 453.726562 17.523438 C 452.953125 17.328125 452.417969 17.160156 452.121094 17.015625 C 451.820312 16.875 451.59375 16.679688 451.441406 16.425781 C 451.285156 16.175781 451.207031 15.894531 451.210938 15.589844 C 451.207031 15.316406 451.269531 15.0625 451.398438 14.820312 C 451.523438 14.585938 451.699219 14.386719 451.917969 14.230469 C 452.082031 14.113281 452.304688 14.011719 452.589844 13.925781 C 452.871094 13.839844 453.175781 13.796875 453.5 13.796875 C 453.988281 13.796875 454.414062 13.867188 454.785156 14.007812 C 455.152344 14.148438 455.425781 14.339844 455.601562 14.582031 C 455.777344 14.824219 455.898438 15.144531 455.96875 15.542969 L 454.9375 15.683594 C 454.886719 15.363281 454.75 15.113281 454.527344 14.933594 C 454.300781 14.753906 453.984375 14.664062 453.578125 14.664062 C 453.089844 14.664062 452.746094 14.746094 452.539062 14.90625 C 452.328125 15.066406 452.222656 15.253906 452.226562 15.464844 C 452.222656 15.605469 452.265625 15.726562 452.359375 15.835938 C 452.4375 15.949219 452.574219 16.042969 452.761719 16.117188 C 452.867188 16.15625 453.175781 16.246094 453.695312 16.386719 C 454.4375 16.585938 454.957031 16.75 455.253906 16.875 C 455.542969 17.003906 455.777344 17.1875 455.949219 17.429688 C 456.117188 17.671875 456.199219 17.972656 456.203125 18.332031 C 456.199219 18.683594 456.097656 19.015625 455.894531 19.328125 C 455.6875 19.640625 455.390625 19.882812 455.003906 20.046875 C 454.617188 20.21875 454.179688 20.300781 453.695312 20.300781 C 452.882812 20.300781 452.265625 20.132812 451.84375 19.796875 C 451.417969 19.460938 451.148438 18.964844 451.03125 18.300781 Z M 461.714844 18.15625 L 462.804688 18.292969 C 462.632812 18.929688 462.3125 19.421875 461.847656 19.773438 C 461.382812 20.125 460.789062 20.300781 460.070312 20.300781 C 459.15625 20.300781 458.433594 20.023438 457.902344 19.460938 C 457.363281 18.90625 457.097656 18.117188 457.101562 17.101562 C 457.097656 16.054688 457.367188 15.242188 457.910156 14.664062 C 458.445312 14.085938 459.144531 13.796875 460.007812 13.796875 C 460.839844 13.796875 461.519531 14.082031 462.046875 14.648438 C 462.574219 15.214844 462.839844 16.011719 462.839844 17.035156 C 462.839844 17.101562 462.835938 17.195312 462.835938 17.316406 L 458.195312 17.316406 C 458.226562 18.003906 458.421875 18.527344 458.773438 18.890625 C 459.121094 19.253906 459.554688 19.433594 460.074219 19.433594 C 460.460938 19.433594 460.789062 19.332031 461.066406 19.128906 C 461.335938 18.925781 461.554688 18.601562 461.714844 18.15625 Z M 458.25 16.449219 L 461.726562 16.449219 C 461.679688 15.933594 461.546875 15.539062 461.328125 15.273438 C 460.992188 14.867188 460.554688 14.664062 460.023438 14.664062 C 459.535156 14.664062 459.128906 14.828125 458.800781 15.152344 C 458.46875 15.476562 458.285156 15.910156 458.25 16.449219 Z M 466.433594 19.214844 L 466.585938 20.148438 C 466.289062 20.210938 466.023438 20.242188 465.789062 20.242188 C 465.40625 20.242188 465.109375 20.183594 464.898438 20.0625 C 464.6875 19.941406 464.539062 19.78125 464.453125 19.582031 C 464.367188 19.386719 464.324219 18.972656 464.324219 18.339844 L 464.324219 14.757812 L 463.550781 14.757812 L 463.550781 13.9375 L 464.324219 13.9375 L 464.324219 12.394531 L 465.371094 11.761719 L 465.371094 13.9375 L 466.433594 13.9375 L 466.433594 14.757812 L 465.371094 14.757812 L 465.371094 18.394531 C 465.367188 18.699219 465.386719 18.890625 465.425781 18.976562 C 465.464844 19.0625 465.523438 19.132812 465.609375 19.183594 C 465.691406 19.234375 465.8125 19.257812 465.972656 19.257812 C 466.082031 19.257812 466.238281 19.246094 466.433594 19.214844 Z M 379.328125 9.296875 "/>
<path fill="none" stroke-width="1" stroke-linecap="butt" stroke-linejoin="miter" stroke="rgb(0%, 0%, 0%)" stroke-opacity="0.0980392" stroke-miterlimit="10" d="M 27 571.5 L 790 571.5 "/>
<path fill-rule="nonzero" fill="rgb(40%, 40%, 40%)" fill-opacity="1" d="M 6.691406 591.523438 L 7.71875 591.382812 C 7.746094 592.039062 7.867188 592.488281 8.089844 592.730469 C 8.304688 592.972656 8.609375 593.09375 8.996094 593.09375 C 9.28125 593.09375 9.527344 593.03125 9.734375 592.898438 C 9.9375 592.773438 10.078125 592.59375 10.160156 592.367188 C 10.234375 592.140625 10.273438 591.78125 10.277344 591.289062 L 10.277344 585.371094 L 11.417969 585.371094 L 11.417969 591.226562 C 11.414062 591.949219 11.328125 592.503906 11.15625 592.894531 C 10.980469 593.289062 10.703125 593.589844 10.328125 593.796875 C 9.945312 594.003906 9.503906 594.105469 9.003906 594.109375 C 8.246094 594.105469 7.667969 593.890625 7.269531 593.457031 C 6.863281 593.023438 6.671875 592.378906 6.691406 591.523438 Z M 17.199219 593.195312 C 16.808594 593.527344 16.429688 593.761719 16.070312 593.898438 C 15.703125 594.035156 15.316406 594.101562 14.910156 594.101562 C 14.222656 594.101562 13.699219 593.9375 13.332031 593.601562 C 12.964844 593.273438 12.78125 592.84375 12.78125 592.320312 C 12.78125 592.015625 12.847656 591.738281 12.988281 591.488281 C 13.125 591.238281 13.308594 591.035156 13.535156 590.878906 C 13.757812 590.726562 14.011719 590.613281 14.292969 590.53125 C 14.5 590.484375 14.8125 590.429688 15.230469 590.375 C 16.082031 590.273438 16.707031 590.152344 17.113281 590.011719 C 17.113281 589.871094 17.117188 589.78125 17.117188 589.734375 C 17.117188 589.3125 17.015625 589.007812 16.816406 588.828125 C 16.546875 588.589844 16.148438 588.472656 15.617188 588.46875 C 15.117188 588.472656 14.75 588.558594 14.515625 588.730469 C 14.28125 588.90625 14.105469 589.214844 13.996094 589.65625 L 12.964844 589.515625 C 13.054688 589.074219 13.210938 588.71875 13.425781 588.445312 C 13.636719 588.179688 13.945312 587.96875 14.355469 587.820312 C 14.757812 587.671875 15.230469 587.597656 15.769531 587.597656 C 16.300781 587.597656 16.730469 587.660156 17.0625 587.785156 C 17.394531 587.910156 17.640625 588.070312 17.796875 588.257812 C 17.953125 588.449219 18.0625 588.6875 18.125 588.976562 C 18.15625 589.15625 18.171875 589.480469 18.175781 589.945312 L 18.175781 591.351562 C 18.171875 592.335938 18.195312 592.957031 18.242188 593.214844 C 18.289062 593.476562 18.378906 593.722656 18.511719 593.960938 L 17.410156 593.960938 C 17.300781 593.742188 17.230469 593.488281 17.199219 593.195312 Z M 17.113281 590.835938 C 16.722656 590.996094 16.148438 591.128906 15.386719 591.234375 C 14.953125 591.300781 14.648438 591.371094 14.46875 591.445312 C 14.289062 591.527344 14.148438 591.640625 14.050781 591.789062 C 13.953125 591.941406 13.90625 592.109375 13.90625 592.289062 C 13.90625 592.574219 14.011719 592.808594 14.222656 592.992188 C 14.433594 593.183594 14.746094 593.277344 15.160156 593.273438 C 15.566406 593.277344 15.925781 593.1875 16.242188 593.007812 C 16.558594 592.832031 16.792969 592.589844 16.941406 592.28125 C 17.054688 592.042969 17.109375 591.691406 17.113281 591.226562 Z M 19.8125 593.960938 L 19.8125 587.738281 L 20.765625 587.738281 L 20.765625 588.625 C 21.21875 587.941406 21.878906 587.597656 22.742188 587.597656 C 23.113281 587.597656 23.457031 587.667969 23.777344 587.800781 C 24.089844 587.9375 24.328125 588.113281 24.484375 588.328125 C 24.640625 588.550781 24.75 588.808594 24.8125 589.109375 C 24.851562 589.304688 24.871094 589.648438 24.871094 590.132812 L 24.871094 593.960938 L 23.816406 593.960938 L 23.816406 590.175781 C 23.816406 589.746094 23.773438 589.425781 23.691406 589.210938 C 23.609375 589 23.464844 588.832031 23.257812 588.703125 C 23.046875 588.578125 22.800781 588.511719 22.523438 588.511719 C 22.070312 588.511719 21.683594 588.65625 21.355469 588.941406 C 21.027344 589.226562 20.863281 589.765625 20.867188 590.5625 L 20.867188 593.960938 Z M 30.5625 593.960938 L 30.5625 593.046875 C 30.074219 593.75 29.417969 594.101562 28.589844 594.101562 C 28.222656 594.101562 27.878906 594.03125 27.5625 593.890625 C 27.242188 593.75 27.003906 593.574219 26.851562 593.359375 C 26.695312 593.148438 26.589844 592.886719 26.527344 592.578125 C 26.480469 592.371094 26.457031 592.042969 26.460938 591.59375 L 26.460938 587.738281 L 27.515625 587.738281 L 27.515625 591.1875 C 27.511719 591.742188 27.535156 592.113281 27.582031 592.304688 C 27.644531 592.582031 27.785156 592.800781 28.003906 592.957031 C 28.21875 593.121094 28.484375 593.199219 28.800781 593.195312 C 29.113281 593.199219 29.410156 593.117188 29.691406 592.953125 C 29.96875 592.789062 30.164062 592.570312 30.28125 592.289062 C 30.394531 592.011719 30.453125 591.605469 30.453125 591.070312 L 30.453125 587.738281 L 31.507812 587.738281 L 31.507812 593.960938 Z M 37.21875 593.195312 C 36.828125 593.527344 36.449219 593.761719 36.089844 593.898438 C 35.722656 594.035156 35.335938 594.101562 34.929688 594.101562 C 34.242188 594.101562 33.71875 593.9375 33.351562 593.601562 C 32.984375 593.273438 32.800781 592.84375 32.800781 592.320312 C 32.800781 592.015625 32.867188 591.738281 33.007812 591.488281 C 33.144531 591.238281 33.328125 591.035156 33.554688 590.878906 C 33.777344 590.726562 34.03125 590.613281 34.3125 590.53125 C 34.519531 590.484375 34.832031 590.429688 35.25 590.375 C 36.101562 590.273438 36.726562 590.152344 37.132812 590.011719 C 37.132812 589.871094 37.136719 589.78125 37.136719 589.734375 C 37.136719 589.3125 37.035156 589.007812 36.835938 588.828125 C 36.566406 588.589844 36.167969 588.472656 35.636719 588.46875 C 35.136719 588.472656 34.769531 588.558594 34.535156 588.730469 C 34.300781 588.90625 34.125 589.214844 34.015625 589.65625 L 32.984375 589.515625 C 33.074219 589.074219 33.230469 588.71875 33.445312 588.445312 C 33.65625 588.179688 33.964844 587.96875 34.375 587.820312 C 34.777344 587.671875 35.25 587.597656 35.789062 587.597656 C 36.320312 587.597656 36.75 587.660156 37.082031 587.785156 C 37.414062 587.910156 37.660156 588.070312 37.816406 588.257812 C 37.972656 588.449219 38.082031 588.6875 38.144531 588.976562 C 38.175781 589.15625 38.191406 589.480469 38.195312 589.945312 L 38.195312 591.351562 C 38.191406 592.335938 38.214844 592.957031 38.261719 593.214844 C 38.308594 593.476562 38.398438 593.722656 38.53125 593.960938 L 37.429688 593.960938 C 37.320312 593.742188 37.25 593.488281 37.21875 593.195312 Z M 37.132812 590.835938 C 36.742188 590.996094 36.167969 591.128906 35.40625 591.234375 C 34.972656 591.300781 34.667969 591.371094 34.488281 591.445312 C 34.308594 591.527344 34.167969 591.640625 34.070312 591.789062 C 33.972656 591.941406 33.925781 592.109375 33.925781 592.289062 C 33.925781 592.574219 34.03125 592.808594 34.242188 592.992188 C 34.453125 593.183594 34.765625 593.277344 35.179688 593.273438 C 35.585938 593.277344 35.945312 593.1875 36.261719 593.007812 C 36.578125 592.832031 36.8125 592.589844 36.960938 592.28125 C 37.074219 592.042969 37.128906 591.691406 37.132812 591.226562 Z M 39.824219 593.960938 L 39.824219 587.738281 L 40.769531 587.738281 L 40.769531 588.679688 C 41.011719 588.242188 41.234375 587.949219 41.441406 587.808594 C 41.644531 587.667969 41.871094 587.597656 42.121094 587.597656 C 42.472656 587.597656 42.835938 587.710938 43.203125 587.9375 L 42.839844 588.914062 C 42.582031 588.765625 42.324219 588.6875 42.066406 588.6875 C 41.835938 588.6875 41.628906 588.757812 41.445312 588.894531 C 41.257812 589.035156 41.125 589.226562 41.050781 589.472656 C 40.933594 589.847656 40.875 590.257812 40.878906 590.703125 L 40.878906 593.960938 Z M 43.78125 596.359375 L 43.664062 595.367188 C 43.894531 595.429688 44.097656 595.460938 44.269531 595.460938 C 44.503906 595.460938 44.691406 595.421875 44.832031 595.34375 C 44.972656 595.265625 45.085938 595.15625 45.179688 595.015625 C 45.242188 594.910156 45.351562 594.648438 45.5 594.230469 C 45.519531 594.167969 45.550781 594.082031 45.59375 593.972656 L 43.234375 587.738281 L 44.367188 587.738281 L 45.664062 591.34375 C 45.828125 591.800781 45.976562 592.28125 46.117188 592.78125 C 46.234375 592.300781 46.378906 591.828125 46.546875 591.367188 L 47.878906 587.738281 L 48.933594 587.738281 L 46.566406 594.066406 C 46.3125 594.75 46.113281 595.21875 45.976562 595.476562 C 45.785156 595.824219 45.570312 596.078125 45.332031 596.242188 C 45.085938 596.398438 44.796875 596.480469 44.460938 596.484375 C 44.253906 596.480469 44.027344 596.4375 43.78125 596.359375 Z M 6.347656 583.097656 "/>
<path fill-rule="nonzero" fill="rgb(40%, 40%, 40%)" fill-opacity="1" d="M 131.328125 593.960938 L 131.328125 585.371094 L 137.125 585.371094 L 137.125 586.382812 L 132.464844 586.382812 L 132.464844 589.046875 L 136.496094 589.046875 L 136.496094 590.058594 L 132.464844 590.058594 L 132.464844 593.960938 Z M 142.722656 591.957031 L 143.8125 592.09375 C 143.640625 592.730469 143.320312 593.222656 142.855469 593.574219 C 142.390625 593.925781 141.796875 594.101562 141.078125 594.101562 C 140.164062 594.101562 139.441406 593.824219 138.910156 593.261719 C 138.371094 592.707031 138.105469 591.917969 138.109375 590.902344 C 138.105469 589.855469 138.375 589.042969 138.917969 588.464844 C 139.453125 587.886719 140.152344 587.597656 141.015625 587.597656 C 141.847656 587.597656 142.527344 587.882812 143.054688 588.449219 C 143.582031 589.015625 143.847656 589.8125 143.847656 590.835938 C 143.847656 590.902344 143.84375 590.996094 143.84375 591.117188 L 139.203125 591.117188 C 139.234375 591.804688 139.429688 592.328125 139.78125 592.691406 C 140.128906 593.054688 140.5625 593.234375 141.082031 593.234375 C 141.46875 593.234375 141.796875 593.132812 142.074219 592.929688 C 142.34375 592.726562 142.5625 592.402344 142.722656 591.957031 Z M 139.257812 590.25 L 142.734375 590.25 C 142.6875 589.734375 142.554688 589.339844 142.335938 589.074219 C 142 588.667969 141.5625 588.464844 141.03125 588.464844 C 140.542969 588.464844 140.136719 588.628906 139.808594 588.953125 C 139.476562 589.277344 139.292969 589.710938 139.257812 590.25 Z M 146.113281 593.960938 L 145.132812 593.960938 L 145.132812 585.371094 L 146.1875 585.371094 L 146.1875 588.4375 C 146.632812 587.878906 147.199219 587.597656 147.894531 587.597656 C 148.269531 587.597656 148.632812 587.675781 148.976562 587.832031 C 149.320312 587.988281 149.601562 588.207031 149.820312 588.480469 C 150.039062 588.761719 150.210938 589.097656 150.339844 589.492188 C 150.460938 589.886719 150.523438 590.308594 150.527344 590.757812 C 150.523438 591.824219 150.261719 592.648438 149.738281 593.230469 C 149.210938 593.8125 148.578125 594.101562 147.839844 594.101562 C 147.105469 594.101562 146.527344 593.796875 146.113281 593.179688 Z M 146.097656 590.804688 C 146.09375 591.550781 146.195312 592.089844 146.402344 592.421875 C 146.734375 592.964844 147.183594 593.234375 147.753906 593.234375 C 148.207031 593.234375 148.605469 593.035156 148.945312 592.632812 C 149.277344 592.234375 149.445312 591.636719 149.449219 590.84375 C 149.445312 590.03125 149.285156 589.433594 148.964844 589.046875 C 148.644531 588.660156 148.253906 588.464844 147.800781 588.464844 C 147.332031 588.464844 146.933594 588.667969 146.601562 589.066406 C 146.261719 589.46875 146.09375 590.046875 146.097656 590.804688 Z M 151.804688 593.960938 L 151.804688 587.738281 L 152.75 587.738281 L 152.75 588.679688 C 152.992188 588.242188 153.214844 587.949219 153.421875 587.808594 C 153.625 587.667969 153.851562 587.597656 154.101562 587.597656 C 154.453125 587.597656 154.816406 587.710938 155.183594 587.9375 L 154.820312 588.914062 C 154.5625 588.765625 154.304688 588.6875 154.046875 588.6875 C 153.816406 588.6875 153.609375 588.757812 153.425781 588.894531 C 153.238281 589.035156 153.105469 589.226562 153.03125 589.472656 C 152.914062 589.847656 152.855469 590.257812 152.859375 590.703125 L 152.859375 593.960938 Z M 159.882812 593.960938 L 159.882812 593.046875 C 159.394531 593.75 158.738281 594.101562 157.910156 594.101562 C 157.542969 594.101562 157.199219 594.03125 156.882812 593.890625 C 156.5625 593.75 156.324219 593.574219 156.171875 593.359375 C 156.015625 593.148438 155.910156 592.886719 155.847656 592.578125 C 155.800781 592.371094 155.777344 592.042969 155.78125 591.59375 L 155.78125 587.738281 L 156.835938 587.738281 L 156.835938 591.1875 C 156.832031 591.742188 156.855469 592.113281 156.902344 592.304688 C 156.964844 592.582031 157.105469 592.800781 157.324219 592.957031 C 157.539062 593.121094 157.804688 593.199219 158.121094 593.195312 C 158.433594 593.199219 158.730469 593.117188 159.011719 592.953125 C 159.289062 592.789062 159.484375 592.570312 159.601562 592.289062 C 159.714844 592.011719 159.773438 591.605469 159.773438 591.070312 L 159.773438 587.738281 L 160.828125 587.738281 L 160.828125 593.960938 Z M 166.542969 593.195312 C 166.152344 593.527344 165.773438 593.761719 165.414062 593.898438 C 165.046875 594.035156 164.660156 594.101562 164.253906 594.101562 C 163.566406 594.101562 163.042969 593.9375 162.675781 593.601562 C 162.308594 593.273438 162.125 592.84375 162.125 592.320312 C 162.125 592.015625 162.191406 591.738281 162.332031 591.488281 C 162.46875 591.238281 162.652344 591.035156 162.878906 590.878906 C 163.101562 590.726562 163.355469 590.613281 163.636719 590.53125 C 163.84375 590.484375 164.15625 590.429688 164.574219 590.375 C 165.425781 590.273438 166.050781 590.152344 166.457031 590.011719 C 166.457031 589.871094 166.460938 589.78125 166.460938 589.734375 C 166.460938 589.3125 166.359375 589.007812 166.160156 588.828125 C 165.890625 588.589844 165.492188 588.472656 164.960938 588.46875 C 164.460938 588.472656 164.09375 588.558594 163.859375 588.730469 C 163.625 588.90625 163.449219 589.214844 163.339844 589.65625 L 162.308594 589.515625 C 162.398438 589.074219 162.554688 588.71875 162.769531 588.445312 C 162.980469 588.179688 163.289062 587.96875 163.699219 587.820312 C 164.101562 587.671875 164.574219 587.597656 165.113281 587.597656 C 165.644531 587.597656 166.074219 587.660156 166.40625 587.785156 C 166.738281 587.910156 166.984375 588.070312 167.140625 588.257812 C 167.296875 588.449219 167.40625 588.6875 167.46875 588.976562 C 167.5 589.15625 167.515625 589.480469 167.519531 589.945312 L 167.519531 591.351562 C 167.515625 592.335938 167.539062 592.957031 167.585938 593.214844 C 167.632812 593.476562 167.722656 593.722656 167.855469 593.960938 L 166.753906 593.960938 C 166.644531 593.742188 166.574219 593.488281 166.542969 593.195312 Z M 166.457031 590.835938 C 166.066406 590.996094 165.492188 591.128906 164.730469 591.234375 C 164.296875 591.300781 163.992188 591.371094 163.8125 591.445312 C 163.632812 591.527344 163.492188 591.640625 163.394531 591.789062 C 163.296875 591.941406 163.25 592.109375 163.25 592.289062 C 163.25 592.574219 163.355469 592.808594 163.566406 592.992188 C 163.777344 593.183594 164.089844 593.277344 164.503906 593.273438 C 164.910156 593.277344 165.269531 593.1875 165.585938 593.007812 C 165.902344 592.832031 166.136719 592.589844 166.285156 592.28125 C 166.398438 592.042969 166.453125 591.691406 166.457031 591.226562 Z M 169.148438 593.960938 L 169.148438 587.738281 L 170.09375 587.738281 L 170.09375 588.679688 C 170.335938 588.242188 170.558594 587.949219 170.765625 587.808594 C 170.96875 587.667969 171.195312 587.597656 171.445312 587.597656 C 171.796875 587.597656 172.160156 587.710938 172.527344 587.9375 L 172.164062 588.914062 C 171.90625 588.765625 171.648438 588.6875 171.390625 588.6875 C 171.160156 588.6875 170.953125 588.757812 170.769531 588.894531 C 170.582031 589.035156 170.449219 589.226562 170.375 589.472656 C 170.257812 589.847656 170.199219 590.257812 170.203125 590.703125 L 170.203125 593.960938 Z M 173.101562 596.359375 L 172.984375 595.367188 C 173.214844 595.429688 173.417969 595.460938 173.589844 595.460938 C 173.824219 595.460938 174.011719 595.421875 174.152344 595.34375 C 174.292969 595.265625 174.40625 595.15625 174.5 595.015625 C 174.5625 594.910156 174.671875 594.648438 174.820312 594.230469 C 174.839844 594.167969 174.871094 594.082031 174.914062 593.972656 L 172.554688 587.738281 L 173.6875 587.738281 L 174.984375 591.34375 C 175.148438 591.800781 175.296875 592.28125 175.4375 592.78125 C 175.554688 592.300781 175.699219 591.828125 175.867188 591.367188 L 177.199219 587.738281 L 178.253906 587.738281 L 175.886719 594.066406 C 175.632812 594.75 175.433594 595.21875 175.296875 595.476562 C 175.105469 595.824219 174.890625 596.078125 174.652344 596.242188 C 174.40625 596.398438 174.117188 596.480469 173.78125 596.484375 C 173.574219 596.480469 173.347656 596.4375 173.101562 596.359375 Z M 130.34375 583.097656 "/>
<path fill-rule="nonzero" fill="rgb(40%, 40%, 40%)" fill-opacity="1" d="M 265.234375 593.960938 L 265.234375 585.371094 L 266.945312 585.371094 L 268.976562 591.453125 C 269.160156 592.023438 269.296875 592.449219 269.390625 592.726562 C 269.484375 592.417969 269.636719 591.957031 269.84375 591.347656 L 271.902344 585.371094 L 273.429688 585.371094 L 273.429688 593.960938 L 272.335938 593.960938 L 272.335938 586.773438 L 269.839844 593.960938 L 268.8125 593.960938 L 266.328125 586.648438 L 266.328125 593.960938 Z M 279.191406 593.195312 C 278.800781 593.527344 278.421875 593.761719 278.0625 593.898438 C 277.695312 594.035156 277.308594 594.101562 276.902344 594.101562 C 276.214844 594.101562 275.691406 593.9375 275.324219 593.601562 C 274.957031 593.273438 274.773438 592.84375 274.773438 592.320312 C 274.773438 592.015625 274.839844 591.738281 274.980469 591.488281 C 275.117188 591.238281 275.300781 591.035156 275.527344 590.878906 C 275.75 590.726562 276.003906 590.613281 276.285156 590.53125 C 276.492188 590.484375 276.804688 590.429688 277.222656 590.375 C 278.074219 590.273438 278.699219 590.152344 279.105469 590.011719 C 279.105469 589.871094 279.109375 589.78125 279.109375 589.734375 C 279.109375 589.3125 279.007812 589.007812 278.808594 588.828125 C 278.539062 588.589844 278.140625 588.472656 277.609375 588.46875 C 277.109375 588.472656 276.742188 588.558594 276.507812 588.730469 C 276.273438 588.90625 276.097656 589.214844 275.988281 589.65625 L 274.957031 589.515625 C 275.046875 589.074219 275.203125 588.71875 275.417969 588.445312 C 275.628906 588.179688 275.9375 587.96875 276.347656 587.820312 C 276.75 587.671875 277.222656 587.597656 277.761719 587.597656 C 278.292969 587.597656 278.722656 587.660156 279.054688 587.785156 C 279.386719 587.910156 279.632812 588.070312 279.789062 588.257812 C 279.945312 588.449219 280.054688 588.6875 280.117188 588.976562 C 280.148438 589.15625 280.164062 589.480469 280.167969 589.945312 L 280.167969 591.351562 C 280.164062 592.335938 280.1875 592.957031 280.234375 593.214844 C 280.28125 593.476562 280.371094 593.722656 280.503906 593.960938 L 279.402344 593.960938 C 279.292969 593.742188 279.222656 593.488281 279.191406 593.195312 Z M 279.105469 590.835938 C 278.714844 590.996094 278.140625 591.128906 277.378906 591.234375 C 276.945312 591.300781 276.640625 591.371094 276.460938 591.445312 C 276.28125 591.527344 276.140625 591.640625 276.042969 591.789062 C 275.945312 591.941406 275.898438 592.109375 275.898438 592.289062 C 275.898438 592.574219 276.003906 592.808594 276.214844 592.992188 C 276.425781 593.183594 276.738281 593.277344 277.152344 593.273438 C 277.558594 593.277344 277.917969 593.1875 278.234375 593.007812 C 278.550781 592.832031 278.785156 592.589844 278.933594 592.28125 C 279.046875 592.042969 279.101562 591.691406 279.105469 591.226562 Z M 281.796875 593.960938 L 281.796875 587.738281 L 282.742188 587.738281 L 282.742188 588.679688 C 282.984375 588.242188 283.207031 587.949219 283.414062 587.808594 C 283.617188 587.667969 283.84375 587.597656 284.09375 587.597656 C 284.445312 587.597656 284.808594 587.710938 285.175781 587.9375 L 284.8125 588.914062 C 284.554688 588.765625 284.296875 588.6875 284.039062 588.6875 C 283.808594 588.6875 283.601562 588.757812 283.417969 588.894531 C 283.230469 589.035156 283.097656 589.226562 283.023438 589.472656 C 282.90625 589.847656 282.847656 590.257812 282.851562 590.703125 L 282.851562 593.960938 Z M 289.859375 591.679688 L 290.898438 591.816406 C 290.78125 592.535156 290.492188 593.097656 290.027344 593.496094 C 289.558594 593.902344 288.984375 594.101562 288.304688 594.101562 C 287.453125 594.101562 286.769531 593.824219 286.253906 593.265625 C 285.734375 592.710938 285.476562 591.914062 285.476562 590.875 C 285.476562 590.207031 285.585938 589.617188 285.808594 589.109375 C 286.03125 588.605469 286.371094 588.230469 286.824219 587.976562 C 287.277344 587.726562 287.773438 587.597656 288.3125 587.597656 C 288.988281 587.597656 289.539062 587.769531 289.972656 588.113281 C 290.398438 588.457031 290.675781 588.941406 290.796875 589.566406 L 289.773438 589.726562 C 289.671875 589.308594 289.5 588.992188 289.253906 588.78125 C 289.003906 588.570312 288.703125 588.464844 288.351562 588.464844 C 287.816406 588.464844 287.386719 588.65625 287.058594 589.039062 C 286.726562 589.421875 286.558594 590.023438 286.5625 590.84375 C 286.558594 591.679688 286.71875 592.289062 287.042969 592.667969 C 287.359375 593.046875 287.777344 593.234375 288.296875 593.234375 C 288.703125 593.234375 289.050781 593.109375 289.332031 592.855469 C 289.609375 592.601562 289.785156 592.210938 289.859375 591.679688 Z M 291.796875 593.960938 L 291.796875 585.371094 L 292.851562 585.371094 L 292.851562 588.453125 C 293.34375 587.882812 293.964844 587.597656 294.71875 587.597656 C 295.171875 587.597656 295.574219 587.691406 295.917969 587.871094 C 296.257812 588.054688 296.5 588.304688 296.648438 588.621094 C 296.792969 588.945312 296.867188 589.410156 296.867188 590.015625 L 296.867188 593.960938 L 295.8125 593.960938 L 295.8125 590.015625 C 295.8125 589.492188 295.695312 589.109375 295.46875 588.867188 C 295.234375 588.632812 294.914062 588.511719 294.5 588.507812 C 294.1875 588.511719 293.890625 588.59375 293.617188 588.75 C 293.335938 588.914062 293.140625 589.132812 293.027344 589.410156 C 292.90625 589.6875 292.847656 590.070312 292.851562 590.554688 L 292.851562 593.960938 Z M 264.34375 583.097656 "/>
<path fill-rule="nonzero" fill="rgb(40%, 40%, 40%)" fill-opacity="1" d="M 396.324219 593.960938 L 399.621094 585.371094 L 400.847656 585.371094 L 404.363281 593.960938 L 403.066406 593.960938 L 402.066406 591.359375 L 398.472656 591.359375 L 397.527344 593.960938 Z M 398.800781 590.433594 L 401.714844 590.433594 L 400.816406 588.054688 C 400.542969 587.332031 400.339844 586.738281 400.207031 586.273438 C 400.097656 586.828125 399.941406 587.375 399.746094 587.914062 Z M 405.132812 596.34375 L 405.132812 587.738281 L 406.09375 587.738281 L 406.09375 588.546875 C 406.320312 588.230469 406.578125 587.996094 406.863281 587.835938 C 407.144531 587.679688 407.488281 587.597656 407.898438 587.597656 C 408.425781 587.597656 408.894531 587.734375 409.304688 588.007812 C 409.707031 588.28125 410.015625 588.667969 410.226562 589.167969 C 410.433594 589.667969 410.535156 590.214844 410.539062 590.804688 C 410.535156 591.441406 410.421875 592.015625 410.195312 592.523438 C 409.964844 593.039062 409.632812 593.429688 409.199219 593.695312 C 408.761719 593.96875 408.304688 594.101562 407.824219 594.101562 C 407.472656 594.101562 407.15625 594.027344 406.878906 593.878906 C 406.597656 593.730469 406.367188 593.542969 406.1875 593.316406 L 406.1875 596.34375 Z M 406.089844 590.882812 C 406.089844 591.6875 406.25 592.277344 406.574219 592.660156 C 406.898438 593.042969 407.292969 593.234375 407.753906 593.234375 C 408.222656 593.234375 408.621094 593.039062 408.957031 592.640625 C 409.289062 592.25 409.457031 591.632812 409.460938 590.796875 C 409.457031 590.007812 409.292969 589.414062 408.96875 589.015625 C 408.640625 588.621094 408.253906 588.425781 407.800781 588.421875 C 407.347656 588.425781 406.949219 588.636719 406.605469 589.054688 C 406.261719 589.476562 406.089844 590.085938 406.089844 590.882812 Z M 411.796875 593.960938 L 411.796875 587.738281 L 412.742188 587.738281 L 412.742188 588.679688 C 412.984375 588.242188 413.207031 587.949219 413.414062 587.808594 C 413.617188 587.667969 413.84375 587.597656 414.09375 587.597656 C 414.445312 587.597656 414.808594 587.710938 415.175781 587.9375 L 414.8125 588.914062 C 414.554688 588.765625 414.296875 588.6875 414.039062 588.6875 C 413.808594 588.6875 413.601562 588.757812 413.417969 588.894531 C 413.230469 589.035156 413.097656 589.226562 413.023438 589.472656 C 412.90625 589.847656 412.847656 590.257812 412.851562 590.703125 L 412.851562 593.960938 Z M 415.8125 586.585938 L 415.8125 585.371094 L 416.867188 585.371094 L 416.867188 586.585938 Z M 415.8125 593.960938 L 415.8125 587.738281 L 416.867188 587.738281 L 416.867188 593.960938 Z M 418.445312 593.960938 L 418.445312 585.371094 L 419.5 585.371094 L 419.5 593.960938 Z M 396.339844 583.097656 "/>
<path fill-rule="nonzero" fill="rgb(40%, 40%, 40%)" fill-opacity="1" d="M 525.226562 593.960938 L 525.226562 585.371094 L 526.9375 585.371094 L 528.96875 591.453125 C 529.152344 592.023438 529.289062 592.449219 529.382812 592.726562 C 529.476562 592.417969 529.628906 591.957031 529.835938 591.347656 L 531.894531 585.371094 L 533.421875 585.371094 L 533.421875 593.960938 L 532.328125 593.960938 L 532.328125 586.773438 L 529.832031 593.960938 L 528.804688 593.960938 L 526.320312 586.648438 L 526.320312 593.960938 Z M 539.183594 593.195312 C 538.792969 593.527344 538.414062 593.761719 538.054688 593.898438 C 537.6875 594.035156 537.300781 594.101562 536.894531 594.101562 C 536.207031 594.101562 535.683594 593.9375 535.316406 593.601562 C 534.949219 593.273438 534.765625 592.84375 534.765625 592.320312 C 534.765625 592.015625 534.832031 591.738281 534.972656 591.488281 C 535.109375 591.238281 535.292969 591.035156 535.519531 590.878906 C 535.742188 590.726562 535.996094 590.613281 536.277344 590.53125 C 536.484375 590.484375 536.796875 590.429688 537.214844 590.375 C 538.066406 590.273438 538.691406 590.152344 539.097656 590.011719 C 539.097656 589.871094 539.101562 589.78125 539.101562 589.734375 C 539.101562 589.3125 539 589.007812 538.800781 588.828125 C 538.53125 588.589844 538.132812 588.472656 537.601562 588.46875 C 537.101562 588.472656 536.734375 588.558594 536.5 588.730469 C 536.265625 588.90625 536.089844 589.214844 535.980469 589.65625 L 534.949219 589.515625 C 535.039062 589.074219 535.195312 588.71875 535.410156 588.445312 C 535.621094 588.179688 535.929688 587.96875 536.339844 587.820312 C 536.742188 587.671875 537.214844 587.597656 537.753906 587.597656 C 538.285156 587.597656 538.714844 587.660156 539.046875 587.785156 C 539.378906 587.910156 539.625 588.070312 539.78125 588.257812 C 539.9375 588.449219 540.046875 588.6875 540.109375 588.976562 C 540.140625 589.15625 540.15625 589.480469 540.160156 589.945312 L 540.160156 591.351562 C 540.15625 592.335938 540.179688 592.957031 540.226562 593.214844 C 540.273438 593.476562 540.363281 593.722656 540.496094 593.960938 L 539.394531 593.960938 C 539.285156 593.742188 539.214844 593.488281 539.183594 593.195312 Z M 539.097656 590.835938 C 538.707031 590.996094 538.132812 591.128906 537.371094 591.234375 C 536.9375 591.300781 536.632812 591.371094 536.453125 591.445312 C 536.273438 591.527344 536.132812 591.640625 536.035156 591.789062 C 535.9375 591.941406 535.890625 592.109375 535.890625 592.289062 C 535.890625 592.574219 535.996094 592.808594 536.207031 592.992188 C 536.417969 593.183594 536.730469 593.277344 537.144531 593.273438 C 537.550781 593.277344 537.910156 593.1875 538.226562 593.007812 C 538.542969 592.832031 538.777344 592.589844 538.925781 592.28125 C 539.039062 592.042969 539.09375 591.691406 539.097656 591.226562 Z M 541.75 596.359375 L 541.632812 595.367188 C 541.863281 595.429688 542.066406 595.460938 542.238281 595.460938 C 542.472656 595.460938 542.660156 595.421875 542.800781 595.34375 C 542.941406 595.265625 543.054688 595.15625 543.148438 595.015625 C 543.210938 594.910156 543.320312 594.648438 543.46875 594.230469 C 543.488281 594.167969 543.519531 594.082031 543.5625 593.972656 L 541.203125 587.738281 L 542.335938 587.738281 L 543.632812 591.34375 C 543.796875 591.800781 543.945312 592.28125 544.085938 592.78125 C 544.203125 592.300781 544.347656 591.828125 544.515625 591.367188 L 545.847656 587.738281 L 546.902344 587.738281 L 544.535156 594.066406 C 544.28125 594.75 544.082031 595.21875 543.945312 595.476562 C 543.753906 595.824219 543.539062 596.078125 543.300781 596.242188 C 543.054688 596.398438 542.765625 596.480469 542.429688 596.484375 C 542.222656 596.480469 541.996094 596.4375 541.75 596.359375 Z M 524.335938 583.097656 "/>
<path fill-rule="nonzero" fill="rgb(40%, 40%, 40%)" fill-opacity="1" d="M 649.675781 591.523438 L 650.703125 591.382812 C 650.730469 592.039062 650.851562 592.488281 651.074219 592.730469 C 651.289062 592.972656 651.59375 593.09375 651.980469 593.09375 C 652.265625 593.09375 652.511719 593.03125 652.71875 592.898438 C 652.921875 592.773438 653.0625 592.59375 653.144531 592.367188 C 653.21875 592.140625 653.257812 591.78125 653.261719 591.289062 L 653.261719 585.371094 L 654.402344 585.371094 L 654.402344 591.226562 C 654.398438 591.949219 654.3125 592.503906 654.140625 592.894531 C 653.964844 593.289062 653.6875 593.589844 653.3125 593.796875 C 652.929688 594.003906 652.488281 594.105469 651.988281 594.109375 C 651.230469 594.105469 650.652344 593.890625 650.253906 593.457031 C 649.847656 593.023438 649.65625 592.378906 649.675781 591.523438 Z M 660.199219 593.960938 L 660.199219 593.046875 C 659.710938 593.75 659.054688 594.101562 658.226562 594.101562 C 657.859375 594.101562 657.515625 594.03125 657.199219 593.890625 C 656.878906 593.75 656.640625 593.574219 656.488281 593.359375 C 656.332031 593.148438 656.226562 592.886719 656.164062 592.578125 C 656.117188 592.371094 656.09375 592.042969 656.097656 591.59375 L 656.097656 587.738281 L 657.152344 587.738281 L 657.152344 591.1875 C 657.148438 591.742188 657.171875 592.113281 657.21875 592.304688 C 657.28125 592.582031 657.421875 592.800781 657.640625 592.957031 C 657.855469 593.121094 658.121094 593.199219 658.4375 593.195312 C 658.75 593.199219 659.046875 593.117188 659.328125 592.953125 C 659.605469 592.789062 659.800781 592.570312 659.917969 592.289062 C 660.03125 592.011719 660.089844 591.605469 660.089844 591.070312 L 660.089844 587.738281 L 661.144531 587.738281 L 661.144531 593.960938 Z M 662.796875 593.960938 L 662.796875 587.738281 L 663.75 587.738281 L 663.75 588.625 C 664.203125 587.941406 664.863281 587.597656 665.726562 587.597656 C 666.097656 587.597656 666.441406 587.667969 666.761719 587.800781 C 667.074219 587.9375 667.3125 588.113281 667.46875 588.328125 C 667.625 588.550781 667.734375 588.808594 667.796875 589.109375 C 667.835938 589.304688 667.855469 589.648438 667.855469 590.132812 L 667.855469 593.960938 L 666.800781 593.960938 L 666.800781 590.175781 C 666.800781 589.746094 666.757812 589.425781 666.675781 589.210938 C 666.59375 589 666.449219 588.832031 666.242188 588.703125 C 666.03125 588.578125 665.785156 588.511719 665.507812 588.511719 C 665.054688 588.511719 664.667969 588.65625 664.339844 588.941406 C 664.011719 589.226562 663.847656 589.765625 663.851562 590.5625 L 663.851562 593.960938 Z M 673.730469 591.957031 L 674.820312 592.09375 C 674.648438 592.730469 674.328125 593.222656 673.863281 593.574219 C 673.398438 593.925781 672.804688 594.101562 672.085938 594.101562 C 671.171875 594.101562 670.449219 593.824219 669.917969 593.261719 C 669.378906 592.707031 669.113281 591.917969 669.117188 590.902344 C 669.113281 589.855469 669.382812 589.042969 669.925781 588.464844 C 670.460938 587.886719 671.160156 587.597656 672.023438 587.597656 C 672.855469 587.597656 673.535156 587.882812 674.0625 588.449219 C 674.589844 589.015625 674.855469 589.8125 674.855469 590.835938 C 674.855469 590.902344 674.851562 590.996094 674.851562 591.117188 L 670.210938 591.117188 C 670.242188 591.804688 670.4375 592.328125 670.789062 592.691406 C 671.136719 593.054688 671.570312 593.234375 672.089844 593.234375 C 672.476562 593.234375 672.804688 593.132812 673.082031 592.929688 C 673.351562 592.726562 673.570312 592.402344 673.730469 591.957031 Z M 670.265625 590.25 L 673.742188 590.25 C 673.695312 589.734375 673.5625 589.339844 673.34375 589.074219 C 673.007812 588.667969 672.570312 588.464844 672.039062 588.464844 C 671.550781 588.464844 671.144531 588.628906 670.816406 588.953125 C 670.484375 589.277344 670.300781 589.710938 670.265625 590.25 Z M 649.332031 583.097656 "/>
<path fill-rule="nonzero" fill="rgb(40%, 40%, 40%)" fill-opacity="1" d="M 781.671875 591.523438 L 782.699219 591.382812 C 782.726562 592.039062 782.847656 592.488281 783.070312 592.730469 C 783.285156 592.972656 783.589844 593.09375 783.976562 593.09375 C 784.261719 593.09375 784.507812 593.03125 784.714844 592.898438 C 784.917969 592.773438 785.058594 592.59375 785.140625 592.367188 C 785.214844 592.140625 785.253906 591.78125 785.257812 591.289062 L 785.257812 585.371094 L 786.398438 585.371094 L 786.398438 591.226562 C 786.394531 591.949219 786.308594 592.503906 786.136719 592.894531 C 785.960938 593.289062 785.683594 593.589844 785.308594 593.796875 C 784.925781 594.003906 784.484375 594.105469 783.984375 594.109375 C 783.226562 594.105469 782.648438 593.890625 782.25 593.457031 C 781.84375 593.023438 781.652344 592.378906 781.671875 591.523438 Z M 792.195312 593.960938 L 792.195312 593.046875 C 791.707031 593.75 791.050781 594.101562 790.222656 594.101562 C 789.855469 594.101562 789.511719 594.03125 789.195312 593.890625 C 788.875 593.75 788.636719 593.574219 788.484375 593.359375 C 788.328125 593.148438 788.222656 592.886719 788.160156 592.578125 C 788.113281 592.371094 788.089844 592.042969 788.09375 591.59375 L 788.09375 587.738281 L 789.148438 587.738281 L 789.148438 591.1875 C 789.144531 591.742188 789.167969 592.113281 789.214844 592.304688 C 789.277344 592.582031 789.417969 592.800781 789.636719 592.957031 C 789.851562 593.121094 790.117188 593.199219 790.433594 593.195312 C 790.746094 593.199219 791.042969 593.117188 791.324219 592.953125 C 791.601562 592.789062 791.796875 592.570312 791.914062 592.289062 C 792.027344 592.011719 792.085938 591.605469 792.085938 591.070312 L 792.085938 587.738281 L 793.140625 587.738281 L 793.140625 593.960938 Z M 794.765625 593.960938 L 794.765625 585.371094 L 795.820312 585.371094 L 795.820312 593.960938 Z M 781.328125 583.097656 "/>
<path fill="none" stroke-width="1" stroke-linecap="butt" stroke-linejoin="miter" stroke="rgb(0%, 0%, 0%)" stroke-opacity="0.0980392" stroke-miterlimit="10" d="M 27.5 32 L 27.5 572 "/>
<path fill-rule="nonzero" fill="rgb(40%, 40%, 40%)" fill-opacity="1" d="M 6.226562 575.761719 L 6.226562 573.707031 L 2.5 573.707031 L 2.5 572.738281 L 6.417969 567.171875 L 7.28125 567.171875 L 7.28125 572.738281 L 8.441406 572.738281 L 8.441406 573.707031 L 7.28125 573.707031 L 7.28125 575.761719 Z M 6.226562 572.738281 L 6.226562 568.863281 L 3.535156 572.738281 Z M 9.523438 571.527344 C 9.519531 570.515625 9.625 569.699219 9.835938 569.074219 C 10.042969 568.457031 10.351562 567.976562 10.765625 567.640625 C 11.171875 567.304688 11.691406 567.136719 12.320312 567.136719 C 12.78125 567.136719 13.1875 567.230469 13.535156 567.414062 C 13.878906 567.601562 14.164062 567.871094 14.394531 568.21875 C 14.617188 568.570312 14.796875 568.996094 14.929688 569.496094 C 15.058594 570 15.121094 570.675781 15.125 571.527344 C 15.121094 572.535156 15.019531 573.347656 14.8125 573.964844 C 14.601562 574.585938 14.289062 575.066406 13.882812 575.402344 C 13.46875 575.742188 12.949219 575.90625 12.320312 575.910156 C 11.488281 575.90625 10.839844 575.613281 10.371094 575.019531 C 9.804688 574.304688 9.519531 573.140625 9.523438 571.527344 Z M 10.605469 571.527344 C 10.605469 572.9375 10.769531 573.875 11.097656 574.34375 C 11.425781 574.8125 11.832031 575.046875 12.320312 575.042969 C 12.800781 575.046875 13.207031 574.8125 13.542969 574.339844 C 13.871094 573.875 14.039062 572.9375 14.039062 571.527344 C 14.039062 570.113281 13.871094 569.171875 13.542969 568.707031 C 13.207031 568.246094 12.796875 568.015625 12.3125 568.011719 C 11.824219 568.015625 11.4375 568.21875 11.148438 568.625 C 10.785156 569.148438 10.605469 570.117188 10.605469 571.527344 Z M 2.347656 564.898438 "/>
<path fill-rule="nonzero" fill="rgb(40%, 40%, 40%)" fill-opacity="1" d="M 6.226562 515.804688 L 6.226562 513.75 L 2.5 513.75 L 2.5 512.78125 L 6.417969 507.214844 L 7.28125 507.214844 L 7.28125 512.78125 L 8.441406 512.78125 L 8.441406 513.75 L 7.28125 513.75 L 7.28125 515.804688 Z M 6.226562 512.78125 L 6.226562 508.90625 L 3.535156 512.78125 Z M 9.523438 513.554688 L 10.628906 513.460938 C 10.707031 514 10.894531 514.40625 11.199219 514.679688 C 11.496094 514.953125 11.859375 515.089844 12.28125 515.085938 C 12.789062 515.089844 13.21875 514.898438 13.570312 514.511719 C 13.921875 514.132812 14.097656 513.625 14.097656 512.984375 C 14.097656 512.390625 13.925781 511.914062 13.589844 511.5625 C 13.25 511.214844 12.808594 511.042969 12.265625 511.039062 C 11.921875 511.042969 11.617188 511.121094 11.34375 511.273438 C 11.070312 511.429688 10.855469 511.628906 10.699219 511.875 L 9.710938 511.742188 L 10.539062 507.332031 L 14.8125 507.332031 L 14.8125 508.339844 L 11.382812 508.339844 L 10.921875 510.648438 C 11.4375 510.289062 11.976562 510.109375 12.546875 510.109375 C 13.292969 510.109375 13.925781 510.371094 14.445312 510.890625 C 14.957031 511.410156 15.214844 512.078125 15.21875 512.890625 C 15.214844 513.671875 14.988281 514.34375 14.539062 514.90625 C 13.984375 515.605469 13.234375 515.949219 12.28125 515.953125 C 11.5 515.949219 10.859375 515.734375 10.367188 515.296875 C 9.867188 514.863281 9.585938 514.28125 9.523438 513.554688 Z M 2.347656 504.941406 "/>
<path fill-rule="nonzero" fill="rgb(40%, 40%, 40%)" fill-opacity="1" d="M 2.847656 453.597656 L 3.953125 453.503906 C 4.03125 454.042969 4.21875 454.449219 4.523438 454.722656 C 4.820312 454.996094 5.183594 455.132812 5.605469 455.128906 C 6.113281 455.132812 6.542969 454.941406 6.894531 454.554688 C 7.246094 454.175781 7.421875 453.667969 7.421875 453.027344 C 7.421875 452.433594 7.25 451.957031 6.914062 451.605469 C 6.574219 451.257812 6.132812 451.085938 5.589844 451.082031 C 5.246094 451.085938 4.941406 451.164062 4.667969 451.316406 C 4.394531 451.472656 4.179688 451.671875 4.023438 451.917969 L 3.035156 451.785156 L 3.863281 447.375 L 8.136719 447.375 L 8.136719 448.382812 L 4.707031 448.382812 L 4.246094 450.691406 C 4.761719 450.332031 5.300781 450.152344 5.871094 450.152344 C 6.617188 450.152344 7.25 450.414062 7.769531 450.933594 C 8.28125 451.453125 8.539062 452.121094 8.542969 452.933594 C 8.539062 453.714844 8.3125 454.386719 7.863281 454.949219 C 7.308594 455.648438 6.558594 455.992188 5.605469 455.996094 C 4.824219 455.992188 4.183594 455.777344 3.691406 455.339844 C 3.191406 454.90625 2.910156 454.324219 2.847656 453.597656 Z M 9.523438 451.613281 C 9.519531 450.601562 9.625 449.785156 9.835938 449.160156 C 10.042969 448.542969 10.351562 448.0625 10.765625 447.726562 C 11.171875 447.390625 11.691406 447.222656 12.320312 447.222656 C 12.78125 447.222656 13.1875 447.316406 13.535156 447.5 C 13.878906 447.6875 14.164062 447.957031 14.394531 448.304688 C 14.617188 448.65625 14.796875 449.082031 14.929688 449.582031 C 15.058594 450.085938 15.121094 450.761719 15.125 451.613281 C 15.121094 452.621094 15.019531 453.433594 14.8125 454.050781 C 14.601562 454.671875 14.289062 455.152344 13.882812 455.488281 C 13.46875 455.828125 12.949219 455.992188 12.320312 455.996094 C 11.488281 455.992188 10.839844 455.699219 10.371094 455.105469 C 9.804688 454.390625 9.519531 453.226562 9.523438 451.613281 Z M 10.605469 451.613281 C 10.605469 453.023438 10.769531 453.960938 11.097656 454.429688 C 11.425781 454.898438 11.832031 455.132812 12.320312 455.128906 C 12.800781 455.132812 13.207031 454.898438 13.542969 454.425781 C 13.871094 453.960938 14.039062 453.023438 14.039062 451.613281 C 14.039062 450.199219 13.871094 449.257812 13.542969 448.792969 C 13.207031 448.332031 12.796875 448.101562 12.3125 448.097656 C 11.824219 448.101562 11.4375 448.304688 11.148438 448.710938 C 10.785156 449.234375 10.605469 450.203125 10.605469 451.613281 Z M 2.347656 444.984375 "/>
<path fill-rule="nonzero" fill="rgb(40%, 40%, 40%)" fill-opacity="1" d="M 2.847656 393.644531 L 3.953125 393.550781 C 4.03125 394.089844 4.21875 394.496094 4.523438 394.769531 C 4.820312 395.042969 5.183594 395.179688 5.605469 395.175781 C 6.113281 395.179688 6.542969 394.988281 6.894531 394.601562 C 7.246094 394.222656 7.421875 393.714844 7.421875 393.074219 C 7.421875 392.480469 7.25 392.003906 6.914062 391.652344 C 6.574219 391.304688 6.132812 391.132812 5.589844 391.128906 C 5.246094 391.132812 4.941406 391.210938 4.667969 391.363281 C 4.394531 391.519531 4.179688 391.71875 4.023438 391.964844 L 3.035156 391.832031 L 3.863281 387.421875 L 8.136719 387.421875 L 8.136719 388.429688 L 4.707031 388.429688 L 4.246094 390.738281 C 4.761719 390.378906 5.300781 390.199219 5.871094 390.199219 C 6.617188 390.199219 7.25 390.460938 7.769531 390.980469 C 8.28125 391.5 8.539062 392.167969 8.542969 392.980469 C 8.539062 393.761719 8.3125 394.433594 7.863281 394.996094 C 7.308594 395.695312 6.558594 396.039062 5.605469 396.042969 C 4.824219 396.039062 4.183594 395.824219 3.691406 395.386719 C 3.191406 394.953125 2.910156 394.371094 2.847656 393.644531 Z M 9.523438 393.644531 L 10.628906 393.550781 C 10.707031 394.089844 10.894531 394.496094 11.199219 394.769531 C 11.496094 395.042969 11.859375 395.179688 12.28125 395.175781 C 12.789062 395.179688 13.21875 394.988281 13.570312 394.601562 C 13.921875 394.222656 14.097656 393.714844 14.097656 393.074219 C 14.097656 392.480469 13.925781 392.003906 13.589844 391.652344 C 13.25 391.304688 12.808594 391.132812 12.265625 391.128906 C 11.921875 391.132812 11.617188 391.210938 11.34375 391.363281 C 11.070312 391.519531 10.855469 391.71875 10.699219 391.964844 L 9.710938 391.832031 L 10.539062 387.421875 L 14.8125 387.421875 L 14.8125 388.429688 L 11.382812 388.429688 L 10.921875 390.738281 C 11.4375 390.378906 11.976562 390.199219 12.546875 390.199219 C 13.292969 390.199219 13.925781 390.460938 14.445312 390.980469 C 14.957031 391.5 15.214844 392.167969 15.21875 392.980469 C 15.214844 393.761719 14.988281 394.433594 14.539062 394.996094 C 13.984375 395.695312 13.234375 396.039062 12.28125 396.042969 C 11.5 396.039062 10.859375 395.824219 10.367188 395.386719 C 9.867188 394.953125 9.585938 394.371094 9.523438 393.644531 Z M 2.347656 385.03125 "/>
<path fill-rule="nonzero" fill="rgb(40%, 40%, 40%)" fill-opacity="1" d="M 8.316406 329.453125 L 7.269531 329.53125 C 7.175781 329.125 7.042969 328.824219 6.871094 328.632812 C 6.582031 328.332031 6.230469 328.179688 5.816406 328.179688 C 5.480469 328.179688 5.183594 328.273438 4.933594 328.460938 C 4.597656 328.703125 4.335938 329.058594 4.144531 329.523438 C 3.953125 329.988281 3.855469 330.648438 3.847656 331.507812 C 4.101562 331.125 4.410156 330.839844 4.78125 330.648438 C 5.144531 330.464844 5.53125 330.371094 5.933594 330.367188 C 6.636719 330.371094 7.234375 330.628906 7.730469 331.144531 C 8.222656 331.660156 8.46875 332.328125 8.472656 333.148438 C 8.46875 333.6875 8.351562 334.191406 8.121094 334.652344 C 7.886719 335.117188 7.570312 335.46875 7.164062 335.714844 C 6.757812 335.960938 6.296875 336.082031 5.78125 336.085938 C 4.902344 336.082031 4.183594 335.761719 3.632812 335.117188 C 3.074219 334.46875 2.796875 333.402344 2.800781 331.917969 C 2.796875 330.261719 3.105469 329.054688 3.71875 328.296875 C 4.25 327.640625 4.96875 327.3125 5.878906 327.3125 C 6.554688 327.3125 7.109375 327.503906 7.542969 327.882812 C 7.972656 328.261719 8.230469 328.785156 8.316406 329.453125 Z M 4.011719 333.15625 C 4.011719 333.519531 4.085938 333.867188 4.242188 334.199219 C 4.390625 334.53125 4.609375 334.785156 4.890625 334.957031 C 5.167969 335.136719 5.457031 335.222656 5.761719 335.21875 C 6.207031 335.222656 6.589844 335.042969 6.914062 334.679688 C 7.230469 334.324219 7.390625 333.835938 7.394531 333.210938 C 7.390625 332.621094 7.234375 332.152344 6.917969 331.808594 C 6.597656 331.46875 6.199219 331.296875 5.722656 331.296875 C 5.246094 331.296875 4.839844 331.46875 4.507812 331.808594 C 4.175781 332.152344 4.011719 332.601562 4.011719 333.15625 Z M 9.523438 331.703125 C 9.519531 330.691406 9.625 329.875 9.835938 329.25 C 10.042969 328.632812 10.351562 328.152344 10.765625 327.816406 C 11.171875 327.480469 11.691406 327.3125 12.320312 327.3125 C 12.78125 327.3125 13.1875 327.40625 13.535156 327.589844 C 13.878906 327.777344 14.164062 328.046875 14.394531 328.394531 C 14.617188 328.746094 14.796875 329.171875 14.929688 329.671875 C 15.058594 330.175781 15.121094 330.851562 15.125 331.703125 C 15.121094 332.710938 15.019531 333.523438 14.8125 334.140625 C 14.601562 334.761719 14.289062 335.242188 13.882812 335.578125 C 13.46875 335.917969 12.949219 336.082031 12.320312 336.085938 C 11.488281 336.082031 10.839844 335.789062 10.371094 335.195312 C 9.804688 334.480469 9.519531 333.316406 9.523438 331.703125 Z M 10.605469 331.703125 C 10.605469 333.113281 10.769531 334.050781 11.097656 334.519531 C 11.425781 334.988281 11.832031 335.222656 12.320312 335.21875 C 12.800781 335.222656 13.207031 334.988281 13.542969 334.515625 C 13.871094 334.050781 14.039062 333.113281 14.039062 331.703125 C 14.039062 330.289062 13.871094 329.347656 13.542969 328.882812 C 13.207031 328.421875 12.796875 328.191406 12.3125 328.1875 C 11.824219 328.191406 11.4375 328.394531 11.148438 328.800781 C 10.785156 329.324219 10.605469 330.292969 10.605469 331.703125 Z M 2.347656 325.074219 "/>
<path fill-rule="nonzero" fill="rgb(40%, 40%, 40%)" fill-opacity="1" d="M 8.316406 269.496094 L 7.269531 269.574219 C 7.175781 269.167969 7.042969 268.867188 6.871094 268.675781 C 6.582031 268.375 6.230469 268.222656 5.816406 268.222656 C 5.480469 268.222656 5.183594 268.316406 4.933594 268.503906 C 4.597656 268.746094 4.335938 269.101562 4.144531 269.566406 C 3.953125 270.03125 3.855469 270.691406 3.847656 271.550781 C 4.101562 271.167969 4.410156 270.882812 4.78125 270.691406 C 5.144531 270.507812 5.53125 270.414062 5.933594 270.410156 C 6.636719 270.414062 7.234375 270.671875 7.730469 271.1875 C 8.222656 271.703125 8.46875 272.371094 8.472656 273.191406 C 8.46875 273.730469 8.351562 274.234375 8.121094 274.695312 C 7.886719 275.160156 7.570312 275.511719 7.164062 275.757812 C 6.757812 276.003906 6.296875 276.125 5.78125 276.128906 C 4.902344 276.125 4.183594 275.804688 3.632812 275.160156 C 3.074219 274.511719 2.796875 273.445312 2.800781 271.960938 C 2.796875 270.304688 3.105469 269.097656 3.71875 268.339844 C 4.25 267.683594 4.96875 267.355469 5.878906 267.355469 C 6.554688 267.355469 7.109375 267.546875 7.542969 267.925781 C 7.972656 268.304688 8.230469 268.828125 8.316406 269.496094 Z M 4.011719 273.199219 C 4.011719 273.5625 4.085938 273.910156 4.242188 274.242188 C 4.390625 274.574219 4.609375 274.828125 4.890625 275 C 5.167969 275.179688 5.457031 275.265625 5.761719 275.261719 C 6.207031 275.265625 6.589844 275.085938 6.914062 274.722656 C 7.230469 274.367188 7.390625 273.878906 7.394531 273.253906 C 7.390625 272.664062 7.234375 272.195312 6.917969 271.851562 C 6.597656 271.511719 6.199219 271.339844 5.722656 271.339844 C 5.246094 271.339844 4.839844 271.511719 4.507812 271.851562 C 4.175781 272.195312 4.011719 272.644531 4.011719 273.199219 Z M 9.523438 273.730469 L 10.628906 273.636719 C 10.707031 274.175781 10.894531 274.582031 11.199219 274.855469 C 11.496094 275.128906 11.859375 275.265625 12.28125 275.261719 C 12.789062 275.265625 13.21875 275.074219 13.570312 274.6875 C 13.921875 274.308594 14.097656 273.800781 14.097656 273.160156 C 14.097656 272.566406 13.925781 272.089844 13.589844 271.738281 C 13.25 271.390625 12.808594 271.21875 12.265625 271.214844 C 11.921875 271.21875 11.617188 271.296875 11.34375 271.449219 C 11.070312 271.605469 10.855469 271.804688 10.699219 272.050781 L 9.710938 271.917969 L 10.539062 267.507812 L 14.8125 267.507812 L 14.8125 268.515625 L 11.382812 268.515625 L 10.921875 270.824219 C 11.4375 270.464844 11.976562 270.285156 12.546875 270.285156 C 13.292969 270.285156 13.925781 270.546875 14.445312 271.066406 C 14.957031 271.585938 15.214844 272.253906 15.21875 273.066406 C 15.214844 273.847656 14.988281 274.519531 14.539062 275.082031 C 13.984375 275.78125 13.234375 276.125 12.28125 276.128906 C 11.5 276.125 10.859375 275.910156 10.367188 275.472656 C 9.867188 275.039062 9.585938 274.457031 9.523438 273.730469 Z M 2.347656 265.117188 "/>
<path fill-rule="nonzero" fill="rgb(40%, 40%, 40%)" fill-opacity="1" d="M 2.917969 208.5625 L 2.917969 207.550781 L 8.476562 207.550781 L 8.476562 208.371094 C 7.929688 208.953125 7.386719 209.726562 6.847656 210.691406 C 6.308594 211.65625 5.894531 212.648438 5.605469 213.667969 C 5.394531 214.390625 5.257812 215.175781 5.199219 216.027344 L 4.117188 216.027344 C 4.128906 215.351562 4.261719 214.535156 4.515625 213.578125 C 4.765625 212.625 5.128906 211.703125 5.605469 210.8125 C 6.082031 209.921875 6.585938 209.171875 7.121094 208.5625 Z M 9.523438 211.792969 C 9.519531 210.78125 9.625 209.964844 9.835938 209.339844 C 10.042969 208.722656 10.351562 208.242188 10.765625 207.90625 C 11.171875 207.570312 11.691406 207.402344 12.320312 207.402344 C 12.78125 207.402344 13.1875 207.496094 13.535156 207.679688 C 13.878906 207.867188 14.164062 208.136719 14.394531 208.484375 C 14.617188 208.835938 14.796875 209.261719 14.929688 209.761719 C 15.058594 210.265625 15.121094 210.941406 15.125 211.792969 C 15.121094 212.800781 15.019531 213.613281 14.8125 214.230469 C 14.601562 214.851562 14.289062 215.332031 13.882812 215.667969 C 13.46875 216.007812 12.949219 216.171875 12.320312 216.175781 C 11.488281 216.171875 10.839844 215.878906 10.371094 215.285156 C 9.804688 214.570312 9.519531 213.40625 9.523438 211.792969 Z M 10.605469 211.792969 C 10.605469 213.203125 10.769531 214.140625 11.097656 214.609375 C 11.425781 215.078125 11.832031 215.3125 12.320312 215.308594 C 12.800781 215.3125 13.207031 215.078125 13.542969 214.605469 C 13.871094 214.140625 14.039062 213.203125 14.039062 211.792969 C 14.039062 210.378906 13.871094 209.4375 13.542969 208.972656 C 13.207031 208.511719 12.796875 208.28125 12.3125 208.277344 C 11.824219 208.28125 11.4375 208.484375 11.148438 208.890625 C 10.785156 209.414062 10.605469 210.382812 10.605469 211.792969 Z M 2.347656 205.164062 "/>
<path fill-rule="nonzero" fill="rgb(40%, 40%, 40%)" fill-opacity="1" d="M 2.917969 148.605469 L 2.917969 147.59375 L 8.476562 147.59375 L 8.476562 148.414062 C 7.929688 148.996094 7.386719 149.769531 6.847656 150.734375 C 6.308594 151.699219 5.894531 152.691406 5.605469 153.710938 C 5.394531 154.433594 5.257812 155.21875 5.199219 156.070312 L 4.117188 156.070312 C 4.128906 155.394531 4.261719 154.578125 4.515625 153.621094 C 4.765625 152.667969 5.128906 151.746094 5.605469 150.855469 C 6.082031 149.964844 6.585938 149.214844 7.121094 148.605469 Z M 9.523438 153.820312 L 10.628906 153.726562 C 10.707031 154.265625 10.894531 154.671875 11.199219 154.945312 C 11.496094 155.21875 11.859375 155.355469 12.28125 155.351562 C 12.789062 155.355469 13.21875 155.164062 13.570312 154.777344 C 13.921875 154.398438 14.097656 153.890625 14.097656 153.25 C 14.097656 152.65625 13.925781 152.179688 13.589844 151.828125 C 13.25 151.480469 12.808594 151.308594 12.265625 151.304688 C 11.921875 151.308594 11.617188 151.386719 11.34375 151.539062 C 11.070312 151.695312 10.855469 151.894531 10.699219 152.140625 L 9.710938 152.007812 L 10.539062 147.597656 L 14.8125 147.597656 L 14.8125 148.605469 L 11.382812 148.605469 L 10.921875 150.914062 C 11.4375 150.554688 11.976562 150.375 12.546875 150.375 C 13.292969 150.375 13.925781 150.636719 14.445312 151.15625 C 14.957031 151.675781 15.214844 152.34375 15.21875 153.15625 C 15.214844 153.9375 14.988281 154.609375 14.539062 155.171875 C 13.984375 155.871094 13.234375 156.214844 12.28125 156.21875 C 11.5 156.214844 10.859375 156 10.367188 155.5625 C 9.867188 155.128906 9.585938 154.546875 9.523438 153.820312 Z M 2.347656 145.207031 "/>
<path fill-rule="nonzero" fill="rgb(40%, 40%, 40%)" fill-opacity="1" d="M 4.46875 91.460938 C 4.03125 91.300781 3.707031 91.070312 3.496094 90.773438 C 3.285156 90.476562 3.179688 90.121094 3.179688 89.707031 C 3.179688 89.082031 3.402344 88.558594 3.851562 88.132812 C 4.300781 87.707031 4.898438 87.492188 5.644531 87.492188 C 6.390625 87.492188 6.996094 87.710938 7.457031 88.144531 C 7.914062 88.582031 8.140625 89.113281 8.144531 89.734375 C 8.140625 90.140625 8.035156 90.488281 7.828125 90.777344 C 7.617188 91.074219 7.300781 91.300781 6.878906 91.460938 C 7.402344 91.636719 7.804688 91.914062 8.082031 92.292969 C 8.355469 92.679688 8.492188 93.136719 8.496094 93.664062 C 8.492188 94.402344 8.234375 95.019531 7.714844 95.515625 C 7.191406 96.015625 6.507812 96.261719 5.664062 96.265625 C 4.816406 96.261719 4.132812 96.015625 3.613281 95.511719 C 3.089844 95.011719 2.828125 94.382812 2.832031 93.632812 C 2.828125 93.078125 2.96875 92.613281 3.257812 92.230469 C 3.539062 91.855469 3.945312 91.597656 4.46875 91.460938 Z M 4.257812 89.671875 C 4.257812 90.078125 4.386719 90.410156 4.648438 90.667969 C 4.910156 90.925781 5.25 91.054688 5.667969 91.054688 C 6.070312 91.054688 6.402344 90.929688 6.667969 90.671875 C 6.925781 90.421875 7.058594 90.105469 7.058594 89.730469 C 7.058594 89.34375 6.921875 89.019531 6.65625 88.753906 C 6.382812 88.492188 6.050781 88.359375 5.660156 88.359375 C 5.253906 88.359375 4.921875 88.488281 4.65625 88.746094 C 4.390625 89.003906 4.257812 89.3125 4.257812 89.671875 Z M 3.917969 93.640625 C 3.917969 93.941406 3.988281 94.230469 4.132812 94.511719 C 4.273438 94.792969 4.484375 95.011719 4.769531 95.167969 C 5.046875 95.324219 5.351562 95.402344 5.675781 95.398438 C 6.179688 95.402344 6.59375 95.238281 6.925781 94.910156 C 7.25 94.585938 7.414062 94.175781 7.417969 93.671875 C 7.414062 93.171875 7.246094 92.75 6.910156 92.414062 C 6.570312 92.082031 6.148438 91.917969 5.640625 91.914062 C 5.140625 91.917969 4.726562 92.082031 4.40625 92.40625 C 4.078125 92.738281 3.917969 93.148438 3.917969 93.640625 Z M 9.523438 91.882812 C 9.519531 90.871094 9.625 90.054688 9.835938 89.429688 C 10.042969 88.8125 10.351562 88.332031 10.765625 87.996094 C 11.171875 87.660156 11.691406 87.492188 12.320312 87.492188 C 12.78125 87.492188 13.1875 87.585938 13.535156 87.769531 C 13.878906 87.957031 14.164062 88.226562 14.394531 88.574219 C 14.617188 88.925781 14.796875 89.351562 14.929688 89.851562 C 15.058594 90.355469 15.121094 91.03125 15.125 91.882812 C 15.121094 92.890625 15.019531 93.703125 14.8125 94.320312 C 14.601562 94.941406 14.289062 95.421875 13.882812 95.757812 C 13.46875 96.097656 12.949219 96.261719 12.320312 96.265625 C 11.488281 96.261719 10.839844 95.96875 10.371094 95.375 C 9.804688 94.660156 9.519531 93.496094 9.523438 91.882812 Z M 10.605469 91.882812 C 10.605469 93.292969 10.769531 94.230469 11.097656 94.699219 C 11.425781 95.167969 11.832031 95.402344 12.320312 95.398438 C 12.800781 95.402344 13.207031 95.167969 13.542969 94.695312 C 13.871094 94.230469 14.039062 93.292969 14.039062 91.882812 C 14.039062 90.46875 13.871094 89.527344 13.542969 89.0625 C 13.207031 88.601562 12.796875 88.371094 12.3125 88.367188 C 11.824219 88.371094 11.4375 88.574219 11.148438 88.980469 C 10.785156 89.503906 10.605469 90.472656 10.605469 91.882812 Z M 2.347656 85.253906 "/>
<path fill-rule="nonzero" fill="rgb(40%, 40%, 40%)" fill-opacity="1" d="M 4.46875 31.503906 C 4.03125 31.34375 3.707031 31.113281 3.496094 30.816406 C 3.285156 30.519531 3.179688 30.164062 3.179688 29.75 C 3.179688 29.125 3.402344 28.601562 3.851562 28.175781 C 4.300781 27.75 4.898438 27.535156 5.644531 27.535156 C 6.390625 27.535156 6.996094 27.753906 7.457031 28.1875 C 7.914062 28.625 8.140625 29.15625 8.144531 29.777344 C 8.140625 30.183594 8.035156 30.53125 7.828125 30.820312 C 7.617188 31.117188 7.300781 31.34375 6.878906 31.503906 C 7.402344 31.679688 7.804688 31.957031 8.082031 32.335938 C 8.355469 32.722656 8.492188 33.179688 8.496094 33.707031 C 8.492188 34.445312 8.234375 35.0625 7.714844 35.558594 C 7.191406 36.058594 6.507812 36.304688 5.664062 36.308594 C 4.816406 36.304688 4.132812 36.058594 3.613281 35.554688 C 3.089844 35.054688 2.828125 34.425781 2.832031 33.675781 C 2.828125 33.121094 2.96875 32.65625 3.257812 32.273438 C 3.539062 31.898438 3.945312 31.640625 4.46875 31.503906 Z M 4.257812 29.714844 C 4.257812 30.121094 4.386719 30.453125 4.648438 30.710938 C 4.910156 30.96875 5.25 31.097656 5.667969 31.097656 C 6.070312 31.097656 6.402344 30.972656 6.667969 30.714844 C 6.925781 30.464844 7.058594 30.148438 7.058594 29.773438 C 7.058594 29.386719 6.921875 29.0625 6.65625 28.796875 C 6.382812 28.535156 6.050781 28.402344 5.660156 28.402344 C 5.253906 28.402344 4.921875 28.53125 4.65625 28.789062 C 4.390625 29.046875 4.257812 29.355469 4.257812 29.714844 Z M 3.917969 33.683594 C 3.917969 33.984375 3.988281 34.273438 4.132812 34.554688 C 4.273438 34.835938 4.484375 35.054688 4.769531 35.210938 C 5.046875 35.367188 5.351562 35.445312 5.675781 35.441406 C 6.179688 35.445312 6.59375 35.28125 6.925781 34.953125 C 7.25 34.628906 7.414062 34.21875 7.417969 33.714844 C 7.414062 33.214844 7.246094 32.792969 6.910156 32.457031 C 6.570312 32.125 6.148438 31.960938 5.640625 31.957031 C 5.140625 31.960938 4.726562 32.125 4.40625 32.449219 C 4.078125 32.78125 3.917969 33.191406 3.917969 33.683594 Z M 9.523438 33.910156 L 10.628906 33.816406 C 10.707031 34.355469 10.894531 34.761719 11.199219 35.035156 C 11.496094 35.308594 11.859375 35.445312 12.28125 35.441406 C 12.789062 35.445312 13.21875 35.253906 13.570312 34.867188 C 13.921875 34.488281 14.097656 33.980469 14.097656 33.339844 C 14.097656 32.746094 13.925781 32.269531 13.589844 31.917969 C 13.25 31.570312 12.808594 31.398438 12.265625 31.394531 C 11.921875 31.398438 11.617188 31.476562 11.34375 31.628906 C 11.070312 31.785156 10.855469 31.984375 10.699219 32.230469 L 9.710938 32.097656 L 10.539062 27.6875 L 14.8125 27.6875 L 14.8125 28.695312 L 11.382812 28.695312 L 10.921875 31.003906 C 11.4375 30.644531 11.976562 30.464844 12.546875 30.464844 C 13.292969 30.464844 13.925781 30.726562 14.445312 31.246094 C 14.957031 31.765625 15.214844 32.433594 15.21875 33.246094 C 15.214844 34.027344 14.988281 34.699219 14.539062 35.261719 C 13.984375 35.960938 13.234375 36.304688 12.28125 36.308594 C 11.5 36.304688 10.859375 36.089844 10.367188 35.652344 C 9.867188 35.21875 9.585938 34.636719 9.523438 33.910156 Z M 2.347656 25.296875 "/>
<g clip-path="url(#clip-0)">
<path fill="none" stroke-width="3" stroke-linecap="butt" stroke-linejoin="miter" stroke="rgb(29.411765%, 75.294118%, 75.294118%)" stroke-opacity="1" stroke-miterlimit="10" d="M 27.347656 271.820312 C 40.046875 279.015625 145.683594 349.902344 154.34375 343.769531 C 171.082031 331.917969 263.851562 110.121094 281.34375 91.957031 C 289.253906 83.738281 401.1875 71.863281 408.339844 79.964844 C 426.589844 100.640625 517.085938 357.34375 535.335938 379.742188 C 542.484375 388.519531 653.015625 384.695312 662.332031 391.734375 C 678.414062 403.882812 776.628906 553.613281 789.328125 571.601562 "/>
</g>
<path fill-rule="nonzero" fill="rgb(0%, 0%, 0%)" fill-opacity="0.0980392" d="M 30.347656 271.820312 C 30.347656 275.820312 24.347656 275.820312 24.347656 271.820312 C 24.347656 267.820312 30.347656 267.820312 30.347656 271.820312 Z M 30.347656 271.820312 "/>
<g clip-path="url(#clip-1)">
<path fill="none" stroke-width="1" stroke-linecap="butt" stroke-linejoin="miter" stroke="rgb(29.411765%, 75.294118%, 75.294118%)" stroke-opacity="1" stroke-miterlimit="10" d="M 30.347656 271.820312 C 30.347656 275.820312 24.347656 275.820312 24.347656 271.820312 C 24.347656 267.820312 30.347656 267.820312 30.347656 271.820312 Z M 30.347656 271.820312 "/>
</g>
<path fill-rule="nonzero" fill="rgb(0%, 0%, 0%)" fill-opacity="0.0980392" stroke-width="1" stroke-linecap="butt" stroke-linejoin="miter" stroke="rgb(29.411765%, 75.294118%, 75.294118%)" stroke-opacity="1" stroke-miterlimit="10" d="M 157.34375 343.769531 C 157.34375 347.769531 151.34375 347.769531 151.34375 343.769531 C 151.34375 339.769531 157.34375 339.769531 157.34375 343.769531 Z M 157.34375 343.769531 "/>
<path fill-rule="nonzero" fill="rgb(0%, 0%, 0%)" fill-opacity="0.0980392" stroke-width="1" stroke-linecap="butt" stroke-linejoin="miter" stroke="rgb(29.411765%, 75.294118%, 75.294118%)" stroke-opacity="1" stroke-miterlimit="10" d="M 284.34375 91.957031 C 284.34375 95.957031 278.34375 95.957031 278.34375 91.957031 C 278.34375 87.957031 284.34375 87.957031 284.34375 91.957031 Z M 284.34375 91.957031 "/>
<path fill-rule="nonzero" fill="rgb(0%, 0%, 0%)" fill-opacity="0.0980392" stroke-width="1" stroke-linecap="butt" stroke-linejoin="miter" stroke="rgb(29.411765%, 75.294118%, 75.294118%)" stroke-opacity="1" stroke-miterlimit="10" d="M 411.339844 79.964844 C 411.339844 83.964844 405.339844 83.964844 405.339844 79.964844 C 405.339844 75.964844 411.339844 75.964844 411.339844 79.964844 Z M 411.339844 79.964844 "/>
<path fill-rule="nonzero" fill="rgb(0%, 0%, 0%)" fill-opacity="0.0980392" stroke-width="1" stroke-linecap="butt" stroke-linejoin="miter" stroke="rgb(29.411765%, 75.294118%, 75.294118%)" stroke-opacity="1" stroke-miterlimit="10" d="M 538.335938 379.742188 C 538.335938 383.742188 532.335938 383.742188 532.335938 379.742188 C 532.335938 375.742188 538.335938 375.742188 538.335938 379.742188 Z M 538.335938 379.742188 "/>
<path fill-rule="nonzero" fill="rgb(0%, 0%, 0%)" fill-opacity="0.0980392" stroke-width="1" stroke-linecap="butt" stroke-linejoin="miter" stroke="rgb(29.411765%, 75.294118%, 75.294118%)" stroke-opacity="1" stroke-miterlimit="10" d="M 665.332031 391.734375 C 665.332031 395.734375 659.332031 395.734375 659.332031 391.734375 C 659.332031 387.734375 665.332031 387.734375 665.332031 391.734375 Z M 665.332031 391.734375 "/>
<path fill-rule="nonzero" fill="rgb(0%, 0%, 0%)" fill-opacity="0.0980392" d="M 792.328125 571.601562 C 792.328125 575.601562 786.328125 575.601562 786.328125 571.601562 C 786.328125 567.601562 792.328125 567.601562 792.328125 571.601562 Z M 792.328125 571.601562 "/>
<g clip-path="url(#clip-2)">
<path fill="none" stroke-width="1" stroke-linecap="butt" stroke-linejoin="miter" stroke="rgb(29.411765%, 75.294118%, 75.294118%)" stroke-opacity="1" stroke-miterlimit="10" d="M 792.328125 571.601562 C 792.328125 575.601562 786.328125 575.601562 786.328125 571.601562 C 786.328125 567.601562 792.328125 567.601562 792.328125 571.601562 Z M 792.328125 571.601562 "/>
</g>
</svg>
