<?xml version="1.0" encoding="UTF-8"?>
<svg xmlns="http://www.w3.org/2000/svg" xmlns:xlink="http://www.w3.org/1999/xlink" width="800" height="600" viewBox="0 0 800 600">
<defs>
<clipPath id="clip-0">
<path clip-rule="nonzero" d="M 42.46875 181.558594 L 122.601562 181.558594 L 122.601562 571.101562 L 42.46875 571.101562 Z M 42.46875 181.558594 "/>
</clipPath>
<clipPath id="clip-1">
<path clip-rule="nonzero" d="M 43 182 L 122 182 L 122 571.101562 L 43 571.101562 Z M 43 182 "/>
</clipPath>
<clipPath id="clip-2">
<path clip-rule="nonzero" d="M 152.847656 217.53125 L 232.980469 217.53125 L 232.980469 571.097656 L 152.847656 571.097656 Z M 152.847656 217.53125 "/>
</clipPath>
<clipPath id="clip-3">
<path clip-rule="nonzero" d="M 153 218 L 232 218 L 232 571.097656 L 153 571.097656 Z M 153 218 "/>
</clipPath>
<clipPath id="clip-4">
<path clip-rule="nonzero" d="M 263.226562 91.625 L 343.359375 91.625 L 343.359375 571.097656 L 263.226562 571.097656 Z M 263.226562 91.625 "/>
</clipPath>
<clipPath id="clip-5">
<path clip-rule="nonzero" d="M 264 92 L 343 92 L 343 571.097656 L 264 571.097656 Z M 264 92 "/>
</clipPath>
<clipPath id="clip-6">
<path clip-rule="nonzero" d="M 373.609375 85.628906 L 453.742188 85.628906 L 453.742188 571.097656 L 373.609375 571.097656 Z M 373.609375 85.628906 "/>
</clipPath>
<clipPath id="clip-7">
<path clip-rule="nonzero" d="M 374 86 L 453 86 L 453 571.097656 L 374 571.097656 Z M 374 86 "/>
</clipPath>
<clipPath id="clip-8">
<path clip-rule="nonzero" d="M 483.984375 235.519531 L 564.117188 235.519531 L 564.117188 571.101562 L 483.984375 571.101562 Z M 483.984375 235.519531 "/>
</clipPath>
<clipPath id="clip-9">
<path clip-rule="nonzero" d="M 484 236 L 564 236 L 564 571.101562 L 484 571.101562 Z M 484 236 "/>
</clipPath>
<clipPath id="clip-10">
<path clip-rule="nonzero" d="M 594.367188 241.515625 L 674.5 241.515625 L 674.5 571.101562 L 594.367188 571.101562 Z M 594.367188 241.515625 "/>
</clipPath>
<clipPath id="clip-11">
<path clip-rule="nonzero" d="M 595 242 L 674 242 L 674 571.101562 L 595 571.101562 Z M 595 242 "/>
</clipPath>
<clipPath id="clip-12">
<path clip-rule="nonzero" d="M 704.742188 331.449219 L 784.875 331.449219 L 784.875 571.101562 L 704.742188 571.101562 Z M 704.742188 331.449219 "/>
</clipPath>
<clipPath id="clip-13">
<path clip-rule="nonzero" d="M 705 332 L 784 332 L 784 571.101562 L 705 571.101562 Z M 705 332 "/>
</clipPath>
</defs>
<rect x="-80" y="-60" width="960" height="720" fill="rgb(100%, 100%, 100%)" fill-opacity="1"/>
<path fill="none" stroke-width="1" stroke-linecap="butt" stroke-linejoin="miter" stroke="rgb(0%, 0%, 0%)" stroke-opacity="0.0980392" stroke-miterlimit="10" d="M 27.5 32 L 27.5 571 "/>
<path fill="none" stroke-width="1" stroke-linecap="butt" stroke-linejoin="miter" stroke="rgb(0%, 0%, 0%)" stroke-opacity="0.0980392" stroke-miterlimit="10" d="M 27.5 572 L 27.5 579.601562 "/>
<path fill="none" stroke-width="1" stroke-linecap="butt" stroke-linejoin="miter" stroke="rgb(0%, 0%, 0%)" stroke-opacity="0.0980392" stroke-miterlimit="10" d="M 137.5 32 L 137.5 571 "/>
<path fill="none" stroke-width="1" stroke-linecap="butt" stroke-linejoin="miter" stroke="rgb(0%, 0%, 0%)" stroke-opacity="0.0980392" stroke-miterlimit="10" d="M 137.5 572 L 137.5 579.601562 "/>
<path fill="none" stroke-width="1" stroke-linecap="butt" stroke-linejoin="miter" stroke="rgb(0%, 0%, 0%)" stroke-opacity="0.0980392" stroke-miterlimit="10" d="M 248.5 32 L 248.5 571 "/>
<path fill="none" stroke-width="1" stroke-linecap="butt" stroke-linejoin="miter" stroke="rgb(0%, 0%, 0%)" stroke-opacity="0.0980392" stroke-miterlimit="10" d="M 248.5 572 L 248.5 579.601562 "/>
<path fill="none" stroke-width="1" stroke-linecap="butt" stroke-linejoin="miter" stroke="rgb(0%, 0%, 0%)" stroke-opacity="0.0980392" stroke-miterlimit="10" d="M 358.5 32 L 358.5 571 "/>
<path fill="none" stroke-width="1" stroke-linecap="butt" stroke-linejoin="miter" stroke="rgb(0%, 0%, 0%)" stroke-opacity="0.0980392" stroke-miterlimit="10" d="M 358.5 572 L 358.5 579.601562 "/>
<path fill="none" stroke-width="1" stroke-linecap="butt" stroke-linejoin="miter" stroke="rgb(0%, 0%, 0%)" stroke-opacity="0.0980392" stroke-miterlimit="10" d="M 468.5 32 L 468.5 571 "/>
<path fill="none" stroke-width="1" stroke-linecap="butt" stroke-linejoin="miter" stroke="rgb(0%, 0%, 0%)" stroke-opacity="0.0980392" stroke-miterlimit="10" d="M 468.5 572 L 468.5 579.601562 "/>
<path fill="none" stroke-width="1" stroke-linecap="butt" stroke-linejoin="miter" stroke="rgb(0%, 0%, 0%)" stroke-opacity="0.0980392" stroke-miterlimit="10" d="M 579.5 32 L 579.5 571 "/>
<path fill="none" stroke-width="1" stroke-linecap="butt" stroke-linejoin="miter" stroke="rgb(0%, 0%, 0%)" stroke-opacity="0.0980392" stroke-miterlimit="10" d="M 579.5 572 L 579.5 579.601562 "/>
<path fill="none" stroke-width="1" stroke-linecap="butt" stroke-linejoin="miter" stroke="rgb(0%, 0%, 0%)" stroke-opacity="0.0980392" stroke-miterlimit="10" d="M 689.5 32 L 689.5 571 "/>
<path fill="none" stroke-width="1" stroke-linecap="butt" stroke-linejoin="miter" stroke="rgb(0%, 0%, 0%)" stroke-opacity="0.0980392" stroke-miterlimit="10" d="M 689.5 572 L 689.5 579.601562 "/>
<path fill="none" stroke-width="1" stroke-linecap="butt" stroke-linejoin="miter" stroke="rgb(0%, 0%, 0%)" stroke-opacity="0.0980392" stroke-miterlimit="10" d="M 28 571.5 L 800 571.5 "/>
<path fill="none" stroke-width="1" stroke-linecap="butt" stroke-linejoin="miter" stroke="rgb(0%, 0%, 0%)" stroke-opacity="0.0980392" stroke-miterlimit="10" d="M 19.347656 571.5 L 27 571.5 "/>
<path fill="none" stroke-width="1" stroke-linecap="butt" stroke-linejoin="miter" stroke="rgb(0%, 0%, 0%)" stroke-opacity="0.0980392" stroke-miterlimit="10" d="M 28 511.5 L 800 511.5 "/>
<path fill="none" stroke-width="1" stroke-linecap="butt" stroke-linejoin="miter" stroke="rgb(0%, 0%, 0%)" stroke-opacity="0.0980392" stroke-miterlimit="10" d="M 19.347656 511.5 L 27 511.5 "/>
<path fill="none" stroke-width="1" stroke-linecap="butt" stroke-linejoin="miter" stroke="rgb(0%, 0%, 0%)" stroke-opacity="0.0980392" stroke-miterlimit="10" d="M 28 451.5 L 800 451.5 "/>
<path fill="none" stroke-width="1" stroke-linecap="butt" stroke-linejoin="miter" stroke="rgb(0%, 0%, 0%)" stroke-opacity="0.0980392" stroke-miterlimit="10" d="M 19.347656 451.5 L 27 451.5 "/>
<path fill="none" stroke-width="1" stroke-linecap="butt" stroke-linejoin="miter" stroke="rgb(0%, 0%, 0%)" stroke-opacity="0.0980392" stroke-miterlimit="10" d="M 28 391.5 L 800 391.5 "/>
<path fill="none" stroke-width="1" stroke-linecap="butt" stroke-linejoin="miter" stroke="rgb(0%, 0%, 0%)" stroke-opacity="0.0980392" stroke-miterlimit="10" d="M 19.347656 391.5 L 27 391.5 "/>
<path fill="none" stroke-width="1" stroke-linecap="butt" stroke-linejoin="miter" stroke="rgb(0%, 0%, 0%)" stroke-opacity="0.0980392" stroke-miterlimit="10" d="M 28 331.5 L 800 331.5 "/>
<path fill="none" stroke-width="1" stroke-linecap="butt" stroke-linejoin="miter" stroke="rgb(0%, 0%, 0%)" stroke-opacity="0.0980392" stroke-miterlimit="10" d="M 19.347656 331.5 L 27 331.5 "/>
<path fill="none" stroke-width="1" stroke-linecap="butt" stroke-linejoin="miter" stroke="rgb(0%, 0%, 0%)" stroke-opacity="0.0980392" stroke-miterlimit="10" d="M 28 271.5 L 800 271.5 "/>
<path fill="none" stroke-width="1" stroke-linecap="butt" stroke-linejoin="miter" stroke="rgb(0%, 0%, 0%)" stroke-opacity="0.0980392" stroke-miterlimit="10" d="M 19.347656 271.5 L 27 271.5 "/>
<path fill="none" stroke-width="1" stroke-linecap="butt" stroke-linejoin="miter" stroke="rgb(0%, 0%, 0%)" stroke-opacity="0.0980392" stroke-miterlimit="10" d="M 28 211.5 L 800 211.5 "/>
<path fill="none" stroke-width="1" stroke-linecap="butt" stroke-linejoin="miter" stroke="rgb(0%, 0%, 0%)" stroke-opacity="0.0980392" stroke-miterlimit="10" d="M 19.347656 211.5 L 27 211.5 "/>
<path fill="none" stroke-width="1" stroke-linecap="butt" stroke-linejoin="miter" stroke="rgb(0%, 0%, 0%)" stroke-opacity="0.0980392" stroke-miterlimit="10" d="M 28 151.5 L 800 151.5 "/>
<path fill="none" stroke-width="1" stroke-linecap="butt" stroke-linejoin="miter" stroke="rgb(0%, 0%, 0%)" stroke-opacity="0.0980392" stroke-miterlimit="10" d="M 19.347656 151.5 L 27 151.5 "/>
<path fill="none" stroke-width="1" stroke-linecap="butt" stroke-linejoin="miter" stroke="rgb(0%, 0%, 0%)" stroke-opacity="0.0980392" stroke-miterlimit="10" d="M 28 91.5 L 800 91.5 "/>
<path fill="none" stroke-width="1" stroke-linecap="butt" stroke-linejoin="miter" stroke="rgb(0%, 0%, 0%)" stroke-opacity="0.0980392" stroke-miterlimit="10" d="M 19.347656 91.5 L 27 91.5 "/>
<path fill="none" stroke-width="1" stroke-linecap="butt" stroke-linejoin="miter" stroke="rgb(0%, 0%, 0%)" stroke-opacity="0.0980392" stroke-miterlimit="10" d="M 28 32.5 L 800 32.5 "/>
<path fill="none" stroke-width="1" stroke-linecap="butt" stroke-linejoin="miter" stroke="rgb(0%, 0%, 0%)" stroke-opacity="0.0980392" stroke-miterlimit="10" d="M 19.347656 32.5 L 27 32.5 "/>
<path fill-rule="nonzero" fill="rgb(100%, 38.823529%, 51.764706%)" fill-opacity="0.2" stroke-width="1" stroke-linecap="butt" stroke-linejoin="miter" stroke="rgb(100%, 38.823529%, 51.764706%)" stroke-opacity="1" stroke-miterlimit="10" d="M 333.328125 10 L 373.328125 10 L 373.328125 22 L 333.328125 22 Z M 333.328125 10 "/>
<path fill-rule="nonzero" fill="rgb(40%, 40%, 40%)" fill-opacity="1" d="M 380.21875 20.160156 L 380.21875 11.570312 L 381.929688 11.570312 L 383.960938 17.652344 C 384.144531 18.222656 384.28125 18.648438 384.375 18.925781 C 384.46875 18.617188 384.621094 18.15625 384.828125 17.546875 L 386.886719 11.570312 L 388.414062 11.570312 L 388.414062 20.160156 L 387.320312 20.160156 L 387.320312 12.972656 L 384.824219 20.160156 L 383.796875 20.160156 L 381.3125 12.847656 L 381.3125 20.160156 Z M 390.066406 22.558594 L 389.949219 21.566406 C 390.179688 21.628906 390.382812 21.660156 390.554688 21.660156 C 390.789062 21.660156 390.976562 21.621094 391.117188 21.542969 C 391.257812 21.464844 391.371094 21.355469 391.464844 21.214844 C 391.527344 21.109375 391.636719 20.847656 391.785156 20.429688 C 391.804688 20.367188 391.835938 20.28125 391.878906 20.171875 L 389.519531 13.9375 L 390.652344 13.9375 L 391.949219 17.542969 C 392.113281 18 392.261719 18.480469 392.402344 18.980469 C 392.519531 18.5 392.664062 18.027344 392.832031 17.566406 L 394.164062 13.9375 L 395.21875 13.9375 L 392.851562 20.265625 C 392.597656 20.949219 392.398438 21.417969 392.261719 21.675781 C 392.070312 22.023438 391.855469 22.277344 391.617188 22.441406 C 391.371094 22.597656 391.082031 22.679688 390.746094 22.683594 C 390.539062 22.679688 390.3125 22.636719 390.066406 22.558594 Z M 399.640625 20.160156 L 399.640625 11.570312 L 405.4375 11.570312 L 405.4375 12.582031 L 400.777344 12.582031 L 400.777344 15.246094 L 404.808594 15.246094 L 404.808594 16.257812 L 400.777344 16.257812 L 400.777344 20.160156 Z M 406.785156 12.785156 L 406.785156 11.570312 L 407.839844 11.570312 L 407.839844 12.785156 Z M 406.785156 20.160156 L 406.785156 13.9375 L 407.839844 13.9375 L 407.839844 20.160156 Z M 409.4375 20.160156 L 409.4375 13.9375 L 410.382812 13.9375 L 410.382812 14.878906 C 410.625 14.441406 410.847656 14.148438 411.054688 14.007812 C 411.257812 13.867188 411.484375 13.796875 411.734375 13.796875 C 412.085938 13.796875 412.449219 13.910156 412.816406 14.136719 L 412.453125 15.113281 C 412.195312 14.964844 411.9375 14.886719 411.679688 14.886719 C 411.449219 14.886719 411.242188 14.957031 411.058594 15.09375 C 410.871094 15.234375 410.738281 15.425781 410.664062 15.671875 C 410.546875 16.046875 410.488281 16.457031 410.492188 16.902344 L 410.492188 20.160156 Z M 413.015625 18.300781 L 414.0625 18.136719 C 414.117188 18.558594 414.28125 18.878906 414.550781 19.101562 C 414.816406 19.324219 415.191406 19.433594 415.671875 19.433594 C 416.15625 19.433594 416.515625 19.335938 416.75 19.136719 C 416.984375 18.941406 417.101562 18.710938 417.101562 18.441406 C 417.101562 18.207031 416.996094 18.019531 416.789062 17.878906 C 416.644531 17.789062 416.285156 17.667969 415.710938 17.523438 C 414.9375 17.328125 414.402344 17.160156 414.105469 17.015625 C 413.804688 16.875 413.578125 16.679688 413.425781 16.425781 C 413.269531 16.175781 413.191406 15.894531 413.195312 15.589844 C 413.191406 15.316406 413.253906 15.0625 413.382812 14.820312 C 413.507812 14.585938 413.683594 14.386719 413.902344 14.230469 C 414.066406 14.113281 414.289062 14.011719 414.574219 13.925781 C 414.855469 13.839844 415.160156 13.796875 415.484375 13.796875 C 415.972656 13.796875 416.398438 13.867188 416.769531 14.007812 C 417.136719 14.148438 417.410156 14.339844 417.585938 14.582031 C 417.761719 14.824219 417.882812 15.144531 417.953125 15.542969 L 416.921875 15.683594 C 416.871094 15.363281 416.734375 15.113281 416.511719 14.933594 C 416.285156 14.753906 415.96875 14.664062 415.5625 14.664062 C 415.074219 14.664062 414.730469 14.746094 414.523438 14.90625 C 414.3125 15.066406 414.207031 15.253906 414.210938 15.464844 C 414.207031 15.605469 414.25 15.726562 414.34375 15.835938 C 414.421875 15.949219 414.558594 16.042969 414.746094 16.117188 C 414.851562 16.15625 415.160156 16.246094 415.679688 16.386719 C 416.421875 16.585938 416.941406 16.75 417.238281 16.875 C 417.527344 17.003906 417.761719 17.1875 417.933594 17.429688 C 418.101562 17.671875 418.183594 17.972656 418.1875 18.332031 C 418.183594 18.683594 418.082031 19.015625 417.878906 19.328125 C 417.671875 19.640625 417.375 19.882812 416.988281 20.046875 C 416.601562 20.21875 416.164062 20.300781 415.679688 20.300781 C 414.867188 20.300781 414.25 20.132812 413.828125 19.796875 C 413.402344 19.460938 413.132812 18.964844 413.015625 18.300781 Z M 421.742188 19.214844 L 421.894531 20.148438 C 421.597656 20.210938 421.332031 20.242188 421.097656 20.242188 C 420.714844 20.242188 420.417969 20.183594 420.207031 20.0625 C 419.996094 19.941406 419.847656 19.78125 419.761719 19.582031 C 419.675781 19.386719 419.632812 18.972656 419.632812 18.339844 L 419.632812 14.757812 L 418.859375 14.757812 L 418.859375 13.9375 L 419.632812 13.9375 L 419.632812 12.394531 L 420.679688 11.761719 L 420.679688 13.9375 L 421.742188 13.9375 L 421.742188 14.757812 L 420.679688 14.757812 L 420.679688 18.394531 C 420.675781 18.699219 420.695312 18.890625 420.734375 18.976562 C 420.773438 19.0625 420.832031 19.132812 420.917969 19.183594 C 421 19.234375 421.121094 19.257812 421.28125 19.257812 C 421.390625 19.257812 421.546875 19.246094 421.742188 19.214844 Z M 426.246094 20.160156 L 426.246094 11.570312 L 429.203125 11.570312 C 429.871094 11.570312 430.382812 11.613281 430.734375 11.691406 C 431.226562 11.808594 431.644531 12.011719 431.992188 12.308594 C 432.441406 12.691406 432.78125 13.183594 433.007812 13.777344 C 433.234375 14.375 433.347656 15.054688 433.347656 15.816406 C 433.347656 16.472656 433.269531 17.050781 433.117188 17.554688 C 432.964844 18.058594 432.769531 18.476562 432.53125 18.804688 C 432.292969 19.140625 432.03125 19.398438 431.75 19.585938 C 431.464844 19.773438 431.125 19.917969 430.726562 20.015625 C 430.324219 20.113281 429.863281 20.160156 429.34375 20.160156 Z M 427.382812 19.144531 L 429.21875 19.144531 C 429.78125 19.148438 430.226562 19.09375 430.546875 18.988281 C 430.867188 18.886719 431.125 18.738281 431.320312 18.542969 C 431.589844 18.273438 431.796875 17.914062 431.949219 17.457031 C 432.097656 17.003906 432.175781 16.449219 432.175781 15.800781 C 432.175781 14.902344 432.027344 14.214844 431.730469 13.730469 C 431.433594 13.25 431.074219 12.925781 430.65625 12.761719 C 430.351562 12.644531 429.863281 12.585938 429.1875 12.582031 L 427.382812 12.582031 Z M 438.835938 19.394531 C 438.445312 19.726562 438.066406 19.960938 437.707031 20.097656 C 437.339844 20.234375 436.953125 20.300781 436.546875 20.300781 C 435.859375 20.300781 435.335938 20.136719 434.96875 19.800781 C 434.601562 19.472656 434.417969 19.042969 434.417969 18.519531 C 434.417969 18.214844 434.484375 17.9375 434.625 17.6875 C 434.761719 17.4375 434.945312 17.234375 435.171875 17.078125 C 435.394531 16.925781 435.648438 16.8125 435.929688 16.730469 C 436.136719 16.683594 436.449219 16.628906 436.867188 16.574219 C 437.71875 16.472656 438.34375 16.351562 438.75 16.210938 C 438.75 16.070312 438.753906 15.980469 438.753906 15.933594 C 438.753906 15.511719 438.652344 15.207031 438.453125 15.027344 C 438.183594 14.789062 437.785156 14.671875 437.253906 14.667969 C 436.753906 14.671875 436.386719 14.757812 436.152344 14.929688 C 435.917969 15.105469 435.742188 15.414062 435.632812 15.855469 L 434.601562 15.714844 C 434.691406 15.273438 434.847656 14.917969 435.0625 14.644531 C 435.273438 14.378906 435.582031 14.167969 435.992188 14.019531 C 436.394531 13.871094 436.867188 13.796875 437.40625 13.796875 C 437.9375 13.796875 438.367188 13.859375 438.699219 13.984375 C 439.03125 14.109375 439.277344 14.269531 439.433594 14.457031 C 439.589844 14.648438 439.699219 14.886719 439.761719 15.175781 C 439.792969 15.355469 439.808594 15.679688 439.8125 16.144531 L 439.8125 17.550781 C 439.808594 18.535156 439.832031 19.15625 439.878906 19.414062 C 439.925781 19.675781 440.015625 19.921875 440.148438 20.160156 L 439.046875 20.160156 C 438.9375 19.941406 438.867188 19.6875 438.835938 19.394531 Z M 438.75 17.035156 C 438.359375 17.195312 437.785156 17.328125 437.023438 17.433594 C 436.589844 17.5 436.285156 17.570312 436.105469 17.644531 C 435.925781 17.726562 435.785156 17.839844 435.6875 17.988281 C 435.589844 18.140625 435.542969 18.308594 435.542969 18.488281 C 435.542969 18.773438 435.648438 19.007812 435.859375 19.191406 C 436.070312 19.382812 436.382812 19.476562 436.796875 19.472656 C 437.203125 19.476562 437.5625 19.386719 437.878906 19.207031 C 438.195312 19.03125 438.429688 18.789062 438.578125 18.480469 C 438.691406 18.242188 438.746094 17.890625 438.75 17.425781 Z M 443.75 19.214844 L 443.902344 20.148438 C 443.605469 20.210938 443.339844 20.242188 443.105469 20.242188 C 442.722656 20.242188 442.425781 20.183594 442.214844 20.0625 C 442.003906 19.941406 441.855469 19.78125 441.769531 19.582031 C 441.683594 19.386719 441.640625 18.972656 441.640625 18.339844 L 441.640625 14.757812 L 440.867188 14.757812 L 440.867188 13.9375 L 441.640625 13.9375 L 441.640625 12.394531 L 442.6875 11.761719 L 442.6875 13.9375 L 443.75 13.9375 L 443.75 14.757812 L 442.6875 14.757812 L 442.6875 18.394531 C 442.683594 18.699219 442.703125 18.890625 442.742188 18.976562 C 442.78125 19.0625 442.839844 19.132812 442.925781 19.183594 C 443.007812 19.234375 443.128906 19.257812 443.289062 19.257812 C 443.398438 19.257812 443.554688 19.246094 443.75 19.214844 Z M 448.84375 19.394531 C 448.453125 19.726562 448.074219 19.960938 447.714844 20.097656 C 447.347656 20.234375 446.960938 20.300781 446.554688 20.300781 C 445.867188 20.300781 445.34375 20.136719 444.976562 19.800781 C 444.609375 19.472656 444.425781 19.042969 444.425781 18.519531 C 444.425781 18.214844 444.492188 17.9375 444.632812 17.6875 C 444.769531 17.4375 444.953125 17.234375 445.179688 17.078125 C 445.402344 16.925781 445.65625 16.8125 445.9375 16.730469 C 446.144531 16.683594 446.457031 16.628906 446.875 16.574219 C 447.726562 16.472656 448.351562 16.351562 448.757812 16.210938 C 448.757812 16.070312 448.761719 15.980469 448.761719 15.933594 C 448.761719 15.511719 448.660156 15.207031 448.460938 15.027344 C 448.191406 14.789062 447.792969 14.671875 447.261719 14.667969 C 446.761719 14.671875 446.394531 14.757812 446.160156 14.929688 C 445.925781 15.105469 445.75 15.414062 445.640625 15.855469 L 444.609375 15.714844 C 444.699219 15.273438 444.855469 14.917969 445.070312 14.644531 C 445.28125 14.378906 445.589844 14.167969 446 14.019531 C 446.402344 13.871094 446.875 13.796875 447.414062 13.796875 C 447.945312 13.796875 448.375 13.859375 448.707031 13.984375 C 449.039062 14.109375 449.285156 14.269531 449.441406 14.457031 C 449.597656 14.648438 449.707031 14.886719 449.769531 15.175781 C 449.800781 15.355469 449.816406 15.679688 449.820312 16.144531 L 449.820312 17.550781 C 449.816406 18.535156 449.839844 19.15625 449.886719 19.414062 C 449.933594 19.675781 450.023438 19.921875 450.15625 20.160156 L 449.054688 20.160156 C 448.945312 19.941406 448.875 19.6875 448.84375 19.394531 Z M 448.757812 17.035156 C 448.367188 17.195312 447.792969 17.328125 447.03125 17.433594 C 446.597656 17.5 446.292969 17.570312 446.113281 17.644531 C 445.933594 17.726562 445.792969 17.839844 445.695312 17.988281 C 445.597656 18.140625 445.550781 18.308594 445.550781 18.488281 C 445.550781 18.773438 445.65625 19.007812 445.867188 19.191406 C 446.078125 19.382812 446.390625 19.476562 446.804688 19.472656 C 447.210938 19.476562 447.570312 19.386719 447.886719 19.207031 C 448.203125 19.03125 448.4375 18.789062 448.585938 18.480469 C 448.699219 18.242188 448.753906 17.890625 448.757812 17.425781 Z M 451.03125 18.300781 L 452.078125 18.136719 C 452.132812 18.558594 452.296875 18.878906 452.566406 19.101562 C 452.832031 19.324219 453.207031 19.433594 453.6875 19.433594 C 454.171875 19.433594 454.53125 19.335938 454.765625 19.136719 C 455 18.941406 455.117188 18.710938 455.117188 18.441406 C 455.117188 18.207031 455.011719 18.019531 454.804688 17.878906 C 454.660156 17.789062 454.300781 17.667969 453.726562 17.523438 C 452.953125 17.328125 452.417969 17.160156 452.121094 17.015625 C 451.820312 16.875 451.59375 16.679688 451.441406 16.425781 C 451.285156 16.175781 451.207031 15.894531 451.210938 15.589844 C 451.207031 15.316406 451.269531 15.0625 451.398438 14.820312 C 451.523438 14.585938 451.699219 14.386719 451.917969 14.230469 C 452.082031 14.113281 452.304688 14.011719 452.589844 13.925781 C 452.871094 13.839844 453.175781 13.796875 453.5 13.796875 C 453.988281 13.796875 454.414062 13.867188 454.785156 14.007812 C 455.152344 14.148438 455.425781 14.339844 455.601562 14.582031 C 455.777344 14.824219 455.898438 15.144531 455.96875 15.542969 L 454.9375 15.683594 C 454.886719 15.363281 454.75 15.113281 454.527344 14.933594 C 454.300781 14.753906 453.984375 14.664062 453.578125 14.664062 C 453.089844 14.664062 452.746094 14.746094 452.539062 14.90625 C 452.328125 15.066406 452.222656 15.253906 452.226562 15.464844 C 452.222656 15.605469 452.265625 15.726562 452.359375 15.835938 C 452.4375 15.949219 452.574219 16.042969 452.761719 16.117188 C 452.867188 16.15625 453.175781 16.246094 453.695312 16.386719 C 454.4375 16.585938 454.957031 16.75 455.253906 16.875 C 455.542969 17.003906 455.777344 17.1875 455.949219 17.429688 C 456.117188 17.671875 456.199219 17.972656 456.203125 18.332031 C 456.199219 18.683594 456.097656 19.015625 455.894531 19.328125 C 455.6875 19.640625 455.390625 19.882812 455.003906 20.046875 C 454.617188 20.21875 454.179688 20.300781 453.695312 20.300781 C 452.882812 20.300781 452.265625 20.132812 451.84375 19.796875 C 451.417969 19.460938 451.148438 18.964844 451.03125 18.300781 Z M 461.714844 18.15625 L 462.804688 18.292969 C 462.632812 18.929688 462.3125 19.421875 461.847656 19.773438 C 461.382812 20.125 460.789062 20.300781 460.070312 20.300781 C 459.15625 20.300781 458.433594 20.023438 457.902344 19.460938 C 457.363281 18.90625 457.097656 18.117188 457.101562 17.101562 C 457.097656 16.054688 457.367188 15.242188 457.910156 14.664062 C 458.445312 14.085938 459.144531 13.796875 460.007812 13.796875 C 460.839844 13.796875 461.519531 14.082031 462.046875 14.648438 C 462.574219 15.214844 462.839844 16.011719 462.839844 17.035156 C 462.839844 17.101562 462.835938 17.195312 462.835938 17.316406 L 458.195312 17.316406 C 458.226562 18.003906 458.421875 18.527344 458.773438 18.890625 C 459.121094 19.253906 459.554688 19.433594 460.074219 19.433594 C 460.460938 19.433594 460.789062 19.332031 461.066406 19.128906 C 461.335938 18.925781 461.554688 18.601562 461.714844 18.15625 Z M 458.25 16.449219 L 461.726562 16.449219 C 461.679688 15.933594 461.546875 15.539062 461.328125 15.273438 C 460.992188 14.867188 460.554688 14.664062 460.023438 14.664062 C 459.535156 14.664062 459.128906 14.828125 458.800781 15.152344 C 458.46875 15.476562 458.285156 15.910156 458.25 16.449219 Z M 466.433594 19.214844 L 466.585938 20.148438 C 466.289062 20.210938 466.023438 20.242188 465.789062 20.242188 C 465.40625 20.242188 465.109375 20.183594 464.898438 20.0625 C 464.6875 19.941406 464.539062 19.78125 464.453125 19.582031 C 464.367188 19.386719 464.324219 18.972656 464.324219 18.339844 L 464.324219 14.757812 L 463.550781 14.757812 L 463.550781 13.9375 L 464.324219 13.9375 L 464.324219 12.394531 L 465.371094 11.761719 L 465.371094 13.9375 L 466.433594 13.9375 L 466.433594 14.757812 L 465.371094 14.757812 L 465.371094 18.394531 C 465.367188 18.699219 465.386719 18.890625 465.425781 18.976562 C 465.464844 19.0625 465.523438 19.132812 465.609375 19.183594 C 465.691406 19.234375 465.8125 19.257812 465.972656 19.257812 C 466.082031 19.257812 466.238281 19.246094 466.433594 19.214844 Z M 379.328125 9.296875 "/>
<path fill="none" stroke-width="1" stroke-linecap="butt" stroke-linejoin="miter" stroke="rgb(0%, 0%, 0%)" stroke-opacity="0.0980392" stroke-miterlimit="10" d="M 27 571.5 L 801 571.5 "/>
<path fill-rule="nonzero" fill="rgb(40%, 40%, 40%)" fill-opacity="1" d="M 61.882812 591.523438 L 62.910156 591.382812 C 62.9375 592.039062 63.058594 592.488281 63.28125 592.730469 C 63.496094 592.972656 63.800781 593.09375 64.1875 593.09375 C 64.472656 593.09375 64.71875 593.03125 64.925781 592.898438 C 65.128906 592.773438 65.269531 592.59375 65.351562 592.367188 C 65.425781 592.140625 65.464844 591.78125 65.46875 591.289062 L 65.46875 585.371094 L 66.609375 585.371094 L 66.609375 591.226562 C 66.605469 591.949219 66.519531 592.503906 66.347656 592.894531 C 66.171875 593.289062 65.894531 593.589844 65.519531 593.796875 C 65.136719 594.003906 64.695312 594.105469 64.195312 594.109375 C 63.4375 594.105469 62.859375 593.890625 62.460938 593.457031 C 62.054688 593.023438 61.863281 592.378906 61.882812 591.523438 Z M 72.390625 593.195312 C 72 593.527344 71.621094 593.761719 71.261719 593.898438 C 70.894531 594.035156 70.507812 594.101562 70.101562 594.101562 C 69.414062 594.101562 68.890625 593.9375 68.523438 593.601562 C 68.15625 593.273438 67.972656 592.84375 67.972656 592.320312 C 67.972656 592.015625 68.039062 591.738281 68.179688 591.488281 C 68.316406 591.238281 68.5 591.035156 68.726562 590.878906 C 68.949219 590.726562 69.203125 590.613281 69.484375 590.53125 C 69.691406 590.484375 70.003906 590.429688 70.421875 590.375 C 71.273438 590.273438 71.898438 590.152344 72.304688 590.011719 C 72.304688 589.871094 72.308594 589.78125 72.308594 589.734375 C 72.308594 589.3125 72.207031 589.007812 72.007812 588.828125 C 71.738281 588.589844 71.339844 588.472656 70.808594 588.46875 C 70.308594 588.472656 69.941406 588.558594 69.707031 588.730469 C 69.472656 588.90625 69.296875 589.214844 69.1875 589.65625 L 68.15625 589.515625 C 68.246094 589.074219 68.402344 588.71875 68.617188 588.445312 C 68.828125 588.179688 69.136719 587.96875 69.546875 587.820312 C 69.949219 587.671875 70.421875 587.597656 70.960938 587.597656 C 71.492188 587.597656 71.921875 587.660156 72.253906 587.785156 C 72.585938 587.910156 72.832031 588.070312 72.988281 588.257812 C 73.144531 588.449219 73.253906 588.6875 73.316406 588.976562 C 73.347656 589.15625 73.363281 589.480469 73.367188 589.945312 L 73.367188 591.351562 C 73.363281 592.335938 73.386719 592.957031 73.433594 593.214844 C 73.480469 593.476562 73.570312 593.722656 73.703125 593.960938 L 72.601562 593.960938 C 72.492188 593.742188 72.421875 593.488281 72.390625 593.195312 Z M 72.304688 590.835938 C 71.914062 590.996094 71.339844 591.128906 70.578125 591.234375 C 70.144531 591.300781 69.839844 591.371094 69.660156 591.445312 C 69.480469 591.527344 69.339844 591.640625 69.242188 591.789062 C 69.144531 591.941406 69.097656 592.109375 69.097656 592.289062 C 69.097656 592.574219 69.203125 592.808594 69.414062 592.992188 C 69.625 593.183594 69.9375 593.277344 70.351562 593.273438 C 70.757812 593.277344 71.117188 593.1875 71.433594 593.007812 C 71.75 592.832031 71.984375 592.589844 72.132812 592.28125 C 72.246094 592.042969 72.300781 591.691406 72.304688 591.226562 Z M 75 593.960938 L 75 587.738281 L 75.953125 587.738281 L 75.953125 588.625 C 76.40625 587.941406 77.066406 587.597656 77.929688 587.597656 C 78.300781 587.597656 78.644531 587.667969 78.964844 587.800781 C 79.277344 587.9375 79.515625 588.113281 79.671875 588.328125 C 79.828125 588.550781 79.9375 588.808594 80 589.109375 C 80.039062 589.304688 80.058594 589.648438 80.058594 590.132812 L 80.058594 593.960938 L 79.003906 593.960938 L 79.003906 590.175781 C 79.003906 589.746094 78.960938 589.425781 78.878906 589.210938 C 78.796875 589 78.652344 588.832031 78.445312 588.703125 C 78.234375 588.578125 77.988281 588.511719 77.710938 588.511719 C 77.257812 588.511719 76.871094 588.65625 76.542969 588.941406 C 76.214844 589.226562 76.050781 589.765625 76.054688 590.5625 L 76.054688 593.960938 Z M 85.753906 593.960938 L 85.753906 593.046875 C 85.265625 593.75 84.609375 594.101562 83.78125 594.101562 C 83.414062 594.101562 83.070312 594.03125 82.753906 593.890625 C 82.433594 593.75 82.195312 593.574219 82.042969 593.359375 C 81.886719 593.148438 81.78125 592.886719 81.71875 592.578125 C 81.671875 592.371094 81.648438 592.042969 81.652344 591.59375 L 81.652344 587.738281 L 82.707031 587.738281 L 82.707031 591.1875 C 82.703125 591.742188 82.726562 592.113281 82.773438 592.304688 C 82.835938 592.582031 82.976562 592.800781 83.195312 592.957031 C 83.410156 593.121094 83.675781 593.199219 83.992188 593.195312 C 84.304688 593.199219 84.601562 593.117188 84.882812 592.953125 C 85.160156 592.789062 85.355469 592.570312 85.472656 592.289062 C 85.585938 592.011719 85.644531 591.605469 85.644531 591.070312 L 85.644531 587.738281 L 86.699219 587.738281 L 86.699219 593.960938 Z M 92.414062 593.195312 C 92.023438 593.527344 91.644531 593.761719 91.285156 593.898438 C 90.917969 594.035156 90.53125 594.101562 90.125 594.101562 C 89.4375 594.101562 88.914062 593.9375 88.546875 593.601562 C 88.179688 593.273438 87.996094 592.84375 87.996094 592.320312 C 87.996094 592.015625 88.0625 591.738281 88.203125 591.488281 C 88.339844 591.238281 88.523438 591.035156 88.75 590.878906 C 88.972656 590.726562 89.226562 590.613281 89.507812 590.53125 C 89.714844 590.484375 90.027344 590.429688 90.445312 590.375 C 91.296875 590.273438 91.921875 590.152344 92.328125 590.011719 C 92.328125 589.871094 92.332031 589.78125 92.332031 589.734375 C 92.332031 589.3125 92.230469 589.007812 92.03125 588.828125 C 91.761719 588.589844 91.363281 588.472656 90.832031 588.46875 C 90.332031 588.472656 89.964844 588.558594 89.730469 588.730469 C 89.496094 588.90625 89.320312 589.214844 89.210938 589.65625 L 88.179688 589.515625 C 88.269531 589.074219 88.425781 588.71875 88.640625 588.445312 C 88.851562 588.179688 89.160156 587.96875 89.570312 587.820312 C 89.972656 587.671875 90.445312 587.597656 90.984375 587.597656 C 91.515625 587.597656 91.945312 587.660156 92.277344 587.785156 C 92.609375 587.910156 92.855469 588.070312 93.011719 588.257812 C 93.167969 588.449219 93.277344 588.6875 93.339844 588.976562 C 93.371094 589.15625 93.386719 589.480469 93.390625 589.945312 L 93.390625 591.351562 C 93.386719 592.335938 93.410156 592.957031 93.457031 593.214844 C 93.503906 593.476562 93.59375 593.722656 93.726562 593.960938 L 92.625 593.960938 C 92.515625 593.742188 92.445312 593.488281 92.414062 593.195312 Z M 92.328125 590.835938 C 91.9375 590.996094 91.363281 591.128906 90.601562 591.234375 C 90.167969 591.300781 89.863281 591.371094 89.683594 591.445312 C 89.503906 591.527344 89.363281 591.640625 89.265625 591.789062 C 89.167969 591.941406 89.121094 592.109375 89.121094 592.289062 C 89.121094 592.574219 89.226562 592.808594 89.4375 592.992188 C 89.648438 593.183594 89.960938 593.277344 90.375 593.273438 C 90.78125 593.277344 91.140625 593.1875 91.457031 593.007812 C 91.773438 592.832031 92.007812 592.589844 92.15625 592.28125 C 92.269531 592.042969 92.324219 591.691406 92.328125 591.226562 Z M 95.015625 593.960938 L 95.015625 587.738281 L 95.960938 587.738281 L 95.960938 588.679688 C 96.203125 588.242188 96.425781 587.949219 96.632812 587.808594 C 96.835938 587.667969 97.0625 587.597656 97.3125 587.597656 C 97.664062 587.597656 98.027344 587.710938 98.394531 587.9375 L 98.03125 588.914062 C 97.773438 588.765625 97.515625 588.6875 97.257812 588.6875 C 97.027344 588.6875 96.820312 588.757812 96.636719 588.894531 C 96.449219 589.035156 96.316406 589.226562 96.242188 589.472656 C 96.125 589.847656 96.066406 590.257812 96.070312 590.703125 L 96.070312 593.960938 Z M 98.972656 596.359375 L 98.855469 595.367188 C 99.085938 595.429688 99.289062 595.460938 99.460938 595.460938 C 99.695312 595.460938 99.882812 595.421875 100.023438 595.34375 C 100.164062 595.265625 100.277344 595.15625 100.371094 595.015625 C 100.433594 594.910156 100.542969 594.648438 100.691406 594.230469 C 100.710938 594.167969 100.742188 594.082031 100.785156 593.972656 L 98.425781 587.738281 L 99.558594 587.738281 L 100.855469 591.34375 C 101.019531 591.800781 101.167969 592.28125 101.308594 592.78125 C 101.425781 592.300781 101.570312 591.828125 101.738281 591.367188 L 103.070312 587.738281 L 104.125 587.738281 L 101.757812 594.066406 C 101.503906 594.75 101.304688 595.21875 101.167969 595.476562 C 100.976562 595.824219 100.761719 596.078125 100.523438 596.242188 C 100.277344 596.398438 99.988281 596.480469 99.652344 596.484375 C 99.445312 596.480469 99.21875 596.4375 98.972656 596.359375 Z M 61.539062 583.097656 "/>
<path fill-rule="nonzero" fill="rgb(40%, 40%, 40%)" fill-opacity="1" d="M 169.898438 593.960938 L 169.898438 585.371094 L 175.695312 585.371094 L 175.695312 586.382812 L 171.035156 586.382812 L 171.035156 589.046875 L 175.066406 589.046875 L 175.066406 590.058594 L 171.035156 590.058594 L 171.035156 593.960938 Z M 181.292969 591.957031 L 182.382812 592.09375 C 182.210938 592.730469 181.890625 593.222656 181.425781 593.574219 C 180.960938 593.925781 180.367188 594.101562 179.648438 594.101562 C 178.734375 594.101562 178.011719 593.824219 177.480469 593.261719 C 176.941406 592.707031 176.675781 591.917969 176.679688 590.902344 C 176.675781 589.855469 176.945312 589.042969 177.488281 588.464844 C 178.023438 587.886719 178.722656 587.597656 179.585938 587.597656 C 180.417969 587.597656 181.097656 587.882812 181.625 588.449219 C 182.152344 589.015625 182.417969 589.8125 182.417969 590.835938 C 182.417969 590.902344 182.414062 590.996094 182.414062 591.117188 L 177.773438 591.117188 C 177.804688 591.804688 178 592.328125 178.351562 592.691406 C 178.699219 593.054688 179.132812 593.234375 179.652344 593.234375 C 180.039062 593.234375 180.367188 593.132812 180.644531 592.929688 C 180.914062 592.726562 181.132812 592.402344 181.292969 591.957031 Z M 177.828125 590.25 L 181.304688 590.25 C 181.257812 589.734375 181.125 589.339844 180.90625 589.074219 C 180.570312 588.667969 180.132812 588.464844 179.601562 588.464844 C 179.113281 588.464844 178.707031 588.628906 178.378906 588.953125 C 178.046875 589.277344 177.863281 589.710938 177.828125 590.25 Z M 184.683594 593.960938 L 183.703125 593.960938 L 183.703125 585.371094 L 184.757812 585.371094 L 184.757812 588.4375 C 185.203125 587.878906 185.769531 587.597656 186.464844 587.597656 C 186.839844 587.597656 187.203125 587.675781 187.546875 587.832031 C 187.890625 587.988281 188.171875 588.207031 188.390625 588.480469 C 188.609375 588.761719 188.78125 589.097656 188.910156 589.492188 C 189.03125 589.886719 189.09375 590.308594 189.097656 590.757812 C 189.09375 591.824219 188.832031 592.648438 188.308594 593.230469 C 187.78125 593.8125 187.148438 594.101562 186.410156 594.101562 C 185.675781 594.101562 185.097656 593.796875 184.683594 593.179688 Z M 184.667969 590.804688 C 184.664062 591.550781 184.765625 592.089844 184.972656 592.421875 C 185.304688 592.964844 185.753906 593.234375 186.324219 593.234375 C 186.777344 593.234375 187.175781 593.035156 187.515625 592.632812 C 187.847656 592.234375 188.015625 591.636719 188.019531 590.84375 C 188.015625 590.03125 187.855469 589.433594 187.535156 589.046875 C 187.214844 588.660156 186.824219 588.464844 186.371094 588.464844 C 185.902344 588.464844 185.503906 588.667969 185.171875 589.066406 C 184.832031 589.46875 184.664062 590.046875 184.667969 590.804688 Z M 190.375 593.960938 L 190.375 587.738281 L 191.320312 587.738281 L 191.320312 588.679688 C 191.5625 588.242188 191.785156 587.949219 191.992188 587.808594 C 192.195312 587.667969 192.421875 587.597656 192.671875 587.597656 C 193.023438 587.597656 193.386719 587.710938 193.753906 587.9375 L 193.390625 588.914062 C 193.132812 588.765625 192.875 588.6875 192.617188 588.6875 C 192.386719 588.6875 192.179688 588.757812 191.996094 588.894531 C 191.808594 589.035156 191.675781 589.226562 191.601562 589.472656 C 191.484375 589.847656 191.425781 590.257812 191.429688 590.703125 L 191.429688 593.960938 Z M 198.453125 593.960938 L 198.453125 593.046875 C 197.964844 593.75 197.308594 594.101562 196.480469 594.101562 C 196.113281 594.101562 195.769531 594.03125 195.453125 593.890625 C 195.132812 593.75 194.894531 593.574219 194.742188 593.359375 C 194.585938 593.148438 194.480469 592.886719 194.417969 592.578125 C 194.371094 592.371094 194.347656 592.042969 194.351562 591.59375 L 194.351562 587.738281 L 195.40625 587.738281 L 195.40625 591.1875 C 195.402344 591.742188 195.425781 592.113281 195.472656 592.304688 C 195.535156 592.582031 195.675781 592.800781 195.894531 592.957031 C 196.109375 593.121094 196.375 593.199219 196.691406 593.195312 C 197.003906 593.199219 197.300781 593.117188 197.582031 592.953125 C 197.859375 592.789062 198.054688 592.570312 198.171875 592.289062 C 198.285156 592.011719 198.34375 591.605469 198.34375 591.070312 L 198.34375 587.738281 L 199.398438 587.738281 L 199.398438 593.960938 Z M 205.113281 593.195312 C 204.722656 593.527344 204.34375 593.761719 203.984375 593.898438 C 203.617188 594.035156 203.230469 594.101562 202.824219 594.101562 C 202.136719 594.101562 201.613281 593.9375 201.246094 593.601562 C 200.878906 593.273438 200.695312 592.84375 200.695312 592.320312 C 200.695312 592.015625 200.761719 591.738281 200.902344 591.488281 C 201.039062 591.238281 201.222656 591.035156 201.449219 590.878906 C 201.671875 590.726562 201.925781 590.613281 202.207031 590.53125 C 202.414062 590.484375 202.726562 590.429688 203.144531 590.375 C 203.996094 590.273438 204.621094 590.152344 205.027344 590.011719 C 205.027344 589.871094 205.03125 589.78125 205.03125 589.734375 C 205.03125 589.3125 204.929688 589.007812 204.730469 588.828125 C 204.460938 588.589844 204.0625 588.472656 203.53125 588.46875 C 203.03125 588.472656 202.664062 588.558594 202.429688 588.730469 C 202.195312 588.90625 202.019531 589.214844 201.910156 589.65625 L 200.878906 589.515625 C 200.96875 589.074219 201.125 588.71875 201.339844 588.445312 C 201.550781 588.179688 201.859375 587.96875 202.269531 587.820312 C 202.671875 587.671875 203.144531 587.597656 203.683594 587.597656 C 204.214844 587.597656 204.644531 587.660156 204.976562 587.785156 C 205.308594 587.910156 205.554688 588.070312 205.710938 588.257812 C 205.867188 588.449219 205.976562 588.6875 206.039062 588.976562 C 206.070312 589.15625 206.085938 589.480469 206.089844 589.945312 L 206.089844 591.351562 C 206.085938 592.335938 206.109375 592.957031 206.15625 593.214844 C 206.203125 593.476562 206.292969 593.722656 206.425781 593.960938 L 205.324219 593.960938 C 205.214844 593.742188 205.144531 593.488281 205.113281 593.195312 Z M 205.027344 590.835938 C 204.636719 590.996094 204.0625 591.128906 203.300781 591.234375 C 202.867188 591.300781 202.5625 591.371094 202.382812 591.445312 C 202.203125 591.527344 202.0625 591.640625 201.964844 591.789062 C 201.867188 591.941406 201.820312 592.109375 201.820312 592.289062 C 201.820312 592.574219 201.925781 592.808594 202.136719 592.992188 C 202.347656 593.183594 202.660156 593.277344 203.074219 593.273438 C 203.480469 593.277344 203.839844 593.1875 204.15625 593.007812 C 204.472656 592.832031 204.707031 592.589844 204.855469 592.28125 C 204.96875 592.042969 205.023438 591.691406 205.027344 591.226562 Z M 207.71875 593.960938 L 207.71875 587.738281 L 208.664062 587.738281 L 208.664062 588.679688 C 208.90625 588.242188 209.128906 587.949219 209.335938 587.808594 C 209.539062 587.667969 209.765625 587.597656 210.015625 587.597656 C 210.367188 587.597656 210.730469 587.710938 211.097656 587.9375 L 210.734375 588.914062 C 210.476562 588.765625 210.21875 588.6875 209.960938 588.6875 C 209.730469 588.6875 209.523438 588.757812 209.339844 588.894531 C 209.152344 589.035156 209.019531 589.226562 208.945312 589.472656 C 208.828125 589.847656 208.769531 590.257812 208.773438 590.703125 L 208.773438 593.960938 Z M 211.671875 596.359375 L 211.554688 595.367188 C 211.785156 595.429688 211.988281 595.460938 212.160156 595.460938 C 212.394531 595.460938 212.582031 595.421875 212.722656 595.34375 C 212.863281 595.265625 212.976562 595.15625 213.070312 595.015625 C 213.132812 594.910156 213.242188 594.648438 213.390625 594.230469 C 213.410156 594.167969 213.441406 594.082031 213.484375 593.972656 L 211.125 587.738281 L 212.257812 587.738281 L 213.554688 591.34375 C 213.71875 591.800781 213.867188 592.28125 214.007812 592.78125 C 214.125 592.300781 214.269531 591.828125 214.4375 591.367188 L 215.769531 587.738281 L 216.824219 587.738281 L 214.457031 594.066406 C 214.203125 594.75 214.003906 595.21875 213.867188 595.476562 C 213.675781 595.824219 213.460938 596.078125 213.222656 596.242188 C 212.976562 596.398438 212.6875 596.480469 212.351562 596.484375 C 212.144531 596.480469 211.917969 596.4375 211.671875 596.359375 Z M 168.914062 583.097656 "/>
<path fill-rule="nonzero" fill="rgb(40%, 40%, 40%)" fill-opacity="1" d="M 287.1875 593.960938 L 287.1875 585.371094 L 288.898438 585.371094 L 290.929688 591.453125 C 291.113281 592.023438 291.25 592.449219 291.34375 592.726562 C 291.4375 592.417969 291.589844 591.957031 291.796875 591.347656 L 293.855469 585.371094 L 295.382812 585.371094 L 295.382812 593.960938 L 294.289062 593.960938 L 294.289062 586.773438 L 291.792969 593.960938 L 290.765625 593.960938 L 288.28125 586.648438 L 288.28125 593.960938 Z M 301.144531 593.195312 C 300.753906 593.527344 300.375 593.761719 300.015625 593.898438 C 299.648438 594.035156 299.261719 594.101562 298.855469 594.101562 C 298.167969 594.101562 297.644531 593.9375 297.277344 593.601562 C 296.910156 593.273438 296.726562 592.84375 296.726562 592.320312 C 296.726562 592.015625 296.792969 591.738281 296.933594 591.488281 C 297.070312 591.238281 297.253906 591.035156 297.480469 590.878906 C 297.703125 590.726562 297.957031 590.613281 298.238281 590.53125 C 298.445312 590.484375 298.757812 590.429688 299.175781 590.375 C 300.027344 590.273438 300.652344 590.152344 301.058594 590.011719 C 301.058594 589.871094 301.0625 589.78125 301.0625 589.734375 C 301.0625 589.3125 300.960938 589.007812 300.761719 588.828125 C 300.492188 588.589844 300.09375 588.472656 299.5625 588.46875 C 299.0625 588.472656 298.695312 588.558594 298.460938 588.730469 C 298.226562 588.90625 298.050781 589.214844 297.941406 589.65625 L 296.910156 589.515625 C 297 589.074219 297.15625 588.71875 297.371094 588.445312 C 297.582031 588.179688 297.890625 587.96875 298.300781 587.820312 C 298.703125 587.671875 299.175781 587.597656 299.714844 587.597656 C 300.246094 587.597656 300.675781 587.660156 301.007812 587.785156 C 301.339844 587.910156 301.585938 588.070312 301.742188 588.257812 C 301.898438 588.449219 302.007812 588.6875 302.070312 588.976562 C 302.101562 589.15625 302.117188 589.480469 302.121094 589.945312 L 302.121094 591.351562 C 302.117188 592.335938 302.140625 592.957031 302.1875 593.214844 C 302.234375 593.476562 302.324219 593.722656 302.457031 593.960938 L 301.355469 593.960938 C 301.246094 593.742188 301.175781 593.488281 301.144531 593.195312 Z M 301.058594 590.835938 C 300.667969 590.996094 300.09375 591.128906 299.332031 591.234375 C 298.898438 591.300781 298.59375 591.371094 298.414062 591.445312 C 298.234375 591.527344 298.09375 591.640625 297.996094 591.789062 C 297.898438 591.941406 297.851562 592.109375 297.851562 592.289062 C 297.851562 592.574219 297.957031 592.808594 298.167969 592.992188 C 298.378906 593.183594 298.691406 593.277344 299.105469 593.273438 C 299.511719 593.277344 299.871094 593.1875 300.1875 593.007812 C 300.503906 592.832031 300.738281 592.589844 300.886719 592.28125 C 301 592.042969 301.054688 591.691406 301.058594 591.226562 Z M 303.75 593.960938 L 303.75 587.738281 L 304.695312 587.738281 L 304.695312 588.679688 C 304.9375 588.242188 305.160156 587.949219 305.367188 587.808594 C 305.570312 587.667969 305.796875 587.597656 306.046875 587.597656 C 306.398438 587.597656 306.761719 587.710938 307.128906 587.9375 L 306.765625 588.914062 C 306.507812 588.765625 306.25 588.6875 305.992188 588.6875 C 305.761719 588.6875 305.554688 588.757812 305.371094 588.894531 C 305.183594 589.035156 305.050781 589.226562 304.976562 589.472656 C 304.859375 589.847656 304.800781 590.257812 304.804688 590.703125 L 304.804688 593.960938 Z M 311.8125 591.679688 L 312.851562 591.816406 C 312.734375 592.535156 312.445312 593.097656 311.980469 593.496094 C 311.511719 593.902344 310.9375 594.101562 310.257812 594.101562 C 309.40625 594.101562 308.722656 593.824219 308.207031 593.265625 C 307.6875 592.710938 307.429688 591.914062 307.429688 590.875 C 307.429688 590.207031 307.539062 589.617188 307.761719 589.109375 C 307.984375 588.605469 308.324219 588.230469 308.777344 587.976562 C 309.230469 587.726562 309.726562 587.597656 310.265625 587.597656 C 310.941406 587.597656 311.492188 587.769531 311.925781 588.113281 C 312.351562 588.457031 312.628906 588.941406 312.75 589.566406 L 311.726562 589.726562 C 311.625 589.308594 311.453125 588.992188 311.207031 588.78125 C 310.957031 588.570312 310.65625 588.464844 310.304688 588.464844 C 309.769531 588.464844 309.339844 588.65625 309.011719 589.039062 C 308.679688 589.421875 308.511719 590.023438 308.515625 590.84375 C 308.511719 591.679688 308.671875 592.289062 308.996094 592.667969 C 309.3125 593.046875 309.730469 593.234375 310.25 593.234375 C 310.65625 593.234375 311.003906 593.109375 311.285156 592.855469 C 311.5625 592.601562 311.738281 592.210938 311.8125 591.679688 Z M 313.75 593.960938 L 313.75 585.371094 L 314.804688 585.371094 L 314.804688 588.453125 C 315.296875 587.882812 315.917969 587.597656 316.671875 587.597656 C 317.125 587.597656 317.527344 587.691406 317.871094 587.871094 C 318.210938 588.054688 318.453125 588.304688 318.601562 588.621094 C 318.746094 588.945312 318.820312 589.410156 318.820312 590.015625 L 318.820312 593.960938 L 317.765625 593.960938 L 317.765625 590.015625 C 317.765625 589.492188 317.648438 589.109375 317.421875 588.867188 C 317.1875 588.632812 316.867188 588.511719 316.453125 588.507812 C 316.140625 588.511719 315.84375 588.59375 315.570312 588.75 C 315.289062 588.914062 315.09375 589.132812 314.980469 589.410156 C 314.859375 589.6875 314.800781 590.070312 314.804688 590.554688 L 314.804688 593.960938 Z M 286.296875 583.097656 "/>
<path fill-rule="nonzero" fill="rgb(40%, 40%, 40%)" fill-opacity="1" d="M 401.65625 593.960938 L 404.953125 585.371094 L 406.179688 585.371094 L 409.695312 593.960938 L 408.398438 593.960938 L 407.398438 591.359375 L 403.804688 591.359375 L 402.859375 593.960938 Z M 404.132812 590.433594 L 407.046875 590.433594 L 406.148438 588.054688 C 405.875 587.332031 405.671875 586.738281 405.539062 586.273438 C 405.429688 586.828125 405.273438 587.375 405.078125 587.914062 Z M 410.464844 596.34375 L 410.464844 587.738281 L 411.425781 587.738281 L 411.425781 588.546875 C 411.652344 588.230469 411.910156 587.996094 412.195312 587.835938 C 412.476562 587.679688 412.820312 587.597656 413.230469 587.597656 C 413.757812 587.597656 414.226562 587.734375 414.636719 588.007812 C 415.039062 588.28125 415.347656 588.667969 415.558594 589.167969 C 415.765625 589.667969 415.867188 590.214844 415.871094 590.804688 C 415.867188 591.441406 415.753906 592.015625 415.527344 592.523438 C 415.296875 593.039062 414.964844 593.429688 414.53125 593.695312 C 414.09375 593.96875 413.636719 594.101562 413.15625 594.101562 C 412.804688 594.101562 412.488281 594.027344 412.210938 593.878906 C 411.929688 593.730469 411.699219 593.542969 411.519531 593.316406 L 411.519531 596.34375 Z M 411.421875 590.882812 C 411.421875 591.6875 411.582031 592.277344 411.90625 592.660156 C 412.230469 593.042969 412.625 593.234375 413.085938 593.234375 C 413.554688 593.234375 413.953125 593.039062 414.289062 592.640625 C 414.621094 592.25 414.789062 591.632812 414.792969 590.796875 C 414.789062 590.007812 414.625 589.414062 414.300781 589.015625 C 413.972656 588.621094 413.585938 588.425781 413.132812 588.421875 C 412.679688 588.425781 412.28125 588.636719 411.9375 589.054688 C 411.59375 589.476562 411.421875 590.085938 411.421875 590.882812 Z M 417.132812 593.960938 L 417.132812 587.738281 L 418.078125 587.738281 L 418.078125 588.679688 C 418.320312 588.242188 418.542969 587.949219 418.75 587.808594 C 418.953125 587.667969 419.179688 587.597656 419.429688 587.597656 C 419.78125 587.597656 420.144531 587.710938 420.511719 587.9375 L 420.148438 588.914062 C 419.890625 588.765625 419.632812 588.6875 419.375 588.6875 C 419.144531 588.6875 418.9375 588.757812 418.753906 588.894531 C 418.566406 589.035156 418.433594 589.226562 418.359375 589.472656 C 418.242188 589.847656 418.183594 590.257812 418.1875 590.703125 L 418.1875 593.960938 Z M 421.140625 586.585938 L 421.140625 585.371094 L 422.195312 585.371094 L 422.195312 586.585938 Z M 421.140625 593.960938 L 421.140625 587.738281 L 422.195312 587.738281 L 422.195312 593.960938 Z M 423.777344 593.960938 L 423.777344 585.371094 L 424.832031 585.371094 L 424.832031 593.960938 Z M 401.671875 583.097656 "/>
<path fill-rule="nonzero" fill="rgb(40%, 40%, 40%)" fill-opacity="1" d="M 513.945312 593.960938 L 513.945312 585.371094 L 515.65625 585.371094 L 517.6875 591.453125 C 517.871094 592.023438 518.007812 592.449219 518.101562 592.726562 C 518.195312 592.417969 518.347656 591.957031 518.554688 591.347656 L 520.613281 585.371094 L 522.140625 585.371094 L 522.140625 593.960938 L 521.046875 593.960938 L 521.046875 586.773438 L 518.550781 593.960938 L 517.523438 593.960938 L 515.039062 586.648438 L 515.039062 593.960938 Z M 527.902344 593.195312 C 527.511719 593.527344 527.132812 593.761719 526.773438 593.898438 C 526.40625 594.035156 526.019531 594.101562 525.613281 594.101562 C 524.925781 594.101562 524.402344 593.9375 524.035156 593.601562 C 523.667969 593.273438 523.484375 592.84375 523.484375 592.320312 C 523.484375 592.015625 523.550781 591.738281 523.691406 591.488281 C 523.828125 591.238281 524.011719 591.035156 524.238281 590.878906 C 524.460938 590.726562 524.714844 590.613281 524.996094 590.53125 C 525.203125 590.484375 525.515625 590.429688 525.933594 590.375 C 526.785156 590.273438 527.410156 590.152344 527.816406 590.011719 C 527.816406 589.871094 527.820312 589.78125 527.820312 589.734375 C 527.820312 589.3125 527.71875 589.007812 527.519531 588.828125 C 527.25 588.589844 526.851562 588.472656 526.320312 588.46875 C 525.820312 588.472656 525.453125 588.558594 525.21875 588.730469 C 524.984375 588.90625 524.808594 589.214844 524.699219 589.65625 L 523.667969 589.515625 C 523.757812 589.074219 523.914062 588.71875 524.128906 588.445312 C 524.339844 588.179688 524.648438 587.96875 525.058594 587.820312 C 525.460938 587.671875 525.933594 587.597656 526.472656 587.597656 C 527.003906 587.597656 527.433594 587.660156 527.765625 587.785156 C 528.097656 587.910156 528.34375 588.070312 528.5 588.257812 C 528.65625 588.449219 528.765625 588.6875 528.828125 588.976562 C 528.859375 589.15625 528.875 589.480469 528.878906 589.945312 L 528.878906 591.351562 C 528.875 592.335938 528.898438 592.957031 528.945312 593.214844 C 528.992188 593.476562 529.082031 593.722656 529.214844 593.960938 L 528.113281 593.960938 C 528.003906 593.742188 527.933594 593.488281 527.902344 593.195312 Z M 527.816406 590.835938 C 527.425781 590.996094 526.851562 591.128906 526.089844 591.234375 C 525.65625 591.300781 525.351562 591.371094 525.171875 591.445312 C 524.992188 591.527344 524.851562 591.640625 524.753906 591.789062 C 524.65625 591.941406 524.609375 592.109375 524.609375 592.289062 C 524.609375 592.574219 524.714844 592.808594 524.925781 592.992188 C 525.136719 593.183594 525.449219 593.277344 525.863281 593.273438 C 526.269531 593.277344 526.628906 593.1875 526.945312 593.007812 C 527.261719 592.832031 527.496094 592.589844 527.644531 592.28125 C 527.757812 592.042969 527.8125 591.691406 527.816406 591.226562 Z M 530.46875 596.359375 L 530.351562 595.367188 C 530.582031 595.429688 530.785156 595.460938 530.957031 595.460938 C 531.191406 595.460938 531.378906 595.421875 531.519531 595.34375 C 531.660156 595.265625 531.773438 595.15625 531.867188 595.015625 C 531.929688 594.910156 532.039062 594.648438 532.1875 594.230469 C 532.207031 594.167969 532.238281 594.082031 532.28125 593.972656 L 529.921875 587.738281 L 531.054688 587.738281 L 532.351562 591.34375 C 532.515625 591.800781 532.664062 592.28125 532.804688 592.78125 C 532.921875 592.300781 533.066406 591.828125 533.234375 591.367188 L 534.566406 587.738281 L 535.621094 587.738281 L 533.253906 594.066406 C 533 594.75 532.800781 595.21875 532.664062 595.476562 C 532.472656 595.824219 532.257812 596.078125 532.019531 596.242188 C 531.773438 596.398438 531.484375 596.480469 531.148438 596.484375 C 530.941406 596.480469 530.714844 596.4375 530.46875 596.359375 Z M 513.054688 583.097656 "/>
<path fill-rule="nonzero" fill="rgb(40%, 40%, 40%)" fill-opacity="1" d="M 621.773438 591.523438 L 622.800781 591.382812 C 622.828125 592.039062 622.949219 592.488281 623.171875 592.730469 C 623.386719 592.972656 623.691406 593.09375 624.078125 593.09375 C 624.363281 593.09375 624.609375 593.03125 624.816406 592.898438 C 625.019531 592.773438 625.160156 592.59375 625.242188 592.367188 C 625.316406 592.140625 625.355469 591.78125 625.359375 591.289062 L 625.359375 585.371094 L 626.5 585.371094 L 626.5 591.226562 C 626.496094 591.949219 626.410156 592.503906 626.238281 592.894531 C 626.0625 593.289062 625.785156 593.589844 625.410156 593.796875 C 625.027344 594.003906 624.585938 594.105469 624.085938 594.109375 C 623.328125 594.105469 622.75 593.890625 622.351562 593.457031 C 621.945312 593.023438 621.753906 592.378906 621.773438 591.523438 Z M 632.296875 593.960938 L 632.296875 593.046875 C 631.808594 593.75 631.152344 594.101562 630.324219 594.101562 C 629.957031 594.101562 629.613281 594.03125 629.296875 593.890625 C 628.976562 593.75 628.738281 593.574219 628.585938 593.359375 C 628.429688 593.148438 628.324219 592.886719 628.261719 592.578125 C 628.214844 592.371094 628.191406 592.042969 628.195312 591.59375 L 628.195312 587.738281 L 629.25 587.738281 L 629.25 591.1875 C 629.246094 591.742188 629.269531 592.113281 629.316406 592.304688 C 629.378906 592.582031 629.519531 592.800781 629.738281 592.957031 C 629.953125 593.121094 630.21875 593.199219 630.535156 593.195312 C 630.847656 593.199219 631.144531 593.117188 631.425781 592.953125 C 631.703125 592.789062 631.898438 592.570312 632.015625 592.289062 C 632.128906 592.011719 632.1875 591.605469 632.1875 591.070312 L 632.1875 587.738281 L 633.242188 587.738281 L 633.242188 593.960938 Z M 634.890625 593.960938 L 634.890625 587.738281 L 635.84375 587.738281 L 635.84375 588.625 C 636.296875 587.941406 636.957031 587.597656 637.820312 587.597656 C 638.191406 587.597656 638.535156 587.667969 638.855469 587.800781 C 639.167969 587.9375 639.40625 588.113281 639.5625 588.328125 C 639.71875 588.550781 639.828125 588.808594 639.890625 589.109375 C 639.929688 589.304688 639.949219 589.648438 639.949219 590.132812 L 639.949219 593.960938 L 638.894531 593.960938 L 638.894531 590.175781 C 638.894531 589.746094 638.851562 589.425781 638.769531 589.210938 C 638.6875 589 638.542969 588.832031 638.335938 588.703125 C 638.125 588.578125 637.878906 588.511719 637.601562 588.511719 C 637.148438 588.511719 636.761719 588.65625 636.433594 588.941406 C 636.105469 589.226562 635.941406 589.765625 635.945312 590.5625 L 635.945312 593.960938 Z M 645.828125 591.957031 L 646.917969 592.09375 C 646.746094 592.730469 646.425781 593.222656 645.960938 593.574219 C 645.496094 593.925781 644.902344 594.101562 644.183594 594.101562 C 643.269531 594.101562 642.546875 593.824219 642.015625 593.261719 C 641.476562 592.707031 641.210938 591.917969 641.214844 590.902344 C 641.210938 589.855469 641.480469 589.042969 642.023438 588.464844 C 642.558594 587.886719 643.257812 587.597656 644.121094 587.597656 C 644.953125 587.597656 645.632812 587.882812 646.160156 588.449219 C 646.6875 589.015625 646.953125 589.8125 646.953125 590.835938 C 646.953125 590.902344 646.949219 590.996094 646.949219 591.117188 L 642.308594 591.117188 C 642.339844 591.804688 642.535156 592.328125 642.886719 592.691406 C 643.234375 593.054688 643.667969 593.234375 644.1875 593.234375 C 644.574219 593.234375 644.902344 593.132812 645.179688 592.929688 C 645.449219 592.726562 645.667969 592.402344 645.828125 591.957031 Z M 642.363281 590.25 L 645.839844 590.25 C 645.792969 589.734375 645.660156 589.339844 645.441406 589.074219 C 645.105469 588.667969 644.667969 588.464844 644.136719 588.464844 C 643.648438 588.464844 643.242188 588.628906 642.914062 588.953125 C 642.582031 589.277344 642.398438 589.710938 642.363281 590.25 Z M 621.429688 583.097656 "/>
<path fill-rule="nonzero" fill="rgb(40%, 40%, 40%)" fill-opacity="1" d="M 737.15625 591.523438 L 738.183594 591.382812 C 738.210938 592.039062 738.332031 592.488281 738.554688 592.730469 C 738.769531 592.972656 739.074219 593.09375 739.460938 593.09375 C 739.746094 593.09375 739.992188 593.03125 740.199219 592.898438 C 740.402344 592.773438 740.542969 592.59375 740.625 592.367188 C 740.699219 592.140625 740.738281 591.78125 740.742188 591.289062 L 740.742188 585.371094 L 741.882812 585.371094 L 741.882812 591.226562 C 741.878906 591.949219 741.792969 592.503906 741.621094 592.894531 C 741.445312 593.289062 741.167969 593.589844 740.792969 593.796875 C 740.410156 594.003906 739.96875 594.105469 739.46875 594.109375 C 738.710938 594.105469 738.132812 593.890625 737.734375 593.457031 C 737.328125 593.023438 737.136719 592.378906 737.15625 591.523438 Z M 747.679688 593.960938 L 747.679688 593.046875 C 747.191406 593.75 746.535156 594.101562 745.707031 594.101562 C 745.339844 594.101562 744.996094 594.03125 744.679688 593.890625 C 744.359375 593.75 744.121094 593.574219 743.96875 593.359375 C 743.8125 593.148438 743.707031 592.886719 743.644531 592.578125 C 743.597656 592.371094 743.574219 592.042969 743.578125 591.59375 L 743.578125 587.738281 L 744.632812 587.738281 L 744.632812 591.1875 C 744.628906 591.742188 744.652344 592.113281 744.699219 592.304688 C 744.761719 592.582031 744.902344 592.800781 745.121094 592.957031 C 745.335938 593.121094 745.601562 593.199219 745.917969 593.195312 C 746.230469 593.199219 746.527344 593.117188 746.808594 592.953125 C 747.085938 592.789062 747.28125 592.570312 747.398438 592.289062 C 747.511719 592.011719 747.570312 591.605469 747.570312 591.070312 L 747.570312 587.738281 L 748.625 587.738281 L 748.625 593.960938 Z M 750.25 593.960938 L 750.25 585.371094 L 751.304688 585.371094 L 751.304688 593.960938 Z M 736.8125 583.097656 "/>
<path fill="none" stroke-width="1" stroke-linecap="butt" stroke-linejoin="miter" stroke="rgb(0%, 0%, 0%)" stroke-opacity="0.0980392" stroke-miterlimit="10" d="M 27.5 32 L 27.5 572 "/>
<path fill-rule="nonzero" fill="rgb(40%, 40%, 40%)" fill-opacity="1" d="M 9.847656 571.527344 C 9.84375 570.515625 9.949219 569.699219 10.160156 569.074219 C 10.367188 568.457031 10.675781 567.976562 11.089844 567.640625 C 11.496094 567.304688 12.015625 567.136719 12.644531 567.136719 C 13.105469 567.136719 13.511719 567.230469 13.859375 567.414062 C 14.203125 567.601562 14.488281 567.871094 14.71875 568.21875 C 14.941406 568.570312 15.121094 568.996094 15.253906 569.496094 C 15.382812 570 15.445312 570.675781 15.449219 571.527344 C 15.445312 572.535156 15.34375 573.347656 15.136719 573.964844 C 14.925781 574.585938 14.613281 575.066406 14.207031 575.402344 C 13.792969 575.742188 13.273438 575.90625 12.644531 575.910156 C 11.8125 575.90625 11.164062 575.613281 10.695312 575.019531 C 10.128906 574.304688 9.84375 573.140625 9.847656 571.527344 Z M 10.929688 571.527344 C 10.929688 572.9375 11.09375 573.875 11.421875 574.34375 C 11.75 574.8125 12.15625 575.046875 12.644531 575.042969 C 13.125 575.046875 13.53125 574.8125 13.867188 574.339844 C 14.195312 573.875 14.363281 572.9375 14.363281 571.527344 C 14.363281 570.113281 14.195312 569.171875 13.867188 568.707031 C 13.53125 568.246094 13.121094 568.015625 12.636719 568.011719 C 12.148438 568.015625 11.761719 568.21875 11.472656 568.625 C 11.109375 569.148438 10.929688 570.117188 10.929688 571.527344 Z M 9.347656 564.898438 "/>
<path fill-rule="nonzero" fill="rgb(40%, 40%, 40%)" fill-opacity="1" d="M 6.816406 515.804688 L 5.761719 515.804688 L 5.761719 509.085938 C 5.507812 509.328125 5.175781 509.570312 4.761719 509.808594 C 4.347656 510.054688 3.976562 510.234375 3.652344 510.355469 L 3.652344 509.335938 C 4.242188 509.0625 4.757812 508.726562 5.199219 508.328125 C 5.640625 507.933594 5.953125 507.550781 6.136719 507.179688 L 6.816406 507.179688 Z M 9.523438 511.570312 C 9.519531 510.558594 9.625 509.742188 9.835938 509.117188 C 10.042969 508.5 10.351562 508.019531 10.765625 507.683594 C 11.171875 507.347656 11.691406 507.179688 12.320312 507.179688 C 12.78125 507.179688 13.1875 507.273438 13.535156 507.457031 C 13.878906 507.644531 14.164062 507.914062 14.394531 508.261719 C 14.617188 508.613281 14.796875 509.039062 14.929688 509.539062 C 15.058594 510.042969 15.121094 510.71875 15.125 511.570312 C 15.121094 512.578125 15.019531 513.390625 14.8125 514.007812 C 14.601562 514.628906 14.289062 515.109375 13.882812 515.445312 C 13.46875 515.785156 12.949219 515.949219 12.320312 515.953125 C 11.488281 515.949219 10.839844 515.65625 10.371094 515.0625 C 9.804688 514.347656 9.519531 513.183594 9.523438 511.570312 Z M 10.605469 511.570312 C 10.605469 512.980469 10.769531 513.917969 11.097656 514.386719 C 11.425781 514.855469 11.832031 515.089844 12.320312 515.085938 C 12.800781 515.089844 13.207031 514.855469 13.542969 514.382812 C 13.871094 513.917969 14.039062 512.980469 14.039062 511.570312 C 14.039062 510.15625 13.871094 509.214844 13.542969 508.75 C 13.207031 508.289062 12.796875 508.058594 12.3125 508.054688 C 11.824219 508.058594 11.4375 508.261719 11.148438 508.667969 C 10.785156 509.191406 10.605469 510.160156 10.605469 511.570312 Z M 2.347656 504.941406 "/>
<path fill-rule="nonzero" fill="rgb(40%, 40%, 40%)" fill-opacity="1" d="M 8.386719 454.832031 L 8.386719 455.847656 L 2.710938 455.847656 C 2.703125 455.59375 2.742188 455.351562 2.832031 455.113281 C 2.976562 454.730469 3.207031 454.347656 3.527344 453.972656 C 3.839844 453.597656 4.300781 453.164062 4.910156 452.671875 C 5.839844 451.90625 6.472656 451.300781 6.800781 450.855469 C 7.128906 450.410156 7.292969 449.988281 7.292969 449.582031 C 7.292969 449.167969 7.140625 448.816406 6.84375 448.527344 C 6.539062 448.246094 6.152344 448.101562 5.675781 448.097656 C 5.167969 448.101562 4.761719 448.253906 4.457031 448.554688 C 4.152344 448.863281 3.996094 449.285156 3.996094 449.816406 L 2.910156 449.707031 C 2.980469 448.902344 3.257812 448.289062 3.746094 447.859375 C 4.226562 447.4375 4.878906 447.222656 5.699219 447.222656 C 6.519531 447.222656 7.171875 447.453125 7.65625 447.910156 C 8.136719 448.367188 8.375 448.933594 8.378906 449.605469 C 8.375 449.953125 8.304688 450.289062 8.167969 450.621094 C 8.023438 450.957031 7.789062 451.308594 7.464844 451.671875 C 7.136719 452.042969 6.597656 452.546875 5.839844 453.183594 C 5.207031 453.71875 4.800781 454.078125 4.621094 454.265625 C 4.441406 454.453125 4.292969 454.644531 4.175781 454.832031 Z M 9.523438 451.613281 C 9.519531 450.601562 9.625 449.785156 9.835938 449.160156 C 10.042969 448.542969 10.351562 448.0625 10.765625 447.726562 C 11.171875 447.390625 11.691406 447.222656 12.320312 447.222656 C 12.78125 447.222656 13.1875 447.316406 13.535156 447.5 C 13.878906 447.6875 14.164062 447.957031 14.394531 448.304688 C 14.617188 448.65625 14.796875 449.082031 14.929688 449.582031 C 15.058594 450.085938 15.121094 450.761719 15.125 451.613281 C 15.121094 452.621094 15.019531 453.433594 14.8125 454.050781 C 14.601562 454.671875 14.289062 455.152344 13.882812 455.488281 C 13.46875 455.828125 12.949219 455.992188 12.320312 455.996094 C 11.488281 455.992188 10.839844 455.699219 10.371094 455.105469 C 9.804688 454.390625 9.519531 453.226562 9.523438 451.613281 Z M 10.605469 451.613281 C 10.605469 453.023438 10.769531 453.960938 11.097656 454.429688 C 11.425781 454.898438 11.832031 455.132812 12.320312 455.128906 C 12.800781 455.132812 13.207031 454.898438 13.542969 454.425781 C 13.871094 453.960938 14.039062 453.023438 14.039062 451.613281 C 14.039062 450.199219 13.871094 449.257812 13.542969 448.792969 C 13.207031 448.332031 12.796875 448.101562 12.3125 448.097656 C 11.824219 448.101562 11.4375 448.304688 11.148438 448.710938 C 10.785156 449.234375 10.605469 450.203125 10.605469 451.613281 Z M 2.347656 444.984375 "/>
<path fill-rule="nonzero" fill="rgb(40%, 40%, 40%)" fill-opacity="1" d="M 2.851562 393.628906 L 3.90625 393.488281 C 4.027344 394.085938 4.230469 394.515625 4.523438 394.78125 C 4.8125 395.046875 5.167969 395.179688 5.589844 395.175781 C 6.082031 395.179688 6.5 395.007812 6.84375 394.660156 C 7.179688 394.320312 7.351562 393.894531 7.355469 393.378906 C 7.351562 392.898438 7.195312 392.5 6.882812 392.183594 C 6.566406 391.871094 6.164062 391.710938 5.675781 391.710938 C 5.476562 391.710938 5.226562 391.75 4.933594 391.828125 L 5.050781 390.902344 C 5.113281 390.910156 5.171875 390.914062 5.21875 390.914062 C 5.667969 390.914062 6.070312 390.796875 6.433594 390.5625 C 6.789062 390.328125 6.96875 389.96875 6.972656 389.480469 C 6.96875 389.09375 6.839844 388.773438 6.578125 388.519531 C 6.3125 388.265625 5.972656 388.136719 5.566406 388.136719 C 5.152344 388.136719 4.8125 388.265625 4.539062 388.523438 C 4.265625 388.78125 4.089844 389.167969 4.011719 389.683594 L 2.957031 389.496094 C 3.085938 388.789062 3.378906 388.242188 3.835938 387.851562 C 4.289062 387.464844 4.855469 387.269531 5.542969 387.269531 C 6.007812 387.269531 6.441406 387.371094 6.835938 387.570312 C 7.226562 387.773438 7.527344 388.046875 7.738281 388.394531 C 7.949219 388.746094 8.054688 389.117188 8.054688 389.503906 C 8.054688 389.875 7.953125 390.210938 7.753906 390.515625 C 7.554688 390.820312 7.261719 391.0625 6.871094 391.242188 C 7.378906 391.359375 7.773438 391.605469 8.054688 391.972656 C 8.335938 392.347656 8.476562 392.808594 8.476562 393.355469 C 8.476562 394.109375 8.203125 394.746094 7.65625 395.265625 C 7.109375 395.789062 6.417969 396.046875 5.582031 396.046875 C 4.824219 396.046875 4.195312 395.824219 3.703125 395.375 C 3.203125 394.925781 2.921875 394.34375 2.851562 393.628906 Z M 9.523438 391.660156 C 9.519531 390.648438 9.625 389.832031 9.835938 389.207031 C 10.042969 388.589844 10.351562 388.109375 10.765625 387.773438 C 11.171875 387.4375 11.691406 387.269531 12.320312 387.269531 C 12.78125 387.269531 13.1875 387.363281 13.535156 387.546875 C 13.878906 387.734375 14.164062 388.003906 14.394531 388.351562 C 14.617188 388.703125 14.796875 389.128906 14.929688 389.628906 C 15.058594 390.132812 15.121094 390.808594 15.125 391.660156 C 15.121094 392.667969 15.019531 393.480469 14.8125 394.097656 C 14.601562 394.71875 14.289062 395.199219 13.882812 395.535156 C 13.46875 395.875 12.949219 396.039062 12.320312 396.042969 C 11.488281 396.039062 10.839844 395.746094 10.371094 395.152344 C 9.804688 394.4375 9.519531 393.273438 9.523438 391.660156 Z M 10.605469 391.660156 C 10.605469 393.070312 10.769531 394.007812 11.097656 394.476562 C 11.425781 394.945312 11.832031 395.179688 12.320312 395.175781 C 12.800781 395.179688 13.207031 394.945312 13.542969 394.472656 C 13.871094 394.007812 14.039062 393.070312 14.039062 391.660156 C 14.039062 390.246094 13.871094 389.304688 13.542969 388.839844 C 13.207031 388.378906 12.796875 388.148438 12.3125 388.144531 C 11.824219 388.148438 11.4375 388.351562 11.148438 388.757812 C 10.785156 389.28125 10.605469 390.25 10.605469 391.660156 Z M 2.347656 385.03125 "/>
<path fill-rule="nonzero" fill="rgb(40%, 40%, 40%)" fill-opacity="1" d="M 6.226562 335.9375 L 6.226562 333.882812 L 2.5 333.882812 L 2.5 332.914062 L 6.417969 327.347656 L 7.28125 327.347656 L 7.28125 332.914062 L 8.441406 332.914062 L 8.441406 333.882812 L 7.28125 333.882812 L 7.28125 335.9375 Z M 6.226562 332.914062 L 6.226562 329.039062 L 3.535156 332.914062 Z M 9.523438 331.703125 C 9.519531 330.691406 9.625 329.875 9.835938 329.25 C 10.042969 328.632812 10.351562 328.152344 10.765625 327.816406 C 11.171875 327.480469 11.691406 327.3125 12.320312 327.3125 C 12.78125 327.3125 13.1875 327.40625 13.535156 327.589844 C 13.878906 327.777344 14.164062 328.046875 14.394531 328.394531 C 14.617188 328.746094 14.796875 329.171875 14.929688 329.671875 C 15.058594 330.175781 15.121094 330.851562 15.125 331.703125 C 15.121094 332.710938 15.019531 333.523438 14.8125 334.140625 C 14.601562 334.761719 14.289062 335.242188 13.882812 335.578125 C 13.46875 335.917969 12.949219 336.082031 12.320312 336.085938 C 11.488281 336.082031 10.839844 335.789062 10.371094 335.195312 C 9.804688 334.480469 9.519531 333.316406 9.523438 331.703125 Z M 10.605469 331.703125 C 10.605469 333.113281 10.769531 334.050781 11.097656 334.519531 C 11.425781 334.988281 11.832031 335.222656 12.320312 335.21875 C 12.800781 335.222656 13.207031 334.988281 13.542969 334.515625 C 13.871094 334.050781 14.039062 333.113281 14.039062 331.703125 C 14.039062 330.289062 13.871094 329.347656 13.542969 328.882812 C 13.207031 328.421875 12.796875 328.191406 12.3125 328.1875 C 11.824219 328.191406 11.4375 328.394531 11.148438 328.800781 C 10.785156 329.324219 10.605469 330.292969 10.605469 331.703125 Z M 2.347656 325.074219 "/>
<path fill-rule="nonzero" fill="rgb(40%, 40%, 40%)" fill-opacity="1" d="M 2.847656 273.730469 L 3.953125 273.636719 C 4.03125 274.175781 4.21875 274.582031 4.523438 274.855469 C 4.820312 275.128906 5.183594 275.265625 5.605469 275.261719 C 6.113281 275.265625 6.542969 275.074219 6.894531 274.6875 C 7.246094 274.308594 7.421875 273.800781 7.421875 273.160156 C 7.421875 272.566406 7.25 272.089844 6.914062 271.738281 C 6.574219 271.390625 6.132812 271.21875 5.589844 271.214844 C 5.246094 271.21875 4.941406 271.296875 4.667969 271.449219 C 4.394531 271.605469 4.179688 271.804688 4.023438 272.050781 L 3.035156 271.917969 L 3.863281 267.507812 L 8.136719 267.507812 L 8.136719 268.515625 L 4.707031 268.515625 L 4.246094 270.824219 C 4.761719 270.464844 5.300781 270.285156 5.871094 270.285156 C 6.617188 270.285156 7.25 270.546875 7.769531 271.066406 C 8.28125 271.585938 8.539062 272.253906 8.542969 273.066406 C 8.539062 273.847656 8.3125 274.519531 7.863281 275.082031 C 7.308594 275.78125 6.558594 276.125 5.605469 276.128906 C 4.824219 276.125 4.183594 275.910156 3.691406 275.472656 C 3.191406 275.039062 2.910156 274.457031 2.847656 273.730469 Z M 9.523438 271.746094 C 9.519531 270.734375 9.625 269.917969 9.835938 269.292969 C 10.042969 268.675781 10.351562 268.195312 10.765625 267.859375 C 11.171875 267.523438 11.691406 267.355469 12.320312 267.355469 C 12.78125 267.355469 13.1875 267.449219 13.535156 267.632812 C 13.878906 267.820312 14.164062 268.089844 14.394531 268.4375 C 14.617188 268.789062 14.796875 269.214844 14.929688 269.714844 C 15.058594 270.21875 15.121094 270.894531 15.125 271.746094 C 15.121094 272.753906 15.019531 273.566406 14.8125 274.183594 C 14.601562 274.804688 14.289062 275.285156 13.882812 275.621094 C 13.46875 275.960938 12.949219 276.125 12.320312 276.128906 C 11.488281 276.125 10.839844 275.832031 10.371094 275.238281 C 9.804688 274.523438 9.519531 273.359375 9.523438 271.746094 Z M 10.605469 271.746094 C 10.605469 273.15625 10.769531 274.09375 11.097656 274.5625 C 11.425781 275.03125 11.832031 275.265625 12.320312 275.261719 C 12.800781 275.265625 13.207031 275.03125 13.542969 274.558594 C 13.871094 274.09375 14.039062 273.15625 14.039062 271.746094 C 14.039062 270.332031 13.871094 269.390625 13.542969 268.925781 C 13.207031 268.464844 12.796875 268.234375 12.3125 268.230469 C 11.824219 268.234375 11.4375 268.4375 11.148438 268.84375 C 10.785156 269.367188 10.605469 270.335938 10.605469 271.746094 Z M 2.347656 265.117188 "/>
<path fill-rule="nonzero" fill="rgb(40%, 40%, 40%)" fill-opacity="1" d="M 8.316406 209.542969 L 7.269531 209.621094 C 7.175781 209.214844 7.042969 208.914062 6.871094 208.722656 C 6.582031 208.421875 6.230469 208.269531 5.816406 208.269531 C 5.480469 208.269531 5.183594 208.363281 4.933594 208.550781 C 4.597656 208.792969 4.335938 209.148438 4.144531 209.613281 C 3.953125 210.078125 3.855469 210.738281 3.847656 211.597656 C 4.101562 211.214844 4.410156 210.929688 4.78125 210.738281 C 5.144531 210.554688 5.53125 210.460938 5.933594 210.457031 C 6.636719 210.460938 7.234375 210.71875 7.730469 211.234375 C 8.222656 211.75 8.46875 212.417969 8.472656 213.238281 C 8.46875 213.777344 8.351562 214.28125 8.121094 214.742188 C 7.886719 215.207031 7.570312 215.558594 7.164062 215.804688 C 6.757812 216.050781 6.296875 216.171875 5.78125 216.175781 C 4.902344 216.171875 4.183594 215.851562 3.632812 215.207031 C 3.074219 214.558594 2.796875 213.492188 2.800781 212.007812 C 2.796875 210.351562 3.105469 209.144531 3.71875 208.386719 C 4.25 207.730469 4.96875 207.402344 5.878906 207.402344 C 6.554688 207.402344 7.109375 207.59375 7.542969 207.972656 C 7.972656 208.351562 8.230469 208.875 8.316406 209.542969 Z M 4.011719 213.246094 C 4.011719 213.609375 4.085938 213.957031 4.242188 214.289062 C 4.390625 214.621094 4.609375 214.875 4.890625 215.046875 C 5.167969 215.226562 5.457031 215.3125 5.761719 215.308594 C 6.207031 215.3125 6.589844 215.132812 6.914062 214.769531 C 7.230469 214.414062 7.390625 213.925781 7.394531 213.300781 C 7.390625 212.710938 7.234375 212.242188 6.917969 211.898438 C 6.597656 211.558594 6.199219 211.386719 5.722656 211.386719 C 5.246094 211.386719 4.839844 211.558594 4.507812 211.898438 C 4.175781 212.242188 4.011719 212.691406 4.011719 213.246094 Z M 9.523438 211.792969 C 9.519531 210.78125 9.625 209.964844 9.835938 209.339844 C 10.042969 208.722656 10.351562 208.242188 10.765625 207.90625 C 11.171875 207.570312 11.691406 207.402344 12.320312 207.402344 C 12.78125 207.402344 13.1875 207.496094 13.535156 207.679688 C 13.878906 207.867188 14.164062 208.136719 14.394531 208.484375 C 14.617188 208.835938 14.796875 209.261719 14.929688 209.761719 C 15.058594 210.265625 15.121094 210.941406 15.125 211.792969 C 15.121094 212.800781 15.019531 213.613281 14.8125 214.230469 C 14.601562 214.851562 14.289062 215.332031 13.882812 215.667969 C 13.46875 216.007812 12.949219 216.171875 12.320312 216.175781 C 11.488281 216.171875 10.839844 215.878906 10.371094 215.285156 C 9.804688 214.570312 9.519531 213.40625 9.523438 211.792969 Z M 10.605469 211.792969 C 10.605469 213.203125 10.769531 214.140625 11.097656 214.609375 C 11.425781 215.078125 11.832031 215.3125 12.320312 215.308594 C 12.800781 215.3125 13.207031 215.078125 13.542969 214.605469 C 13.871094 214.140625 14.039062 213.203125 14.039062 211.792969 C 14.039062 210.378906 13.871094 209.4375 13.542969 208.972656 C 13.207031 208.511719 12.796875 208.28125 12.3125 208.277344 C 11.824219 208.28125 11.4375 208.484375 11.148438 208.890625 C 10.785156 209.414062 10.605469 210.382812 10.605469 211.792969 Z M 2.347656 205.164062 "/>
<path fill-rule="nonzero" fill="rgb(40%, 40%, 40%)" fill-opacity="1" d="M 2.917969 148.605469 L 2.917969 147.59375 L 8.476562 147.59375 L 8.476562 148.414062 C 7.929688 148.996094 7.386719 149.769531 6.847656 150.734375 C 6.308594 151.699219 5.894531 152.691406 5.605469 153.710938 C 5.394531 154.433594 5.257812 155.21875 5.199219 156.070312 L 4.117188 156.070312 C 4.128906 155.394531 4.261719 154.578125 4.515625 153.621094 C 4.765625 152.667969 5.128906 151.746094 5.605469 150.855469 C 6.082031 149.964844 6.585938 149.214844 7.121094 148.605469 Z M 9.523438 151.835938 C 9.519531 150.824219 9.625 150.007812 9.835938 149.382812 C 10.042969 148.765625 10.351562 148.285156 10.765625 147.949219 C 11.171875 147.613281 11.691406 147.445312 12.320312 147.445312 C 12.78125 147.445312 13.1875 147.539062 13.535156 147.722656 C 13.878906 147.910156 14.164062 148.179688 14.394531 148.527344 C 14.617188 148.878906 14.796875 149.304688 14.929688 149.804688 C 15.058594 150.308594 15.121094 150.984375 15.125 151.835938 C 15.121094 152.84375 15.019531 153.65625 14.8125 154.273438 C 14.601562 154.894531 14.289062 155.375 13.882812 155.710938 C 13.46875 156.050781 12.949219 156.214844 12.320312 156.21875 C 11.488281 156.214844 10.839844 155.921875 10.371094 155.328125 C 9.804688 154.613281 9.519531 153.449219 9.523438 151.835938 Z M 10.605469 151.835938 C 10.605469 153.246094 10.769531 154.183594 11.097656 154.652344 C 11.425781 155.121094 11.832031 155.355469 12.320312 155.351562 C 12.800781 155.355469 13.207031 155.121094 13.542969 154.648438 C 13.871094 154.183594 14.039062 153.246094 14.039062 151.835938 C 14.039062 150.421875 13.871094 149.480469 13.542969 149.015625 C 13.207031 148.554688 12.796875 148.324219 12.3125 148.320312 C 11.824219 148.324219 11.4375 148.527344 11.148438 148.933594 C 10.785156 149.457031 10.605469 150.425781 10.605469 151.835938 Z M 2.347656 145.207031 "/>
<path fill-rule="nonzero" fill="rgb(40%, 40%, 40%)" fill-opacity="1" d="M 4.46875 91.460938 C 4.03125 91.300781 3.707031 91.070312 3.496094 90.773438 C 3.285156 90.476562 3.179688 90.121094 3.179688 89.707031 C 3.179688 89.082031 3.402344 88.558594 3.851562 88.132812 C 4.300781 87.707031 4.898438 87.492188 5.644531 87.492188 C 6.390625 87.492188 6.996094 87.710938 7.457031 88.144531 C 7.914062 88.582031 8.140625 89.113281 8.144531 89.734375 C 8.140625 90.140625 8.035156 90.488281 7.828125 90.777344 C 7.617188 91.074219 7.300781 91.300781 6.878906 91.460938 C 7.402344 91.636719 7.804688 91.914062 8.082031 92.292969 C 8.355469 92.679688 8.492188 93.136719 8.496094 93.664062 C 8.492188 94.402344 8.234375 95.019531 7.714844 95.515625 C 7.191406 96.015625 6.507812 96.261719 5.664062 96.265625 C 4.816406 96.261719 4.132812 96.015625 3.613281 95.511719 C 3.089844 95.011719 2.828125 94.382812 2.832031 93.632812 C 2.828125 93.078125 2.96875 92.613281 3.257812 92.230469 C 3.539062 91.855469 3.945312 91.597656 4.46875 91.460938 Z M 4.257812 89.671875 C 4.257812 90.078125 4.386719 90.410156 4.648438 90.667969 C 4.910156 90.925781 5.25 91.054688 5.667969 91.054688 C 6.070312 91.054688 6.402344 90.929688 6.667969 90.671875 C 6.925781 90.421875 7.058594 90.105469 7.058594 89.730469 C 7.058594 89.34375 6.921875 89.019531 6.65625 88.753906 C 6.382812 88.492188 6.050781 88.359375 5.660156 88.359375 C 5.253906 88.359375 4.921875 88.488281 4.65625 88.746094 C 4.390625 89.003906 4.257812 89.3125 4.257812 89.671875 Z M 3.917969 93.640625 C 3.917969 93.941406 3.988281 94.230469 4.132812 94.511719 C 4.273438 94.792969 4.484375 95.011719 4.769531 95.167969 C 5.046875 95.324219 5.351562 95.402344 5.675781 95.398438 C 6.179688 95.402344 6.59375 95.238281 6.925781 94.910156 C 7.25 94.585938 7.414062 94.175781 7.417969 93.671875 C 7.414062 93.171875 7.246094 92.75 6.910156 92.414062 C 6.570312 92.082031 6.148438 91.917969 5.640625 91.914062 C 5.140625 91.917969 4.726562 92.082031 4.40625 92.40625 C 4.078125 92.738281 3.917969 93.148438 3.917969 93.640625 Z M 9.523438 91.882812 C 9.519531 90.871094 9.625 90.054688 9.835938 89.429688 C 10.042969 88.8125 10.351562 88.332031 10.765625 87.996094 C 11.171875 87.660156 11.691406 87.492188 12.320312 87.492188 C 12.78125 87.492188 13.1875 87.585938 13.535156 87.769531 C 13.878906 87.957031 14.164062 88.226562 14.394531 88.574219 C 14.617188 88.925781 14.796875 89.351562 14.929688 89.851562 C 15.058594 90.355469 15.121094 91.03125 15.125 91.882812 C 15.121094 92.890625 15.019531 93.703125 14.8125 94.320312 C 14.601562 94.941406 14.289062 95.421875 13.882812 95.757812 C 13.46875 96.097656 12.949219 96.261719 12.320312 96.265625 C 11.488281 96.261719 10.839844 95.96875 10.371094 95.375 C 9.804688 94.660156 9.519531 93.496094 9.523438 91.882812 Z M 10.605469 91.882812 C 10.605469 93.292969 10.769531 94.230469 11.097656 94.699219 C 11.425781 95.167969 11.832031 95.402344 12.320312 95.398438 C 12.800781 95.402344 13.207031 95.167969 13.542969 94.695312 C 13.871094 94.230469 14.039062 93.292969 14.039062 91.882812 C 14.039062 90.46875 13.871094 89.527344 13.542969 89.0625 C 13.207031 88.601562 12.796875 88.371094 12.3125 88.367188 C 11.824219 88.371094 11.4375 88.574219 11.148438 88.980469 C 10.785156 89.503906 10.605469 90.472656 10.605469 91.882812 Z M 2.347656 85.253906 "/>
<path fill-rule="nonzero" fill="rgb(40%, 40%, 40%)" fill-opacity="1" d="M 3.003906 34.175781 L 4.019531 34.082031 C 4.097656 34.558594 4.261719 34.902344 4.507812 35.117188 C 4.746094 35.335938 5.058594 35.445312 5.441406 35.441406 C 5.761719 35.445312 6.042969 35.371094 6.292969 35.21875 C 6.535156 35.074219 6.738281 34.875 6.894531 34.625 C 7.050781 34.375 7.179688 34.039062 7.285156 33.617188 C 7.390625 33.195312 7.445312 32.765625 7.445312 32.328125 C 7.445312 32.28125 7.441406 32.210938 7.441406 32.117188 C 7.222656 32.453125 6.933594 32.726562 6.574219 32.933594 C 6.207031 33.144531 5.8125 33.25 5.386719 33.246094 C 4.675781 33.25 4.074219 32.992188 3.585938 32.472656 C 3.089844 31.960938 2.84375 31.28125 2.847656 30.433594 C 2.84375 29.566406 3.101562 28.863281 3.617188 28.332031 C 4.128906 27.800781 4.773438 27.535156 5.546875 27.535156 C 6.105469 27.535156 6.613281 27.6875 7.078125 27.988281 C 7.539062 28.289062 7.890625 28.71875 8.132812 29.273438 C 8.371094 29.832031 8.492188 30.636719 8.496094 31.691406 C 8.492188 32.789062 8.375 33.664062 8.136719 34.3125 C 7.894531 34.964844 7.539062 35.457031 7.070312 35.796875 C 6.601562 36.136719 6.050781 36.304688 5.417969 36.308594 C 4.746094 36.304688 4.195312 36.121094 3.769531 35.75 C 3.34375 35.375 3.089844 34.851562 3.003906 34.175781 Z M 7.324219 30.382812 C 7.320312 29.777344 7.160156 29.296875 6.839844 28.941406 C 6.515625 28.589844 6.128906 28.414062 5.675781 28.410156 C 5.207031 28.414062 4.796875 28.605469 4.449219 28.984375 C 4.101562 29.371094 3.929688 29.867188 3.929688 30.472656 C 3.929688 31.023438 4.09375 31.46875 4.421875 31.804688 C 4.75 32.148438 5.15625 32.316406 5.644531 32.316406 C 6.132812 32.316406 6.535156 32.148438 6.851562 31.804688 C 7.164062 31.46875 7.320312 30.992188 7.324219 30.382812 Z M 9.523438 31.925781 C 9.519531 30.914062 9.625 30.097656 9.835938 29.472656 C 10.042969 28.855469 10.351562 28.375 10.765625 28.039062 C 11.171875 27.703125 11.691406 27.535156 12.320312 27.535156 C 12.78125 27.535156 13.1875 27.628906 13.535156 27.8125 C 13.878906 28 14.164062 28.269531 14.394531 28.617188 C 14.617188 28.96875 14.796875 29.394531 14.929688 29.894531 C 15.058594 30.398438 15.121094 31.074219 15.125 31.925781 C 15.121094 32.933594 15.019531 33.746094 14.8125 34.363281 C 14.601562 34.984375 14.289062 35.464844 13.882812 35.800781 C 13.46875 36.140625 12.949219 36.304688 12.320312 36.308594 C 11.488281 36.304688 10.839844 36.011719 10.371094 35.417969 C 9.804688 34.703125 9.519531 33.539062 9.523438 31.925781 Z M 10.605469 31.925781 C 10.605469 33.335938 10.769531 34.273438 11.097656 34.742188 C 11.425781 35.210938 11.832031 35.445312 12.320312 35.441406 C 12.800781 35.445312 13.207031 35.210938 13.542969 34.738281 C 13.871094 34.273438 14.039062 33.335938 14.039062 31.925781 C 14.039062 30.511719 13.871094 29.570312 13.542969 29.105469 C 13.207031 28.644531 12.796875 28.414062 12.3125 28.410156 C 11.824219 28.414062 11.4375 28.617188 11.148438 29.023438 C 10.785156 29.546875 10.605469 30.515625 10.605469 31.925781 Z M 2.347656 25.296875 "/>
<g clip-path="url(#clip-0)">
<path fill-rule="evenodd" fill="rgb(100%, 38.823529%, 51.764706%)" fill-opacity="1" d="M 42.46875 181.558594 L 122.601562 181.558594 L 122.601562 571.101562 L 42.46875 571.101562 Z M 44.128906 183.21875 L 120.941406 183.21875 L 120.941406 571.101562 L 44.128906 571.101562 Z M 44.128906 183.21875 "/>
</g>
<g clip-path="url(#clip-1)">
<path fill-rule="nonzero" fill="rgb(100%, 38.823529%, 51.764706%)" fill-opacity="0.2" d="M 43.46875 182.558594 L 121.601562 182.558594 L 121.601562 571.101562 L 43.46875 571.101562 Z M 43.46875 182.558594 "/>
</g>
<g clip-path="url(#clip-2)">
<path fill-rule="evenodd" fill="rgb(100%, 62.352941%, 25.098039%)" fill-opacity="1" d="M 152.847656 217.53125 L 232.980469 217.53125 L 232.980469 571.097656 L 152.847656 571.097656 Z M 154.507812 219.191406 L 231.320312 219.191406 L 231.320312 571.097656 L 154.507812 571.097656 Z M 154.507812 219.191406 "/>
</g>
<g clip-path="url(#clip-3)">
<path fill-rule="nonzero" fill="rgb(100%, 62.352941%, 25.098039%)" fill-opacity="0.2" d="M 153.847656 218.53125 L 231.980469 218.53125 L 231.980469 571.097656 L 153.847656 571.097656 Z M 153.847656 218.53125 "/>
</g>
<g clip-path="url(#clip-4)">
<path fill-rule="evenodd" fill="rgb(100%, 80.392157%, 33.72549%)" fill-opacity="1" d="M 263.226562 91.625 L 343.359375 91.625 L 343.359375 571.097656 L 263.226562 571.097656 Z M 264.886719 93.285156 L 341.699219 93.285156 L 341.699219 571.097656 L 264.886719 571.097656 Z M 264.886719 93.285156 "/>
</g>
<g clip-path="url(#clip-5)">
<path fill-rule="nonzero" fill="rgb(100%, 80.392157%, 33.72549%)" fill-opacity="0.2" d="M 264.226562 92.625 L 342.359375 92.625 L 342.359375 571.097656 L 264.226562 571.097656 Z M 264.226562 92.625 "/>
</g>
<g clip-path="url(#clip-6)">
<path fill-rule="evenodd" fill="rgb(29.411765%, 75.294118%, 75.294118%)" fill-opacity="1" d="M 373.609375 85.628906 L 453.742188 85.628906 L 453.742188 571.097656 L 373.609375 571.097656 Z M 375.265625 87.289062 L 452.078125 87.289062 L 452.078125 571.097656 L 375.265625 571.097656 Z M 375.265625 87.289062 "/>
</g>
<g clip-path="url(#clip-7)">
<path fill-rule="nonzero" fill="rgb(29.411765%, 75.294118%, 75.294118%)" fill-opacity="0.2" d="M 374.609375 86.628906 L 452.742188 86.628906 L 452.742188 571.097656 L 374.609375 571.097656 Z M 374.609375 86.628906 "/>
</g>
<g clip-path="url(#clip-8)">
<path fill-rule="evenodd" fill="rgb(21.176471%, 63.529412%, 92.156863%)" fill-opacity="1" d="M 483.984375 235.519531 L 564.117188 235.519531 L 564.117188 571.101562 L 483.984375 571.101562 Z M 485.644531 237.179688 L 562.457031 237.179688 L 562.457031 571.101562 L 485.644531 571.101562 Z M 485.644531 237.179688 "/>
</g>
<g clip-path="url(#clip-9)">
<path fill-rule="nonzero" fill="rgb(21.176471%, 63.529412%, 92.156863%)" fill-opacity="0.2" d="M 484.984375 236.519531 L 563.117188 236.519531 L 563.117188 571.101562 L 484.984375 571.101562 Z M 484.984375 236.519531 "/>
</g>
<g clip-path="url(#clip-10)">
<path fill-rule="evenodd" fill="rgb(60%, 40%, 100%)" fill-opacity="1" d="M 594.367188 241.515625 L 674.5 241.515625 L 674.5 571.101562 L 594.367188 571.101562 Z M 596.023438 243.175781 L 672.835938 243.175781 L 672.835938 571.101562 L 596.023438 571.101562 Z M 596.023438 243.175781 "/>
</g>
<g clip-path="url(#clip-11)">
<path fill-rule="nonzero" fill="rgb(60%, 40%, 100%)" fill-opacity="0.2" d="M 595.367188 242.515625 L 673.5 242.515625 L 673.5 571.101562 L 595.367188 571.101562 Z M 595.367188 242.515625 "/>
</g>
<g clip-path="url(#clip-12)">
<path fill-rule="evenodd" fill="rgb(78.823529%, 79.607843%, 81.176471%)" fill-opacity="1" d="M 704.742188 331.449219 L 784.875 331.449219 L 784.875 571.101562 L 704.742188 571.101562 Z M 706.402344 333.109375 L 783.214844 333.109375 L 783.214844 571.101562 L 706.402344 571.101562 Z M 706.402344 333.109375 "/>
</g>
<g clip-path="url(#clip-13)">
<path fill-rule="nonzero" fill="rgb(78.823529%, 79.607843%, 81.176471%)" fill-opacity="0.2" d="M 705.742188 332.449219 L 783.875 332.449219 L 783.875 571.101562 L 705.742188 571.101562 Z M 705.742188 332.449219 "/>
</g>
</svg>
