<?xml version="1.0" encoding="UTF-8"?>
<svg xmlns="http://www.w3.org/2000/svg" xmlns:xlink="http://www.w3.org/1999/xlink" width="800" height="600" viewBox="0 0 800 600">
<defs>
<clipPath id="clip-0">
<path clip-rule="nonzero" d="M 62.515625 42.460938 L 588.347656 42.460938 L 588.347656 98.621094 L 62.515625 98.621094 Z M 62.515625 42.460938 "/>
</clipPath>
<clipPath id="clip-1">
<path clip-rule="nonzero" d="M 62.515625 43 L 588 43 L 588 98 L 62.515625 98 Z M 62.515625 43 "/>
</clipPath>
<clipPath id="clip-2">
<path clip-rule="nonzero" d="M 62.515625 119.546875 L 539.792969 119.546875 L 539.792969 175.707031 L 62.515625 175.707031 Z M 62.515625 119.546875 "/>
</clipPath>
<clipPath id="clip-3">
<path clip-rule="nonzero" d="M 62.515625 120 L 539 120 L 539 175 L 62.515625 175 Z M 62.515625 120 "/>
</clipPath>
<clipPath id="clip-4">
<path clip-rule="nonzero" d="M 62.515625 196.632812 L 709.730469 196.632812 L 709.730469 252.792969 L 62.515625 252.792969 Z M 62.515625 196.632812 "/>
</clipPath>
<clipPath id="clip-5">
<path clip-rule="nonzero" d="M 62.515625 197 L 709 197 L 709 252 L 62.515625 252 Z M 62.515625 197 "/>
</clipPath>
<clipPath id="clip-6">
<path clip-rule="nonzero" d="M 62.515625 273.71875 L 717.824219 273.71875 L 717.824219 329.878906 L 62.515625 329.878906 Z M 62.515625 273.71875 "/>
</clipPath>
<clipPath id="clip-7">
<path clip-rule="nonzero" d="M 62.515625 274 L 717 274 L 717 329 L 62.515625 329 Z M 62.515625 274 "/>
</clipPath>
<clipPath id="clip-8">
<path clip-rule="nonzero" d="M 62.515625 350.804688 L 515.515625 350.804688 L 515.515625 406.964844 L 62.515625 406.964844 Z M 62.515625 350.804688 "/>
</clipPath>
<clipPath id="clip-9">
<path clip-rule="nonzero" d="M 62.515625 351 L 515 351 L 515 406 L 62.515625 406 Z M 62.515625 351 "/>
</clipPath>
<clipPath id="clip-10">
<path clip-rule="nonzero" d="M 62.515625 427.890625 L 507.421875 427.890625 L 507.421875 484.050781 L 62.515625 484.050781 Z M 62.515625 427.890625 "/>
</clipPath>
<clipPath id="clip-11">
<path clip-rule="nonzero" d="M 62.515625 428 L 507 428 L 507 484 L 62.515625 484 Z M 62.515625 428 "/>
</clipPath>
<clipPath id="clip-12">
<path clip-rule="nonzero" d="M 62.515625 504.976562 L 386.039062 504.976562 L 386.039062 561.136719 L 62.515625 561.136719 Z M 62.515625 504.976562 "/>
</clipPath>
<clipPath id="clip-13">
<path clip-rule="nonzero" d="M 62.515625 505 L 386 505 L 386 561 L 62.515625 561 Z M 62.515625 505 "/>
</clipPath>
</defs>
<rect x="-80" y="-60" width="960" height="720" fill="rgb(100%, 100%, 100%)" fill-opacity="1"/>
<path fill="none" stroke-width="1" stroke-linecap="butt" stroke-linejoin="miter" stroke="rgb(0%, 0%, 0%)" stroke-opacity="0.0980392" stroke-miterlimit="10" d="M 63 32.5 L 790.328125 32.5 "/>
<path fill="none" stroke-width="1" stroke-linecap="butt" stroke-linejoin="miter" stroke="rgb(0%, 0%, 0%)" stroke-opacity="0.0980392" stroke-miterlimit="10" d="M 54.015625 32.5 L 62 32.5 "/>
<path fill="none" stroke-width="1" stroke-linecap="butt" stroke-linejoin="miter" stroke="rgb(0%, 0%, 0%)" stroke-opacity="0.0980392" stroke-miterlimit="10" d="M 63 109.5 L 790.328125 109.5 "/>
<path fill="none" stroke-width="1" stroke-linecap="butt" stroke-linejoin="miter" stroke="rgb(0%, 0%, 0%)" stroke-opacity="0.0980392" stroke-miterlimit="10" d="M 54.015625 109.5 L 62 109.5 "/>
<path fill="none" stroke-width="1" stroke-linecap="butt" stroke-linejoin="miter" stroke="rgb(0%, 0%, 0%)" stroke-opacity="0.0980392" stroke-miterlimit="10" d="M 63 186.5 L 790.328125 186.5 "/>
<path fill="none" stroke-width="1" stroke-linecap="butt" stroke-linejoin="miter" stroke="rgb(0%, 0%, 0%)" stroke-opacity="0.0980392" stroke-miterlimit="10" d="M 54.015625 186.5 L 62 186.5 "/>
<path fill="none" stroke-width="1" stroke-linecap="butt" stroke-linejoin="miter" stroke="rgb(0%, 0%, 0%)" stroke-opacity="0.0980392" stroke-miterlimit="10" d="M 63 263.5 L 790.328125 263.5 "/>
<path fill="none" stroke-width="1" stroke-linecap="butt" stroke-linejoin="miter" stroke="rgb(0%, 0%, 0%)" stroke-opacity="0.0980392" stroke-miterlimit="10" d="M 54.015625 263.5 L 62 263.5 "/>
<path fill="none" stroke-width="1" stroke-linecap="butt" stroke-linejoin="miter" stroke="rgb(0%, 0%, 0%)" stroke-opacity="0.0980392" stroke-miterlimit="10" d="M 63 340.5 L 790.328125 340.5 "/>
<path fill="none" stroke-width="1" stroke-linecap="butt" stroke-linejoin="miter" stroke="rgb(0%, 0%, 0%)" stroke-opacity="0.0980392" stroke-miterlimit="10" d="M 54.015625 340.5 L 62 340.5 "/>
<path fill="none" stroke-width="1" stroke-linecap="butt" stroke-linejoin="miter" stroke="rgb(0%, 0%, 0%)" stroke-opacity="0.0980392" stroke-miterlimit="10" d="M 63 417.5 L 790.328125 417.5 "/>
<path fill="none" stroke-width="1" stroke-linecap="butt" stroke-linejoin="miter" stroke="rgb(0%, 0%, 0%)" stroke-opacity="0.0980392" stroke-miterlimit="10" d="M 54.015625 417.5 L 62 417.5 "/>
<path fill="none" stroke-width="1" stroke-linecap="butt" stroke-linejoin="miter" stroke="rgb(0%, 0%, 0%)" stroke-opacity="0.0980392" stroke-miterlimit="10" d="M 63 494.5 L 790.328125 494.5 "/>
<path fill="none" stroke-width="1" stroke-linecap="butt" stroke-linejoin="miter" stroke="rgb(0%, 0%, 0%)" stroke-opacity="0.0980392" stroke-miterlimit="10" d="M 54.015625 494.5 L 62 494.5 "/>
<path fill="none" stroke-width="1" stroke-linecap="butt" stroke-linejoin="miter" stroke="rgb(0%, 0%, 0%)" stroke-opacity="0.0980392" stroke-miterlimit="10" d="M 63 571.5 L 790.328125 571.5 "/>
<path fill="none" stroke-width="1" stroke-linecap="butt" stroke-linejoin="miter" stroke="rgb(0%, 0%, 0%)" stroke-opacity="0.0980392" stroke-miterlimit="10" d="M 54.015625 571.5 L 62 571.5 "/>
<path fill="none" stroke-width="1" stroke-linecap="butt" stroke-linejoin="miter" stroke="rgb(0%, 0%, 0%)" stroke-opacity="0.0980392" stroke-miterlimit="10" d="M 62.5 32 L 62.5 571 "/>
<path fill="none" stroke-width="1" stroke-linecap="butt" stroke-linejoin="miter" stroke="rgb(0%, 0%, 0%)" stroke-opacity="0.0980392" stroke-miterlimit="10" d="M 62.5 572 L 62.5 579.601562 "/>
<path fill="none" stroke-width="1" stroke-linecap="butt" stroke-linejoin="miter" stroke="rgb(0%, 0%, 0%)" stroke-opacity="0.0980392" stroke-miterlimit="10" d="M 142.5 32 L 142.5 571 "/>
<path fill="none" stroke-width="1" stroke-linecap="butt" stroke-linejoin="miter" stroke="rgb(0%, 0%, 0%)" stroke-opacity="0.0980392" stroke-miterlimit="10" d="M 142.5 572 L 142.5 579.601562 "/>
<path fill="none" stroke-width="1" stroke-linecap="butt" stroke-linejoin="miter" stroke="rgb(0%, 0%, 0%)" stroke-opacity="0.0980392" stroke-miterlimit="10" d="M 223.5 32 L 223.5 571 "/>
<path fill="none" stroke-width="1" stroke-linecap="butt" stroke-linejoin="miter" stroke="rgb(0%, 0%, 0%)" stroke-opacity="0.0980392" stroke-miterlimit="10" d="M 223.5 572 L 223.5 579.601562 "/>
<path fill="none" stroke-width="1" stroke-linecap="butt" stroke-linejoin="miter" stroke="rgb(0%, 0%, 0%)" stroke-opacity="0.0980392" stroke-miterlimit="10" d="M 304.5 32 L 304.5 571 "/>
<path fill="none" stroke-width="1" stroke-linecap="butt" stroke-linejoin="miter" stroke="rgb(0%, 0%, 0%)" stroke-opacity="0.0980392" stroke-miterlimit="10" d="M 304.5 572 L 304.5 579.601562 "/>
<path fill="none" stroke-width="1" stroke-linecap="butt" stroke-linejoin="miter" stroke="rgb(0%, 0%, 0%)" stroke-opacity="0.0980392" stroke-miterlimit="10" d="M 385.5 32 L 385.5 571 "/>
<path fill="none" stroke-width="1" stroke-linecap="butt" stroke-linejoin="miter" stroke="rgb(0%, 0%, 0%)" stroke-opacity="0.0980392" stroke-miterlimit="10" d="M 385.5 572 L 385.5 579.601562 "/>
<path fill="none" stroke-width="1" stroke-linecap="butt" stroke-linejoin="miter" stroke="rgb(0%, 0%, 0%)" stroke-opacity="0.0980392" stroke-miterlimit="10" d="M 466.5 32 L 466.5 571 "/>
<path fill="none" stroke-width="1" stroke-linecap="butt" stroke-linejoin="miter" stroke="rgb(0%, 0%, 0%)" stroke-opacity="0.0980392" stroke-miterlimit="10" d="M 466.5 572 L 466.5 579.601562 "/>
<path fill="none" stroke-width="1" stroke-linecap="butt" stroke-linejoin="miter" stroke="rgb(0%, 0%, 0%)" stroke-opacity="0.0980392" stroke-miterlimit="10" d="M 547.5 32 L 547.5 571 "/>
<path fill="none" stroke-width="1" stroke-linecap="butt" stroke-linejoin="miter" stroke="rgb(0%, 0%, 0%)" stroke-opacity="0.0980392" stroke-miterlimit="10" d="M 547.5 572 L 547.5 579.601562 "/>
<path fill="none" stroke-width="1" stroke-linecap="butt" stroke-linejoin="miter" stroke="rgb(0%, 0%, 0%)" stroke-opacity="0.0980392" stroke-miterlimit="10" d="M 628.5 32 L 628.5 571 "/>
<path fill="none" stroke-width="1" stroke-linecap="butt" stroke-linejoin="miter" stroke="rgb(0%, 0%, 0%)" stroke-opacity="0.0980392" stroke-miterlimit="10" d="M 628.5 572 L 628.5 579.601562 "/>
<path fill="none" stroke-width="1" stroke-linecap="butt" stroke-linejoin="miter" stroke="rgb(0%, 0%, 0%)" stroke-opacity="0.0980392" stroke-miterlimit="10" d="M 709.5 32 L 709.5 571 "/>
<path fill="none" stroke-width="1" stroke-linecap="butt" stroke-linejoin="miter" stroke="rgb(0%, 0%, 0%)" stroke-opacity="0.0980392" stroke-miterlimit="10" d="M 709.5 572 L 709.5 579.601562 "/>
<path fill="none" stroke-width="1" stroke-linecap="butt" stroke-linejoin="miter" stroke="rgb(0%, 0%, 0%)" stroke-opacity="0.0980392" stroke-miterlimit="10" d="M 790.5 32 L 790.5 571 "/>
<path fill="none" stroke-width="1" stroke-linecap="butt" stroke-linejoin="miter" stroke="rgb(0%, 0%, 0%)" stroke-opacity="0.0980392" stroke-miterlimit="10" d="M 790.5 572 L 790.5 579.601562 "/>
<path fill-rule="nonzero" fill="rgb(100%, 38.823529%, 51.764706%)" fill-opacity="0.2" stroke-width="1" stroke-linecap="butt" stroke-linejoin="miter" stroke="rgb(100%, 38.823529%, 51.764706%)" stroke-opacity="1" stroke-miterlimit="10" d="M 333.328125 10 L 373.328125 10 L 373.328125 22 L 333.328125 22 Z M 333.328125 10 "/>
<path fill-rule="nonzero" fill="rgb(40%, 40%, 40%)" fill-opacity="1" d="M 380.21875 20.160156 L 380.21875 11.570312 L 381.929688 11.570312 L 383.960938 17.652344 C 384.144531 18.222656 384.28125 18.648438 384.375 18.925781 C 384.46875 18.617188 384.621094 18.15625 384.828125 17.546875 L 386.886719 11.570312 L 388.414062 11.570312 L 388.414062 20.160156 L 387.320312 20.160156 L 387.320312 12.972656 L 384.824219 20.160156 L 383.796875 20.160156 L 381.3125 12.847656 L 381.3125 20.160156 Z M 390.066406 22.558594 L 389.949219 21.566406 C 390.179688 21.628906 390.382812 21.660156 390.554688 21.660156 C 390.789062 21.660156 390.976562 21.621094 391.117188 21.542969 C 391.257812 21.464844 391.371094 21.355469 391.464844 21.214844 C 391.527344 21.109375 391.636719 20.847656 391.785156 20.429688 C 391.804688 20.367188 391.835938 20.28125 391.878906 20.171875 L 389.519531 13.9375 L 390.652344 13.9375 L 391.949219 17.542969 C 392.113281 18 392.261719 18.480469 392.402344 18.980469 C 392.519531 18.5 392.664062 18.027344 392.832031 17.566406 L 394.164062 13.9375 L 395.21875 13.9375 L 392.851562 20.265625 C 392.597656 20.949219 392.398438 21.417969 392.261719 21.675781 C 392.070312 22.023438 391.855469 22.277344 391.617188 22.441406 C 391.371094 22.597656 391.082031 22.679688 390.746094 22.683594 C 390.539062 22.679688 390.3125 22.636719 390.066406 22.558594 Z M 399.640625 20.160156 L 399.640625 11.570312 L 405.4375 11.570312 L 405.4375 12.582031 L 400.777344 12.582031 L 400.777344 15.246094 L 404.808594 15.246094 L 404.808594 16.257812 L 400.777344 16.257812 L 400.777344 20.160156 Z M 406.785156 12.785156 L 406.785156 11.570312 L 407.839844 11.570312 L 407.839844 12.785156 Z M 406.785156 20.160156 L 406.785156 13.9375 L 407.839844 13.9375 L 407.839844 20.160156 Z M 409.4375 20.160156 L 409.4375 13.9375 L 410.382812 13.9375 L 410.382812 14.878906 C 410.625 14.441406 410.847656 14.148438 411.054688 14.007812 C 411.257812 13.867188 411.484375 13.796875 411.734375 13.796875 C 412.085938 13.796875 412.449219 13.910156 412.816406 14.136719 L 412.453125 15.113281 C 412.195312 14.964844 411.9375 14.886719 411.679688 14.886719 C 411.449219 14.886719 411.242188 14.957031 411.058594 15.09375 C 410.871094 15.234375 410.738281 15.425781 410.664062 15.671875 C 410.546875 16.046875 410.488281 16.457031 410.492188 16.902344 L 410.492188 20.160156 Z M 413.015625 18.300781 L 414.0625 18.136719 C 414.117188 18.558594 414.28125 18.878906 414.550781 19.101562 C 414.816406 19.324219 415.191406 19.433594 415.671875 19.433594 C 416.15625 19.433594 416.515625 19.335938 416.75 19.136719 C 416.984375 18.941406 417.101562 18.710938 417.101562 18.441406 C 417.101562 18.207031 416.996094 18.019531 416.789062 17.878906 C 416.644531 17.789062 416.285156 17.667969 415.710938 17.523438 C 414.9375 17.328125 414.402344 17.160156 414.105469 17.015625 C 413.804688 16.875 413.578125 16.679688 413.425781 16.425781 C 413.269531 16.175781 413.191406 15.894531 413.195312 15.589844 C 413.191406 15.316406 413.253906 15.0625 413.382812 14.820312 C 413.507812 14.585938 413.683594 14.386719 413.902344 14.230469 C 414.066406 14.113281 414.289062 14.011719 414.574219 13.925781 C 414.855469 13.839844 415.160156 13.796875 415.484375 13.796875 C 415.972656 13.796875 416.398438 13.867188 416.769531 14.007812 C 417.136719 14.148438 417.410156 14.339844 417.585938 14.582031 C 417.761719 14.824219 417.882812 15.144531 417.953125 15.542969 L 416.921875 15.683594 C 416.871094 15.363281 416.734375 15.113281 416.511719 14.933594 C 416.285156 14.753906 415.96875 14.664062 415.5625 14.664062 C 415.074219 14.664062 414.730469 14.746094 414.523438 14.90625 C 414.3125 15.066406 414.207031 15.253906 414.210938 15.464844 C 414.207031 15.605469 414.25 15.726562 414.34375 15.835938 C 414.421875 15.949219 414.558594 16.042969 414.746094 16.117188 C 414.851562 16.15625 415.160156 16.246094 415.679688 16.386719 C 416.421875 16.585938 416.941406 16.75 417.238281 16.875 C 417.527344 17.003906 417.761719 17.1875 417.933594 17.429688 C 418.101562 17.671875 418.183594 17.972656 418.1875 18.332031 C 418.183594 18.683594 418.082031 19.015625 417.878906 19.328125 C 417.671875 19.640625 417.375 19.882812 416.988281 20.046875 C 416.601562 20.21875 416.164062 20.300781 415.679688 20.300781 C 414.867188 20.300781 414.25 20.132812 413.828125 19.796875 C 413.402344 19.460938 413.132812 18.964844 413.015625 18.300781 Z M 421.742188 19.214844 L 421.894531 20.148438 C 421.597656 20.210938 421.332031 20.242188 421.097656 20.242188 C 420.714844 20.242188 420.417969 20.183594 420.207031 20.0625 C 419.996094 19.941406 419.847656 19.78125 419.761719 19.582031 C 419.675781 19.386719 419.632812 18.972656 419.632812 18.339844 L 419.632812 14.757812 L 418.859375 14.757812 L 418.859375 13.9375 L 419.632812 13.9375 L 419.632812 12.394531 L 420.679688 11.761719 L 420.679688 13.9375 L 421.742188 13.9375 L 421.742188 14.757812 L 420.679688 14.757812 L 420.679688 18.394531 C 420.675781 18.699219 420.695312 18.890625 420.734375 18.976562 C 420.773438 19.0625 420.832031 19.132812 420.917969 19.183594 C 421 19.234375 421.121094 19.257812 421.28125 19.257812 C 421.390625 19.257812 421.546875 19.246094 421.742188 19.214844 Z M 426.246094 20.160156 L 426.246094 11.570312 L 429.203125 11.570312 C 429.871094 11.570312 430.382812 11.613281 430.734375 11.691406 C 431.226562 11.808594 431.644531 12.011719 431.992188 12.308594 C 432.441406 12.691406 432.78125 13.183594 433.007812 13.777344 C 433.234375 14.375 433.347656 15.054688 433.347656 15.816406 C 433.347656 16.472656 433.269531 17.050781 433.117188 17.554688 C 432.964844 18.058594 432.769531 18.476562 432.53125 18.804688 C 432.292969 19.140625 432.03125 19.398438 431.75 19.585938 C 431.464844 19.773438 431.125 19.917969 430.726562 20.015625 C 430.324219 20.113281 429.863281 20.160156 429.34375 20.160156 Z M 427.382812 19.144531 L 429.21875 19.144531 C 429.78125 19.148438 430.226562 19.09375 430.546875 18.988281 C 430.867188 18.886719 431.125 18.738281 431.320312 18.542969 C 431.589844 18.273438 431.796875 17.914062 431.949219 17.457031 C 432.097656 17.003906 432.175781 16.449219 432.175781 15.800781 C 432.175781 14.902344 432.027344 14.214844 431.730469 13.730469 C 431.433594 13.25 431.074219 12.925781 430.65625 12.761719 C 430.351562 12.644531 429.863281 12.585938 429.1875 12.582031 L 427.382812 12.582031 Z M 438.835938 19.394531 C 438.445312 19.726562 438.066406 19.960938 437.707031 20.097656 C 437.339844 20.234375 436.953125 20.300781 436.546875 20.300781 C 435.859375 20.300781 435.335938 20.136719 434.96875 19.800781 C 434.601562 19.472656 434.417969 19.042969 434.417969 18.519531 C 434.417969 18.214844 434.484375 17.9375 434.625 17.6875 C 434.761719 17.4375 434.945312 17.234375 435.171875 17.078125 C 435.394531 16.925781 435.648438 16.8125 435.929688 16.730469 C 436.136719 16.683594 436.449219 16.628906 436.867188 16.574219 C 437.71875 16.472656 438.34375 16.351562 438.75 16.210938 C 438.75 16.070312 438.753906 15.980469 438.753906 15.933594 C 438.753906 15.511719 438.652344 15.207031 438.453125 15.027344 C 438.183594 14.789062 437.785156 14.671875 437.253906 14.667969 C 436.753906 14.671875 436.386719 14.757812 436.152344 14.929688 C 435.917969 15.105469 435.742188 15.414062 435.632812 15.855469 L 434.601562 15.714844 C 434.691406 15.273438 434.847656 14.917969 435.0625 14.644531 C 435.273438 14.378906 435.582031 14.167969 435.992188 14.019531 C 436.394531 13.871094 436.867188 13.796875 437.40625 13.796875 C 437.9375 13.796875 438.367188 13.859375 438.699219 13.984375 C 439.03125 14.109375 439.277344 14.269531 439.433594 14.457031 C 439.589844 14.648438 439.699219 14.886719 439.761719 15.175781 C 439.792969 15.355469 439.808594 15.679688 439.8125 16.144531 L 439.8125 17.550781 C 439.808594 18.535156 439.832031 19.15625 439.878906 19.414062 C 439.925781 19.675781 440.015625 19.921875 440.148438 20.160156 L 439.046875 20.160156 C 438.9375 19.941406 438.867188 19.6875 438.835938 19.394531 Z M 438.75 17.035156 C 438.359375 17.195312 437.785156 17.328125 437.023438 17.433594 C 436.589844 17.5 436.285156 17.570312 436.105469 17.644531 C 435.925781 17.726562 435.785156 17.839844 435.6875 17.988281 C 435.589844 18.140625 435.542969 18.308594 435.542969 18.488281 C 435.542969 18.773438 435.648438 19.007812 435.859375 19.191406 C 436.070312 19.382812 436.382812 19.476562 436.796875 19.472656 C 437.203125 19.476562 437.5625 19.386719 437.878906 19.207031 C 438.195312 19.03125 438.429688 18.789062 438.578125 18.480469 C 438.691406 18.242188 438.746094 17.890625 438.75 17.425781 Z M 443.75 19.214844 L 443.902344 20.148438 C 443.605469 20.210938 443.339844 20.242188 443.105469 20.242188 C 442.722656 20.242188 442.425781 20.183594 442.214844 20.0625 C 442.003906 19.941406 441.855469 19.78125 441.769531 19.582031 C 441.683594 19.386719 441.640625 18.972656 441.640625 18.339844 L 441.640625 14.757812 L 440.867188 14.757812 L 440.867188 13.9375 L 441.640625 13.9375 L 441.640625 12.394531 L 442.6875 11.761719 L 442.6875 13.9375 L 443.75 13.9375 L 443.75 14.757812 L 442.6875 14.757812 L 442.6875 18.394531 C 442.683594 18.699219 442.703125 18.890625 442.742188 18.976562 C 442.78125 19.0625 442.839844 19.132812 442.925781 19.183594 C 443.007812 19.234375 443.128906 19.257812 443.289062 19.257812 C 443.398438 19.257812 443.554688 19.246094 443.75 19.214844 Z M 448.84375 19.394531 C 448.453125 19.726562 448.074219 19.960938 447.714844 20.097656 C 447.347656 20.234375 446.960938 20.300781 446.554688 20.300781 C 445.867188 20.300781 445.34375 20.136719 444.976562 19.800781 C 444.609375 19.472656 444.425781 19.042969 444.425781 18.519531 C 444.425781 18.214844 444.492188 17.9375 444.632812 17.6875 C 444.769531 17.4375 444.953125 17.234375 445.179688 17.078125 C 445.402344 16.925781 445.65625 16.8125 445.9375 16.730469 C 446.144531 16.683594 446.457031 16.628906 446.875 16.574219 C 447.726562 16.472656 448.351562 16.351562 448.757812 16.210938 C 448.757812 16.070312 448.761719 15.980469 448.761719 15.933594 C 448.761719 15.511719 448.660156 15.207031 448.460938 15.027344 C 448.191406 14.789062 447.792969 14.671875 447.261719 14.667969 C 446.761719 14.671875 446.394531 14.757812 446.160156 14.929688 C 445.925781 15.105469 445.75 15.414062 445.640625 15.855469 L 444.609375 15.714844 C 444.699219 15.273438 444.855469 14.917969 445.070312 14.644531 C 445.28125 14.378906 445.589844 14.167969 446 14.019531 C 446.402344 13.871094 446.875 13.796875 447.414062 13.796875 C 447.945312 13.796875 448.375 13.859375 448.707031 13.984375 C 449.039062 14.109375 449.285156 14.269531 449.441406 14.457031 C 449.597656 14.648438 449.707031 14.886719 449.769531 15.175781 C 449.800781 15.355469 449.816406 15.679688 449.820312 16.144531 L 449.820312 17.550781 C 449.816406 18.535156 449.839844 19.15625 449.886719 19.414062 C 449.933594 19.675781 450.023438 19.921875 450.15625 20.160156 L 449.054688 20.160156 C 448.945312 19.941406 448.875 19.6875 448.84375 19.394531 Z M 448.757812 17.035156 C 448.367188 17.195312 447.792969 17.328125 447.03125 17.433594 C 446.597656 17.5 446.292969 17.570312 446.113281 17.644531 C 445.933594 17.726562 445.792969 17.839844 445.695312 17.988281 C 445.597656 18.140625 445.550781 18.308594 445.550781 18.488281 C 445.550781 18.773438 445.65625 19.007812 445.867188 19.191406 C 446.078125 19.382812 446.390625 19.476562 446.804688 19.472656 C 447.210938 19.476562 447.570312 19.386719 447.886719 19.207031 C 448.203125 19.03125 448.4375 18.789062 448.585938 18.480469 C 448.699219 18.242188 448.753906 17.890625 448.757812 17.425781 Z M 451.03125 18.300781 L 452.078125 18.136719 C 452.132812 18.558594 452.296875 18.878906 452.566406 19.101562 C 452.832031 19.324219 453.207031 19.433594 453.6875 19.433594 C 454.171875 19.433594 454.53125 19.335938 454.765625 19.136719 C 455 18.941406 455.117188 18.710938 455.117188 18.441406 C 455.117188 18.207031 455.011719 18.019531 454.804688 17.878906 C 454.660156 17.789062 454.300781 17.667969 453.726562 17.523438 C 452.953125 17.328125 452.417969 17.160156 452.121094 17.015625 C 451.820312 16.875 451.59375 16.679688 451.441406 16.425781 C 451.285156 16.175781 451.207031 15.894531 451.210938 15.589844 C 451.207031 15.316406 451.269531 15.0625 451.398438 14.820312 C 451.523438 14.585938 451.699219 14.386719 451.917969 14.230469 C 452.082031 14.113281 452.304688 14.011719 452.589844 13.925781 C 452.871094 13.839844 453.175781 13.796875 453.5 13.796875 C 453.988281 13.796875 454.414062 13.867188 454.785156 14.007812 C 455.152344 14.148438 455.425781 14.339844 455.601562 14.582031 C 455.777344 14.824219 455.898438 15.144531 455.96875 15.542969 L 454.9375 15.683594 C 454.886719 15.363281 454.75 15.113281 454.527344 14.933594 C 454.300781 14.753906 453.984375 14.664062 453.578125 14.664062 C 453.089844 14.664062 452.746094 14.746094 452.539062 14.90625 C 452.328125 15.066406 452.222656 15.253906 452.226562 15.464844 C 452.222656 15.605469 452.265625 15.726562 452.359375 15.835938 C 452.4375 15.949219 452.574219 16.042969 452.761719 16.117188 C 452.867188 16.15625 453.175781 16.246094 453.695312 16.386719 C 454.4375 16.585938 454.957031 16.75 455.253906 16.875 C 455.542969 17.003906 455.777344 17.1875 455.949219 17.429688 C 456.117188 17.671875 456.199219 17.972656 456.203125 18.332031 C 456.199219 18.683594 456.097656 19.015625 455.894531 19.328125 C 455.6875 19.640625 455.390625 19.882812 455.003906 20.046875 C 454.617188 20.21875 454.179688 20.300781 453.695312 20.300781 C 452.882812 20.300781 452.265625 20.132812 451.84375 19.796875 C 451.417969 19.460938 451.148438 18.964844 451.03125 18.300781 Z M 461.714844 18.15625 L 462.804688 18.292969 C 462.632812 18.929688 462.3125 19.421875 461.847656 19.773438 C 461.382812 20.125 460.789062 20.300781 460.070312 20.300781 C 459.15625 20.300781 458.433594 20.023438 457.902344 19.460938 C 457.363281 18.90625 457.097656 18.117188 457.101562 17.101562 C 457.097656 16.054688 457.367188 15.242188 457.910156 14.664062 C 458.445312 14.085938 459.144531 13.796875 460.007812 13.796875 C 460.839844 13.796875 461.519531 14.082031 462.046875 14.648438 C 462.574219 15.214844 462.839844 16.011719 462.839844 17.035156 C 462.839844 17.101562 462.835938 17.195312 462.835938 17.316406 L 458.195312 17.316406 C 458.226562 18.003906 458.421875 18.527344 458.773438 18.890625 C 459.121094 19.253906 459.554688 19.433594 460.074219 19.433594 C 460.460938 19.433594 460.789062 19.332031 461.066406 19.128906 C 461.335938 18.925781 461.554688 18.601562 461.714844 18.15625 Z M 458.25 16.449219 L 461.726562 16.449219 C 461.679688 15.933594 461.546875 15.539062 461.328125 15.273438 C 460.992188 14.867188 460.554688 14.664062 460.023438 14.664062 C 459.535156 14.664062 459.128906 14.828125 458.800781 15.152344 C 458.46875 15.476562 458.285156 15.910156 458.25 16.449219 Z M 466.433594 19.214844 L 466.585938 20.148438 C 466.289062 20.210938 466.023438 20.242188 465.789062 20.242188 C 465.40625 20.242188 465.109375 20.183594 464.898438 20.0625 C 464.6875 19.941406 464.539062 19.78125 464.453125 19.582031 C 464.367188 19.386719 464.324219 18.972656 464.324219 18.339844 L 464.324219 14.757812 L 463.550781 14.757812 L 463.550781 13.9375 L 464.324219 13.9375 L 464.324219 12.394531 L 465.371094 11.761719 L 465.371094 13.9375 L 466.433594 13.9375 L 466.433594 14.757812 L 465.371094 14.757812 L 465.371094 18.394531 C 465.367188 18.699219 465.386719 18.890625 465.425781 18.976562 C 465.464844 19.0625 465.523438 19.132812 465.609375 19.183594 C 465.691406 19.234375 465.8125 19.257812 465.972656 19.257812 C 466.082031 19.257812 466.238281 19.246094 466.433594 19.214844 Z M 379.328125 9.296875 "/>
<path fill="none" stroke-width="1" stroke-linecap="butt" stroke-linejoin="miter" stroke="rgb(0%, 0%, 0%)" stroke-opacity="0.0980392" stroke-miterlimit="10" d="M 62.5 32 L 62.5 572 "/>
<path fill-rule="nonzero" fill="rgb(40%, 40%, 40%)" fill-opacity="1" d="M 8.359375 72.265625 L 9.386719 72.125 C 9.414062 72.78125 9.535156 73.230469 9.757812 73.472656 C 9.972656 73.714844 10.277344 73.835938 10.664062 73.835938 C 10.949219 73.835938 11.195312 73.773438 11.402344 73.640625 C 11.605469 73.515625 11.746094 73.335938 11.828125 73.109375 C 11.902344 72.882812 11.941406 72.523438 11.945312 72.03125 L 11.945312 66.113281 L 13.085938 66.113281 L 13.085938 71.96875 C 13.082031 72.691406 12.996094 73.246094 12.824219 73.636719 C 12.648438 74.03125 12.371094 74.332031 11.996094 74.539062 C 11.613281 74.746094 11.171875 74.847656 10.671875 74.851562 C 9.914062 74.847656 9.335938 74.632812 8.9375 74.199219 C 8.53125 73.765625 8.339844 73.121094 8.359375 72.265625 Z M 18.867188 73.9375 C 18.476562 74.269531 18.097656 74.503906 17.738281 74.640625 C 17.371094 74.777344 16.984375 74.84375 16.578125 74.84375 C 15.890625 74.84375 15.367188 74.679688 15 74.34375 C 14.632812 74.015625 14.449219 73.585938 14.449219 73.0625 C 14.449219 72.757812 14.515625 72.480469 14.65625 72.230469 C 14.792969 71.980469 14.976562 71.777344 15.203125 71.621094 C 15.425781 71.46875 15.679688 71.355469 15.960938 71.273438 C 16.167969 71.226562 16.480469 71.171875 16.898438 71.117188 C 17.75 71.015625 18.375 70.894531 18.78125 70.753906 C 18.78125 70.613281 18.785156 70.523438 18.785156 70.476562 C 18.785156 70.054688 18.683594 69.75 18.484375 69.570312 C 18.214844 69.332031 17.816406 69.214844 17.285156 69.210938 C 16.785156 69.214844 16.417969 69.300781 16.183594 69.472656 C 15.949219 69.648438 15.773438 69.957031 15.664062 70.398438 L 14.632812 70.257812 C 14.722656 69.816406 14.878906 69.460938 15.09375 69.1875 C 15.304688 68.921875 15.613281 68.710938 16.023438 68.5625 C 16.425781 68.414062 16.898438 68.339844 17.4375 68.339844 C 17.96875 68.339844 18.398438 68.402344 18.730469 68.527344 C 19.0625 68.652344 19.308594 68.8125 19.464844 69 C 19.621094 69.191406 19.730469 69.429688 19.792969 69.71875 C 19.824219 69.898438 19.839844 70.222656 19.84375 70.6875 L 19.84375 72.09375 C 19.839844 73.078125 19.863281 73.699219 19.910156 73.957031 C 19.957031 74.21875 20.046875 74.464844 20.179688 74.703125 L 19.078125 74.703125 C 18.96875 74.484375 18.898438 74.230469 18.867188 73.9375 Z M 18.78125 71.578125 C 18.390625 71.738281 17.816406 71.871094 17.054688 71.976562 C 16.621094 72.042969 16.316406 72.113281 16.136719 72.1875 C 15.957031 72.269531 15.816406 72.382812 15.71875 72.53125 C 15.621094 72.683594 15.574219 72.851562 15.574219 73.03125 C 15.574219 73.316406 15.679688 73.550781 15.890625 73.734375 C 16.101562 73.925781 16.414062 74.019531 16.828125 74.015625 C 17.234375 74.019531 17.59375 73.929688 17.910156 73.75 C 18.226562 73.574219 18.460938 73.332031 18.609375 73.023438 C 18.722656 72.785156 18.777344 72.433594 18.78125 71.96875 Z M 21.476562 74.703125 L 21.476562 68.480469 L 22.429688 68.480469 L 22.429688 69.367188 C 22.882812 68.683594 23.542969 68.339844 24.40625 68.339844 C 24.777344 68.339844 25.121094 68.410156 25.441406 68.542969 C 25.753906 68.679688 25.992188 68.855469 26.148438 69.070312 C 26.304688 69.292969 26.414062 69.550781 26.476562 69.851562 C 26.515625 70.046875 26.535156 70.390625 26.535156 70.875 L 26.535156 74.703125 L 25.480469 74.703125 L 25.480469 70.917969 C 25.480469 70.488281 25.4375 70.167969 25.355469 69.953125 C 25.273438 69.742188 25.128906 69.574219 24.921875 69.445312 C 24.710938 69.320312 24.464844 69.253906 24.1875 69.253906 C 23.734375 69.253906 23.347656 69.398438 23.019531 69.683594 C 22.691406 69.96875 22.527344 70.507812 22.53125 71.304688 L 22.53125 74.703125 Z M 32.230469 74.703125 L 32.230469 73.789062 C 31.742188 74.492188 31.085938 74.84375 30.257812 74.84375 C 29.890625 74.84375 29.546875 74.773438 29.230469 74.632812 C 28.910156 74.492188 28.671875 74.316406 28.519531 74.101562 C 28.363281 73.890625 28.257812 73.628906 28.195312 73.320312 C 28.148438 73.113281 28.125 72.785156 28.128906 72.335938 L 28.128906 68.480469 L 29.183594 68.480469 L 29.183594 71.929688 C 29.179688 72.484375 29.203125 72.855469 29.25 73.046875 C 29.3125 73.324219 29.453125 73.542969 29.671875 73.699219 C 29.886719 73.863281 30.152344 73.941406 30.46875 73.9375 C 30.78125 73.941406 31.078125 73.859375 31.359375 73.695312 C 31.636719 73.53125 31.832031 73.3125 31.949219 73.03125 C 32.0625 72.753906 32.121094 72.347656 32.121094 71.8125 L 32.121094 68.480469 L 33.175781 68.480469 L 33.175781 74.703125 Z M 38.890625 73.9375 C 38.5 74.269531 38.121094 74.503906 37.761719 74.640625 C 37.394531 74.777344 37.007812 74.84375 36.601562 74.84375 C 35.914062 74.84375 35.390625 74.679688 35.023438 74.34375 C 34.65625 74.015625 34.472656 73.585938 34.472656 73.0625 C 34.472656 72.757812 34.539062 72.480469 34.679688 72.230469 C 34.816406 71.980469 35 71.777344 35.226562 71.621094 C 35.449219 71.46875 35.703125 71.355469 35.984375 71.273438 C 36.191406 71.226562 36.503906 71.171875 36.921875 71.117188 C 37.773438 71.015625 38.398438 70.894531 38.804688 70.753906 C 38.804688 70.613281 38.808594 70.523438 38.808594 70.476562 C 38.808594 70.054688 38.707031 69.75 38.507812 69.570312 C 38.238281 69.332031 37.839844 69.214844 37.308594 69.210938 C 36.808594 69.214844 36.441406 69.300781 36.207031 69.472656 C 35.972656 69.648438 35.796875 69.957031 35.6875 70.398438 L 34.65625 70.257812 C 34.746094 69.816406 34.902344 69.460938 35.117188 69.1875 C 35.328125 68.921875 35.636719 68.710938 36.046875 68.5625 C 36.449219 68.414062 36.921875 68.339844 37.460938 68.339844 C 37.992188 68.339844 38.421875 68.402344 38.753906 68.527344 C 39.085938 68.652344 39.332031 68.8125 39.488281 69 C 39.644531 69.191406 39.753906 69.429688 39.816406 69.71875 C 39.847656 69.898438 39.863281 70.222656 39.867188 70.6875 L 39.867188 72.09375 C 39.863281 73.078125 39.886719 73.699219 39.933594 73.957031 C 39.980469 74.21875 40.070312 74.464844 40.203125 74.703125 L 39.101562 74.703125 C 38.992188 74.484375 38.921875 74.230469 38.890625 73.9375 Z M 38.804688 71.578125 C 38.414062 71.738281 37.839844 71.871094 37.078125 71.976562 C 36.644531 72.042969 36.339844 72.113281 36.160156 72.1875 C 35.980469 72.269531 35.839844 72.382812 35.742188 72.53125 C 35.644531 72.683594 35.597656 72.851562 35.597656 73.03125 C 35.597656 73.316406 35.703125 73.550781 35.914062 73.734375 C 36.125 73.925781 36.4375 74.019531 36.851562 74.015625 C 37.257812 74.019531 37.617188 73.929688 37.933594 73.75 C 38.25 73.574219 38.484375 73.332031 38.632812 73.023438 C 38.746094 72.785156 38.800781 72.433594 38.804688 71.96875 Z M 41.492188 74.703125 L 41.492188 68.480469 L 42.4375 68.480469 L 42.4375 69.421875 C 42.679688 68.984375 42.902344 68.691406 43.109375 68.550781 C 43.3125 68.410156 43.539062 68.339844 43.789062 68.339844 C 44.140625 68.339844 44.503906 68.453125 44.871094 68.679688 L 44.507812 69.65625 C 44.25 69.507812 43.992188 69.429688 43.734375 69.429688 C 43.503906 69.429688 43.296875 69.5 43.113281 69.636719 C 42.925781 69.777344 42.792969 69.96875 42.71875 70.214844 C 42.601562 70.589844 42.542969 71 42.546875 71.445312 L 42.546875 74.703125 Z M 45.449219 77.101562 L 45.332031 76.109375 C 45.5625 76.171875 45.765625 76.203125 45.9375 76.203125 C 46.171875 76.203125 46.359375 76.164062 46.5 76.085938 C 46.640625 76.007812 46.753906 75.898438 46.847656 75.757812 C 46.910156 75.652344 47.019531 75.390625 47.167969 74.972656 C 47.1875 74.910156 47.21875 74.824219 47.261719 74.714844 L 44.902344 68.480469 L 46.035156 68.480469 L 47.332031 72.085938 C 47.496094 72.542969 47.644531 73.023438 47.785156 73.523438 C 47.902344 73.042969 48.046875 72.570312 48.214844 72.109375 L 49.546875 68.480469 L 50.601562 68.480469 L 48.234375 74.808594 C 47.980469 75.492188 47.78125 75.960938 47.644531 76.21875 C 47.453125 76.566406 47.238281 76.820312 47 76.984375 C 46.753906 77.140625 46.464844 77.222656 46.128906 77.226562 C 45.921875 77.222656 45.695312 77.179688 45.449219 77.101562 Z M 8.015625 63.839844 "/>
<path fill-rule="nonzero" fill="rgb(40%, 40%, 40%)" fill-opacity="1" d="M 3 151.789062 L 3 143.199219 L 8.796875 143.199219 L 8.796875 144.210938 L 4.136719 144.210938 L 4.136719 146.875 L 8.167969 146.875 L 8.167969 147.886719 L 4.136719 147.886719 L 4.136719 151.789062 Z M 14.394531 149.785156 L 15.484375 149.921875 C 15.3125 150.558594 14.992188 151.050781 14.527344 151.402344 C 14.0625 151.753906 13.46875 151.929688 12.75 151.929688 C 11.835938 151.929688 11.113281 151.652344 10.582031 151.089844 C 10.042969 150.535156 9.777344 149.746094 9.78125 148.730469 C 9.777344 147.683594 10.046875 146.871094 10.589844 146.292969 C 11.125 145.714844 11.824219 145.425781 12.6875 145.425781 C 13.519531 145.425781 14.199219 145.710938 14.726562 146.277344 C 15.253906 146.84375 15.519531 147.640625 15.519531 148.664062 C 15.519531 148.730469 15.515625 148.824219 15.515625 148.945312 L 10.875 148.945312 C 10.90625 149.632812 11.101562 150.15625 11.453125 150.519531 C 11.800781 150.882812 12.234375 151.0625 12.753906 151.0625 C 13.140625 151.0625 13.46875 150.960938 13.746094 150.757812 C 14.015625 150.554688 14.234375 150.230469 14.394531 149.785156 Z M 10.929688 148.078125 L 14.40625 148.078125 C 14.359375 147.5625 14.226562 147.167969 14.007812 146.902344 C 13.671875 146.496094 13.234375 146.292969 12.703125 146.292969 C 12.214844 146.292969 11.808594 146.457031 11.480469 146.78125 C 11.148438 147.105469 10.964844 147.539062 10.929688 148.078125 Z M 17.785156 151.789062 L 16.804688 151.789062 L 16.804688 143.199219 L 17.859375 143.199219 L 17.859375 146.265625 C 18.304688 145.707031 18.871094 145.425781 19.566406 145.425781 C 19.941406 145.425781 20.304688 145.503906 20.648438 145.660156 C 20.992188 145.816406 21.273438 146.035156 21.492188 146.308594 C 21.710938 146.589844 21.882812 146.925781 22.011719 147.320312 C 22.132812 147.714844 22.195312 148.136719 22.199219 148.585938 C 22.195312 149.652344 21.933594 150.476562 21.410156 151.058594 C 20.882812 151.640625 20.25 151.929688 19.511719 151.929688 C 18.777344 151.929688 18.199219 151.625 17.785156 151.007812 Z M 17.769531 148.632812 C 17.765625 149.378906 17.867188 149.917969 18.074219 150.25 C 18.40625 150.792969 18.855469 151.0625 19.425781 151.0625 C 19.878906 151.0625 20.277344 150.863281 20.617188 150.460938 C 20.949219 150.0625 21.117188 149.464844 21.121094 148.671875 C 21.117188 147.859375 20.957031 147.261719 20.636719 146.875 C 20.316406 146.488281 19.925781 146.292969 19.472656 146.292969 C 19.003906 146.292969 18.605469 146.496094 18.273438 146.894531 C 17.933594 147.296875 17.765625 147.875 17.769531 148.632812 Z M 23.476562 151.789062 L 23.476562 145.566406 L 24.421875 145.566406 L 24.421875 146.507812 C 24.664062 146.070312 24.886719 145.777344 25.09375 145.636719 C 25.296875 145.496094 25.523438 145.425781 25.773438 145.425781 C 26.125 145.425781 26.488281 145.539062 26.855469 145.765625 L 26.492188 146.742188 C 26.234375 146.59375 25.976562 146.515625 25.71875 146.515625 C 25.488281 146.515625 25.28125 146.585938 25.097656 146.722656 C 24.910156 146.863281 24.777344 147.054688 24.703125 147.300781 C 24.585938 147.675781 24.527344 148.085938 24.53125 148.53125 L 24.53125 151.789062 Z M 31.554688 151.789062 L 31.554688 150.875 C 31.066406 151.578125 30.410156 151.929688 29.582031 151.929688 C 29.214844 151.929688 28.871094 151.859375 28.554688 151.71875 C 28.234375 151.578125 27.996094 151.402344 27.84375 151.1875 C 27.6875 150.976562 27.582031 150.714844 27.519531 150.40625 C 27.472656 150.199219 27.449219 149.871094 27.453125 149.421875 L 27.453125 145.566406 L 28.507812 145.566406 L 28.507812 149.015625 C 28.503906 149.570312 28.527344 149.941406 28.574219 150.132812 C 28.636719 150.410156 28.777344 150.628906 28.996094 150.785156 C 29.210938 150.949219 29.476562 151.027344 29.792969 151.023438 C 30.105469 151.027344 30.402344 150.945312 30.683594 150.78125 C 30.960938 150.617188 31.15625 150.398438 31.273438 150.117188 C 31.386719 149.839844 31.445312 149.433594 31.445312 148.898438 L 31.445312 145.566406 L 32.5 145.566406 L 32.5 151.789062 Z M 38.214844 151.023438 C 37.824219 151.355469 37.445312 151.589844 37.085938 151.726562 C 36.71875 151.863281 36.332031 151.929688 35.925781 151.929688 C 35.238281 151.929688 34.714844 151.765625 34.347656 151.429688 C 33.980469 151.101562 33.796875 150.671875 33.796875 150.148438 C 33.796875 149.84375 33.863281 149.566406 34.003906 149.316406 C 34.140625 149.066406 34.324219 148.863281 34.550781 148.707031 C 34.773438 148.554688 35.027344 148.441406 35.308594 148.359375 C 35.515625 148.3125 35.828125 148.257812 36.246094 148.203125 C 37.097656 148.101562 37.722656 147.980469 38.128906 147.839844 C 38.128906 147.699219 38.132812 147.609375 38.132812 147.5625 C 38.132812 147.140625 38.03125 146.835938 37.832031 146.65625 C 37.5625 146.417969 37.164062 146.300781 36.632812 146.296875 C 36.132812 146.300781 35.765625 146.386719 35.53125 146.558594 C 35.296875 146.734375 35.121094 147.042969 35.011719 147.484375 L 33.980469 147.34375 C 34.070312 146.902344 34.226562 146.546875 34.441406 146.273438 C 34.652344 146.007812 34.960938 145.796875 35.371094 145.648438 C 35.773438 145.5 36.246094 145.425781 36.785156 145.425781 C 37.316406 145.425781 37.746094 145.488281 38.078125 145.613281 C 38.410156 145.738281 38.65625 145.898438 38.8125 146.085938 C 38.96875 146.277344 39.078125 146.515625 39.140625 146.804688 C 39.171875 146.984375 39.1875 147.308594 39.191406 147.773438 L 39.191406 149.179688 C 39.1875 150.164062 39.210938 150.785156 39.257812 151.042969 C 39.304688 151.304688 39.394531 151.550781 39.527344 151.789062 L 38.425781 151.789062 C 38.316406 151.570312 38.246094 151.316406 38.214844 151.023438 Z M 38.128906 148.664062 C 37.738281 148.824219 37.164062 148.957031 36.402344 149.0625 C 35.96875 149.128906 35.664062 149.199219 35.484375 149.273438 C 35.304688 149.355469 35.164062 149.46875 35.066406 149.617188 C 34.96875 149.769531 34.921875 149.9375 34.921875 150.117188 C 34.921875 150.402344 35.027344 150.636719 35.238281 150.820312 C 35.449219 151.011719 35.761719 151.105469 36.175781 151.101562 C 36.582031 151.105469 36.941406 151.015625 37.257812 150.835938 C 37.574219 150.660156 37.808594 150.417969 37.957031 150.109375 C 38.070312 149.871094 38.125 149.519531 38.128906 149.054688 Z M 40.820312 151.789062 L 40.820312 145.566406 L 41.765625 145.566406 L 41.765625 146.507812 C 42.007812 146.070312 42.230469 145.777344 42.4375 145.636719 C 42.640625 145.496094 42.867188 145.425781 43.117188 145.425781 C 43.46875 145.425781 43.832031 145.539062 44.199219 145.765625 L 43.835938 146.742188 C 43.578125 146.59375 43.320312 146.515625 43.0625 146.515625 C 42.832031 146.515625 42.625 146.585938 42.441406 146.722656 C 42.253906 146.863281 42.121094 147.054688 42.046875 147.300781 C 41.929688 147.675781 41.871094 148.085938 41.875 148.53125 L 41.875 151.789062 Z M 44.773438 154.1875 L 44.65625 153.195312 C 44.886719 153.257812 45.089844 153.289062 45.261719 153.289062 C 45.496094 153.289062 45.683594 153.25 45.824219 153.171875 C 45.964844 153.09375 46.078125 152.984375 46.171875 152.84375 C 46.234375 152.738281 46.34375 152.476562 46.492188 152.058594 C 46.511719 151.996094 46.542969 151.910156 46.585938 151.800781 L 44.226562 145.566406 L 45.359375 145.566406 L 46.65625 149.171875 C 46.820312 149.628906 46.96875 150.109375 47.109375 150.609375 C 47.226562 150.128906 47.371094 149.65625 47.539062 149.195312 L 48.871094 145.566406 L 49.925781 145.566406 L 47.558594 151.894531 C 47.304688 152.578125 47.105469 153.046875 46.96875 153.304688 C 46.777344 153.652344 46.5625 153.90625 46.324219 154.070312 C 46.078125 154.226562 45.789062 154.308594 45.453125 154.3125 C 45.246094 154.308594 45.019531 154.265625 44.773438 154.1875 Z M 2.015625 140.925781 "/>
<path fill-rule="nonzero" fill="rgb(40%, 40%, 40%)" fill-opacity="1" d="M 17.90625 228.875 L 17.90625 220.285156 L 19.617188 220.285156 L 21.648438 226.367188 C 21.832031 226.9375 21.96875 227.363281 22.0625 227.640625 C 22.15625 227.332031 22.308594 226.871094 22.515625 226.261719 L 24.574219 220.285156 L 26.101562 220.285156 L 26.101562 228.875 L 25.007812 228.875 L 25.007812 221.6875 L 22.511719 228.875 L 21.484375 228.875 L 19 221.5625 L 19 228.875 Z M 31.863281 228.109375 C 31.472656 228.441406 31.09375 228.675781 30.734375 228.8125 C 30.367188 228.949219 29.980469 229.015625 29.574219 229.015625 C 28.886719 229.015625 28.363281 228.851562 27.996094 228.515625 C 27.628906 228.1875 27.445312 227.757812 27.445312 227.234375 C 27.445312 226.929688 27.511719 226.652344 27.652344 226.402344 C 27.789062 226.152344 27.972656 225.949219 28.199219 225.792969 C 28.421875 225.640625 28.675781 225.527344 28.957031 225.445312 C 29.164062 225.398438 29.476562 225.34375 29.894531 225.289062 C 30.746094 225.1875 31.371094 225.066406 31.777344 224.925781 C 31.777344 224.785156 31.78125 224.695312 31.78125 224.648438 C 31.78125 224.226562 31.679688 223.921875 31.480469 223.742188 C 31.210938 223.503906 30.8125 223.386719 30.28125 223.382812 C 29.78125 223.386719 29.414062 223.472656 29.179688 223.644531 C 28.945312 223.820312 28.769531 224.128906 28.660156 224.570312 L 27.628906 224.429688 C 27.71875 223.988281 27.875 223.632812 28.089844 223.359375 C 28.300781 223.09375 28.609375 222.882812 29.019531 222.734375 C 29.421875 222.585938 29.894531 222.511719 30.433594 222.511719 C 30.964844 222.511719 31.394531 222.574219 31.726562 222.699219 C 32.058594 222.824219 32.304688 222.984375 32.460938 223.171875 C 32.617188 223.363281 32.726562 223.601562 32.789062 223.890625 C 32.820312 224.070312 32.835938 224.394531 32.839844 224.859375 L 32.839844 226.265625 C 32.835938 227.25 32.859375 227.871094 32.90625 228.128906 C 32.953125 228.390625 33.042969 228.636719 33.175781 228.875 L 32.074219 228.875 C 31.964844 228.65625 31.894531 228.402344 31.863281 228.109375 Z M 31.777344 225.75 C 31.386719 225.910156 30.8125 226.042969 30.050781 226.148438 C 29.617188 226.214844 29.3125 226.285156 29.132812 226.359375 C 28.953125 226.441406 28.8125 226.554688 28.714844 226.703125 C 28.617188 226.855469 28.570312 227.023438 28.570312 227.203125 C 28.570312 227.488281 28.675781 227.722656 28.886719 227.90625 C 29.097656 228.097656 29.410156 228.191406 29.824219 228.1875 C 30.230469 228.191406 30.589844 228.101562 30.90625 227.921875 C 31.222656 227.746094 31.457031 227.503906 31.605469 227.195312 C 31.71875 226.957031 31.773438 226.605469 31.777344 226.140625 Z M 34.46875 228.875 L 34.46875 222.652344 L 35.414062 222.652344 L 35.414062 223.59375 C 35.65625 223.15625 35.878906 222.863281 36.085938 222.722656 C 36.289062 222.582031 36.515625 222.511719 36.765625 222.511719 C 37.117188 222.511719 37.480469 222.625 37.847656 222.851562 L 37.484375 223.828125 C 37.226562 223.679688 36.96875 223.601562 36.710938 223.601562 C 36.480469 223.601562 36.273438 223.671875 36.089844 223.808594 C 35.902344 223.949219 35.769531 224.140625 35.695312 224.386719 C 35.578125 224.761719 35.519531 225.171875 35.523438 225.617188 L 35.523438 228.875 Z M 42.53125 226.59375 L 43.570312 226.730469 C 43.453125 227.449219 43.164062 228.011719 42.699219 228.410156 C 42.230469 228.816406 41.65625 229.015625 40.976562 229.015625 C 40.125 229.015625 39.441406 228.738281 38.925781 228.179688 C 38.40625 227.625 38.148438 226.828125 38.148438 225.789062 C 38.148438 225.121094 38.257812 224.53125 38.480469 224.023438 C 38.703125 223.519531 39.042969 223.144531 39.496094 222.890625 C 39.949219 222.640625 40.445312 222.511719 40.984375 222.511719 C 41.660156 222.511719 42.210938 222.683594 42.644531 223.027344 C 43.070312 223.371094 43.347656 223.855469 43.46875 224.480469 L 42.445312 224.640625 C 42.34375 224.222656 42.171875 223.90625 41.925781 223.695312 C 41.675781 223.484375 41.375 223.378906 41.023438 223.378906 C 40.488281 223.378906 40.058594 223.570312 39.730469 223.953125 C 39.398438 224.335938 39.230469 224.9375 39.234375 225.757812 C 39.230469 226.59375 39.390625 227.203125 39.714844 227.582031 C 40.03125 227.960938 40.449219 228.148438 40.96875 228.148438 C 41.375 228.148438 41.722656 228.023438 42.003906 227.769531 C 42.28125 227.515625 42.457031 227.125 42.53125 226.59375 Z M 44.46875 228.875 L 44.46875 220.285156 L 45.523438 220.285156 L 45.523438 223.367188 C 46.015625 222.796875 46.636719 222.511719 47.390625 222.511719 C 47.84375 222.511719 48.246094 222.605469 48.589844 222.785156 C 48.929688 222.96875 49.171875 223.21875 49.320312 223.535156 C 49.464844 223.859375 49.539062 224.324219 49.539062 224.929688 L 49.539062 228.875 L 48.484375 228.875 L 48.484375 224.929688 C 48.484375 224.40625 48.367188 224.023438 48.140625 223.78125 C 47.90625 223.546875 47.585938 223.425781 47.171875 223.421875 C 46.859375 223.425781 46.5625 223.507812 46.289062 223.664062 C 46.007812 223.828125 45.8125 224.046875 45.699219 224.324219 C 45.578125 224.601562 45.519531 224.984375 45.523438 225.46875 L 45.523438 228.875 Z M 17.015625 218.011719 "/>
<path fill-rule="nonzero" fill="rgb(40%, 40%, 40%)" fill-opacity="1" d="M 26 305.960938 L 29.296875 297.371094 L 30.523438 297.371094 L 34.039062 305.960938 L 32.742188 305.960938 L 31.742188 303.359375 L 28.148438 303.359375 L 27.203125 305.960938 Z M 28.476562 302.433594 L 31.390625 302.433594 L 30.492188 300.054688 C 30.21875 299.332031 30.015625 298.738281 29.882812 298.273438 C 29.773438 298.828125 29.617188 299.375 29.421875 299.914062 Z M 34.808594 308.34375 L 34.808594 299.738281 L 35.769531 299.738281 L 35.769531 300.546875 C 35.996094 300.230469 36.253906 299.996094 36.539062 299.835938 C 36.820312 299.679688 37.164062 299.597656 37.574219 299.597656 C 38.101562 299.597656 38.570312 299.734375 38.980469 300.007812 C 39.382812 300.28125 39.691406 300.667969 39.902344 301.167969 C 40.109375 301.667969 40.210938 302.214844 40.214844 302.804688 C 40.210938 303.441406 40.097656 304.015625 39.871094 304.523438 C 39.640625 305.039062 39.308594 305.429688 38.875 305.695312 C 38.4375 305.96875 37.980469 306.101562 37.5 306.101562 C 37.148438 306.101562 36.832031 306.027344 36.554688 305.878906 C 36.273438 305.730469 36.042969 305.542969 35.863281 305.316406 L 35.863281 308.34375 Z M 35.765625 302.882812 C 35.765625 303.6875 35.925781 304.277344 36.25 304.660156 C 36.574219 305.042969 36.96875 305.234375 37.429688 305.234375 C 37.898438 305.234375 38.296875 305.039062 38.632812 304.640625 C 38.964844 304.25 39.132812 303.632812 39.136719 302.796875 C 39.132812 302.007812 38.96875 301.414062 38.644531 301.015625 C 38.316406 300.621094 37.929688 300.425781 37.476562 300.421875 C 37.023438 300.425781 36.625 300.636719 36.28125 301.054688 C 35.9375 301.476562 35.765625 302.085938 35.765625 302.882812 Z M 41.476562 305.960938 L 41.476562 299.738281 L 42.421875 299.738281 L 42.421875 300.679688 C 42.664062 300.242188 42.886719 299.949219 43.09375 299.808594 C 43.296875 299.667969 43.523438 299.597656 43.773438 299.597656 C 44.125 299.597656 44.488281 299.710938 44.855469 299.9375 L 44.492188 300.914062 C 44.234375 300.765625 43.976562 300.6875 43.71875 300.6875 C 43.488281 300.6875 43.28125 300.757812 43.097656 300.894531 C 42.910156 301.035156 42.777344 301.226562 42.703125 301.472656 C 42.585938 301.847656 42.527344 302.257812 42.53125 302.703125 L 42.53125 305.960938 Z M 45.484375 298.585938 L 45.484375 297.371094 L 46.539062 297.371094 L 46.539062 298.585938 Z M 45.484375 305.960938 L 45.484375 299.738281 L 46.539062 299.738281 L 46.539062 305.960938 Z M 48.121094 305.960938 L 48.121094 297.371094 L 49.175781 297.371094 L 49.175781 305.960938 Z M 26.015625 295.097656 "/>
<path fill-rule="nonzero" fill="rgb(40%, 40%, 40%)" fill-opacity="1" d="M 28.90625 383.046875 L 28.90625 374.457031 L 30.617188 374.457031 L 32.648438 380.539062 C 32.832031 381.109375 32.96875 381.535156 33.0625 381.8125 C 33.15625 381.503906 33.308594 381.042969 33.515625 380.433594 L 35.574219 374.457031 L 37.101562 374.457031 L 37.101562 383.046875 L 36.007812 383.046875 L 36.007812 375.859375 L 33.511719 383.046875 L 32.484375 383.046875 L 30 375.734375 L 30 383.046875 Z M 42.863281 382.28125 C 42.472656 382.613281 42.09375 382.847656 41.734375 382.984375 C 41.367188 383.121094 40.980469 383.1875 40.574219 383.1875 C 39.886719 383.1875 39.363281 383.023438 38.996094 382.6875 C 38.628906 382.359375 38.445312 381.929688 38.445312 381.40625 C 38.445312 381.101562 38.511719 380.824219 38.652344 380.574219 C 38.789062 380.324219 38.972656 380.121094 39.199219 379.964844 C 39.421875 379.8125 39.675781 379.699219 39.957031 379.617188 C 40.164062 379.570312 40.476562 379.515625 40.894531 379.460938 C 41.746094 379.359375 42.371094 379.238281 42.777344 379.097656 C 42.777344 378.957031 42.78125 378.867188 42.78125 378.820312 C 42.78125 378.398438 42.679688 378.09375 42.480469 377.914062 C 42.210938 377.675781 41.8125 377.558594 41.28125 377.554688 C 40.78125 377.558594 40.414062 377.644531 40.179688 377.816406 C 39.945312 377.992188 39.769531 378.300781 39.660156 378.742188 L 38.628906 378.601562 C 38.71875 378.160156 38.875 377.804688 39.089844 377.53125 C 39.300781 377.265625 39.609375 377.054688 40.019531 376.90625 C 40.421875 376.757812 40.894531 376.683594 41.433594 376.683594 C 41.964844 376.683594 42.394531 376.746094 42.726562 376.871094 C 43.058594 376.996094 43.304688 377.15625 43.460938 377.34375 C 43.617188 377.535156 43.726562 377.773438 43.789062 378.0625 C 43.820312 378.242188 43.835938 378.566406 43.839844 379.03125 L 43.839844 380.4375 C 43.835938 381.421875 43.859375 382.042969 43.90625 382.300781 C 43.953125 382.5625 44.042969 382.808594 44.175781 383.046875 L 43.074219 383.046875 C 42.964844 382.828125 42.894531 382.574219 42.863281 382.28125 Z M 42.777344 379.921875 C 42.386719 380.082031 41.8125 380.214844 41.050781 380.320312 C 40.617188 380.386719 40.3125 380.457031 40.132812 380.53125 C 39.953125 380.613281 39.8125 380.726562 39.714844 380.875 C 39.617188 381.027344 39.570312 381.195312 39.570312 381.375 C 39.570312 381.660156 39.675781 381.894531 39.886719 382.078125 C 40.097656 382.269531 40.410156 382.363281 40.824219 382.359375 C 41.230469 382.363281 41.589844 382.273438 41.90625 382.09375 C 42.222656 381.917969 42.457031 381.675781 42.605469 381.367188 C 42.71875 381.128906 42.773438 380.777344 42.777344 380.3125 Z M 45.429688 385.445312 L 45.3125 384.453125 C 45.542969 384.515625 45.746094 384.546875 45.917969 384.546875 C 46.152344 384.546875 46.339844 384.507812 46.480469 384.429688 C 46.621094 384.351562 46.734375 384.242188 46.828125 384.101562 C 46.890625 383.996094 47 383.734375 47.148438 383.316406 C 47.167969 383.253906 47.199219 383.167969 47.242188 383.058594 L 44.882812 376.824219 L 46.015625 376.824219 L 47.3125 380.429688 C 47.476562 380.886719 47.625 381.367188 47.765625 381.867188 C 47.882812 381.386719 48.027344 380.914062 48.195312 380.453125 L 49.527344 376.824219 L 50.582031 376.824219 L 48.214844 383.152344 C 47.960938 383.835938 47.761719 384.304688 47.625 384.5625 C 47.433594 384.910156 47.21875 385.164062 46.980469 385.328125 C 46.734375 385.484375 46.445312 385.566406 46.109375 385.570312 C 45.902344 385.566406 45.675781 385.523438 45.429688 385.445312 Z M 28.015625 372.183594 "/>
<path fill-rule="nonzero" fill="rgb(40%, 40%, 40%)" fill-opacity="1" d="M 24.359375 457.695312 L 25.386719 457.554688 C 25.414062 458.210938 25.535156 458.660156 25.757812 458.902344 C 25.972656 459.144531 26.277344 459.265625 26.664062 459.265625 C 26.949219 459.265625 27.195312 459.203125 27.402344 459.070312 C 27.605469 458.945312 27.746094 458.765625 27.828125 458.539062 C 27.902344 458.3125 27.941406 457.953125 27.945312 457.460938 L 27.945312 451.542969 L 29.085938 451.542969 L 29.085938 457.398438 C 29.082031 458.121094 28.996094 458.675781 28.824219 459.066406 C 28.648438 459.460938 28.371094 459.761719 27.996094 459.96875 C 27.613281 460.175781 27.171875 460.277344 26.671875 460.28125 C 25.914062 460.277344 25.335938 460.0625 24.9375 459.628906 C 24.53125 459.195312 24.339844 458.550781 24.359375 457.695312 Z M 34.882812 460.132812 L 34.882812 459.21875 C 34.394531 459.921875 33.738281 460.273438 32.910156 460.273438 C 32.542969 460.273438 32.199219 460.203125 31.882812 460.0625 C 31.5625 459.921875 31.324219 459.746094 31.171875 459.53125 C 31.015625 459.320312 30.910156 459.058594 30.847656 458.75 C 30.800781 458.542969 30.777344 458.214844 30.78125 457.765625 L 30.78125 453.910156 L 31.835938 453.910156 L 31.835938 457.359375 C 31.832031 457.914062 31.855469 458.285156 31.902344 458.476562 C 31.964844 458.753906 32.105469 458.972656 32.324219 459.128906 C 32.539062 459.292969 32.804688 459.371094 33.121094 459.367188 C 33.433594 459.371094 33.730469 459.289062 34.011719 459.125 C 34.289062 458.960938 34.484375 458.742188 34.601562 458.460938 C 34.714844 458.183594 34.773438 457.777344 34.773438 457.242188 L 34.773438 453.910156 L 35.828125 453.910156 L 35.828125 460.132812 Z M 37.476562 460.132812 L 37.476562 453.910156 L 38.429688 453.910156 L 38.429688 454.796875 C 38.882812 454.113281 39.542969 453.769531 40.40625 453.769531 C 40.777344 453.769531 41.121094 453.839844 41.441406 453.972656 C 41.753906 454.109375 41.992188 454.285156 42.148438 454.5 C 42.304688 454.722656 42.414062 454.980469 42.476562 455.28125 C 42.515625 455.476562 42.535156 455.820312 42.535156 456.304688 L 42.535156 460.132812 L 41.480469 460.132812 L 41.480469 456.347656 C 41.480469 455.917969 41.4375 455.597656 41.355469 455.382812 C 41.273438 455.171875 41.128906 455.003906 40.921875 454.875 C 40.710938 454.75 40.464844 454.683594 40.1875 454.683594 C 39.734375 454.683594 39.347656 454.828125 39.019531 455.113281 C 38.691406 455.398438 38.527344 455.9375 38.53125 456.734375 L 38.53125 460.132812 Z M 48.414062 458.128906 L 49.503906 458.265625 C 49.332031 458.902344 49.011719 459.394531 48.546875 459.746094 C 48.082031 460.097656 47.488281 460.273438 46.769531 460.273438 C 45.855469 460.273438 45.132812 459.996094 44.601562 459.433594 C 44.0625 458.878906 43.796875 458.089844 43.800781 457.074219 C 43.796875 456.027344 44.066406 455.214844 44.609375 454.636719 C 45.144531 454.058594 45.84375 453.769531 46.707031 453.769531 C 47.539062 453.769531 48.21875 454.054688 48.746094 454.621094 C 49.273438 455.1875 49.539062 455.984375 49.539062 457.007812 C 49.539062 457.074219 49.535156 457.167969 49.535156 457.289062 L 44.894531 457.289062 C 44.925781 457.976562 45.121094 458.5 45.472656 458.863281 C 45.820312 459.226562 46.253906 459.40625 46.773438 459.40625 C 47.160156 459.40625 47.488281 459.304688 47.765625 459.101562 C 48.035156 458.898438 48.253906 458.574219 48.414062 458.128906 Z M 44.949219 456.421875 L 48.425781 456.421875 C 48.378906 455.90625 48.246094 455.511719 48.027344 455.246094 C 47.691406 454.839844 47.253906 454.636719 46.722656 454.636719 C 46.234375 454.636719 45.828125 454.800781 45.5 455.125 C 45.167969 455.449219 44.984375 455.882812 44.949219 456.421875 Z M 24.015625 449.269531 "/>
<path fill-rule="nonzero" fill="rgb(40%, 40%, 40%)" fill-opacity="1" d="M 35.359375 534.78125 L 36.386719 534.640625 C 36.414062 535.296875 36.535156 535.746094 36.757812 535.988281 C 36.972656 536.230469 37.277344 536.351562 37.664062 536.351562 C 37.949219 536.351562 38.195312 536.289062 38.402344 536.15625 C 38.605469 536.03125 38.746094 535.851562 38.828125 535.625 C 38.902344 535.398438 38.941406 535.039062 38.945312 534.546875 L 38.945312 528.628906 L 40.085938 528.628906 L 40.085938 534.484375 C 40.082031 535.207031 39.996094 535.761719 39.824219 536.152344 C 39.648438 536.546875 39.371094 536.847656 38.996094 537.054688 C 38.613281 537.261719 38.171875 537.363281 37.671875 537.367188 C 36.914062 537.363281 36.335938 537.148438 35.9375 536.714844 C 35.53125 536.28125 35.339844 535.636719 35.359375 534.78125 Z M 45.882812 537.21875 L 45.882812 536.304688 C 45.394531 537.007812 44.738281 537.359375 43.910156 537.359375 C 43.542969 537.359375 43.199219 537.289062 42.882812 537.148438 C 42.5625 537.007812 42.324219 536.832031 42.171875 536.617188 C 42.015625 536.40625 41.910156 536.144531 41.847656 535.835938 C 41.800781 535.628906 41.777344 535.300781 41.78125 534.851562 L 41.78125 530.996094 L 42.835938 530.996094 L 42.835938 534.445312 C 42.832031 535 42.855469 535.371094 42.902344 535.5625 C 42.964844 535.839844 43.105469 536.058594 43.324219 536.214844 C 43.539062 536.378906 43.804688 536.457031 44.121094 536.453125 C 44.433594 536.457031 44.730469 536.375 45.011719 536.210938 C 45.289062 536.046875 45.484375 535.828125 45.601562 535.546875 C 45.714844 535.269531 45.773438 534.863281 45.773438 534.328125 L 45.773438 530.996094 L 46.828125 530.996094 L 46.828125 537.21875 Z M 48.453125 537.21875 L 48.453125 528.628906 L 49.507812 528.628906 L 49.507812 537.21875 Z M 35.015625 526.355469 "/>
<path fill="none" stroke-width="1" stroke-linecap="butt" stroke-linejoin="miter" stroke="rgb(0%, 0%, 0%)" stroke-opacity="0.0980392" stroke-miterlimit="10" d="M 62 571.5 L 791 571.5 "/>
<path fill-rule="nonzero" fill="rgb(40%, 40%, 40%)" fill-opacity="1" d="M 59.515625 589.726562 C 59.511719 588.714844 59.617188 587.898438 59.828125 587.273438 C 60.035156 586.65625 60.34375 586.175781 60.757812 585.839844 C 61.164062 585.503906 61.683594 585.335938 62.3125 585.335938 C 62.773438 585.335938 63.179688 585.429688 63.527344 585.613281 C 63.871094 585.800781 64.15625 586.070312 64.386719 586.417969 C 64.609375 586.769531 64.789062 587.195312 64.921875 587.695312 C 65.050781 588.199219 65.113281 588.875 65.117188 589.726562 C 65.113281 590.734375 65.011719 591.546875 64.804688 592.164062 C 64.59375 592.785156 64.28125 593.265625 63.875 593.601562 C 63.460938 593.941406 62.941406 594.105469 62.3125 594.109375 C 61.480469 594.105469 60.832031 593.8125 60.363281 593.21875 C 59.796875 592.503906 59.511719 591.339844 59.515625 589.726562 Z M 60.597656 589.726562 C 60.597656 591.136719 60.761719 592.074219 61.089844 592.542969 C 61.417969 593.011719 61.824219 593.246094 62.3125 593.242188 C 62.792969 593.246094 63.199219 593.011719 63.535156 592.539062 C 63.863281 592.074219 64.03125 591.136719 64.03125 589.726562 C 64.03125 588.3125 63.863281 587.371094 63.535156 586.90625 C 63.199219 586.445312 62.789062 586.214844 62.304688 586.210938 C 61.816406 586.214844 61.429688 586.417969 61.140625 586.824219 C 60.777344 587.347656 60.597656 588.316406 60.597656 589.726562 Z M 59.015625 583.097656 "/>
<path fill-rule="nonzero" fill="rgb(40%, 40%, 40%)" fill-opacity="1" d="M 140.410156 593.960938 L 139.355469 593.960938 L 139.355469 587.242188 C 139.101562 587.484375 138.769531 587.726562 138.355469 587.964844 C 137.941406 588.210938 137.570312 588.390625 137.246094 588.511719 L 137.246094 587.492188 C 137.835938 587.21875 138.351562 586.882812 138.792969 586.484375 C 139.234375 586.089844 139.546875 585.707031 139.730469 585.335938 L 140.410156 585.335938 Z M 143.117188 589.726562 C 143.113281 588.714844 143.21875 587.898438 143.429688 587.273438 C 143.636719 586.65625 143.945312 586.175781 144.359375 585.839844 C 144.765625 585.503906 145.285156 585.335938 145.914062 585.335938 C 146.375 585.335938 146.78125 585.429688 147.128906 585.613281 C 147.472656 585.800781 147.757812 586.070312 147.988281 586.417969 C 148.210938 586.769531 148.390625 587.195312 148.523438 587.695312 C 148.652344 588.199219 148.714844 588.875 148.71875 589.726562 C 148.714844 590.734375 148.613281 591.546875 148.40625 592.164062 C 148.195312 592.785156 147.882812 593.265625 147.476562 593.601562 C 147.0625 593.941406 146.542969 594.105469 145.914062 594.109375 C 145.082031 594.105469 144.433594 593.8125 143.964844 593.21875 C 143.398438 592.503906 143.113281 591.339844 143.117188 589.726562 Z M 144.199219 589.726562 C 144.199219 591.136719 144.363281 592.074219 144.691406 592.542969 C 145.019531 593.011719 145.425781 593.246094 145.914062 593.242188 C 146.394531 593.246094 146.800781 593.011719 147.136719 592.539062 C 147.464844 592.074219 147.632812 591.136719 147.632812 589.726562 C 147.632812 588.3125 147.464844 587.371094 147.136719 586.90625 C 146.800781 586.445312 146.390625 586.214844 145.90625 586.210938 C 145.417969 586.214844 145.03125 586.417969 144.742188 586.824219 C 144.378906 587.347656 144.199219 588.316406 144.199219 589.726562 Z M 135.941406 583.097656 "/>
<path fill-rule="nonzero" fill="rgb(40%, 40%, 40%)" fill-opacity="1" d="M 222.902344 592.945312 L 222.902344 593.960938 L 217.226562 593.960938 C 217.21875 593.707031 217.257812 593.464844 217.347656 593.226562 C 217.492188 592.84375 217.722656 592.460938 218.042969 592.085938 C 218.355469 591.710938 218.816406 591.277344 219.425781 590.785156 C 220.355469 590.019531 220.988281 589.414062 221.316406 588.96875 C 221.644531 588.523438 221.808594 588.101562 221.808594 587.695312 C 221.808594 587.28125 221.65625 586.929688 221.359375 586.640625 C 221.054688 586.359375 220.667969 586.214844 220.191406 586.210938 C 219.683594 586.214844 219.277344 586.367188 218.972656 586.667969 C 218.667969 586.976562 218.511719 587.398438 218.511719 587.929688 L 217.425781 587.820312 C 217.496094 587.015625 217.773438 586.402344 218.261719 585.972656 C 218.742188 585.550781 219.394531 585.335938 220.214844 585.335938 C 221.035156 585.335938 221.6875 585.566406 222.171875 586.023438 C 222.652344 586.480469 222.890625 587.046875 222.894531 587.71875 C 222.890625 588.066406 222.820312 588.402344 222.683594 588.734375 C 222.539062 589.070312 222.304688 589.421875 221.980469 589.785156 C 221.652344 590.15625 221.113281 590.660156 220.355469 591.296875 C 219.722656 591.832031 219.316406 592.191406 219.136719 592.378906 C 218.957031 592.566406 218.808594 592.757812 218.691406 592.945312 Z M 224.039062 589.726562 C 224.035156 588.714844 224.140625 587.898438 224.351562 587.273438 C 224.558594 586.65625 224.867188 586.175781 225.28125 585.839844 C 225.6875 585.503906 226.207031 585.335938 226.835938 585.335938 C 227.296875 585.335938 227.703125 585.429688 228.050781 585.613281 C 228.394531 585.800781 228.679688 586.070312 228.910156 586.417969 C 229.132812 586.769531 229.3125 587.195312 229.445312 587.695312 C 229.574219 588.199219 229.636719 588.875 229.640625 589.726562 C 229.636719 590.734375 229.535156 591.546875 229.328125 592.164062 C 229.117188 592.785156 228.804688 593.265625 228.398438 593.601562 C 227.984375 593.941406 227.464844 594.105469 226.835938 594.109375 C 226.003906 594.105469 225.355469 593.8125 224.886719 593.21875 C 224.320312 592.503906 224.035156 591.339844 224.039062 589.726562 Z M 225.121094 589.726562 C 225.121094 591.136719 225.285156 592.074219 225.613281 592.542969 C 225.941406 593.011719 226.347656 593.246094 226.835938 593.242188 C 227.316406 593.246094 227.722656 593.011719 228.058594 592.539062 C 228.386719 592.074219 228.554688 591.136719 228.554688 589.726562 C 228.554688 588.3125 228.386719 587.371094 228.058594 586.90625 C 227.722656 586.445312 227.3125 586.214844 226.828125 586.210938 C 226.339844 586.214844 225.953125 586.417969 225.664062 586.824219 C 225.300781 587.347656 225.121094 588.316406 225.121094 589.726562 Z M 216.863281 583.097656 "/>
<path fill-rule="nonzero" fill="rgb(40%, 40%, 40%)" fill-opacity="1" d="M 298.292969 591.695312 L 299.347656 591.554688 C 299.46875 592.152344 299.671875 592.582031 299.964844 592.847656 C 300.253906 593.113281 300.609375 593.246094 301.03125 593.242188 C 301.523438 593.246094 301.941406 593.074219 302.285156 592.726562 C 302.621094 592.386719 302.792969 591.960938 302.796875 591.445312 C 302.792969 590.964844 302.636719 590.566406 302.324219 590.25 C 302.007812 589.9375 301.605469 589.777344 301.117188 589.777344 C 300.917969 589.777344 300.667969 589.816406 300.375 589.894531 L 300.492188 588.96875 C 300.554688 588.976562 300.613281 588.980469 300.660156 588.980469 C 301.109375 588.980469 301.511719 588.863281 301.875 588.628906 C 302.230469 588.394531 302.410156 588.035156 302.414062 587.546875 C 302.410156 587.160156 302.28125 586.839844 302.019531 586.585938 C 301.753906 586.332031 301.414062 586.203125 301.007812 586.203125 C 300.59375 586.203125 300.253906 586.332031 299.980469 586.589844 C 299.707031 586.847656 299.53125 587.234375 299.453125 587.75 L 298.398438 587.5625 C 298.527344 586.855469 298.820312 586.308594 299.277344 585.917969 C 299.730469 585.53125 300.296875 585.335938 300.984375 585.335938 C 301.449219 585.335938 301.882812 585.4375 302.277344 585.636719 C 302.667969 585.839844 302.96875 586.113281 303.179688 586.460938 C 303.390625 586.8125 303.496094 587.183594 303.496094 587.570312 C 303.496094 587.941406 303.394531 588.277344 303.195312 588.582031 C 302.996094 588.886719 302.703125 589.128906 302.3125 589.308594 C 302.820312 589.425781 303.214844 589.671875 303.496094 590.039062 C 303.777344 590.414062 303.917969 590.875 303.917969 591.421875 C 303.917969 592.175781 303.644531 592.8125 303.097656 593.332031 C 302.550781 593.855469 301.859375 594.113281 301.023438 594.113281 C 300.265625 594.113281 299.636719 593.890625 299.144531 593.441406 C 298.644531 592.992188 298.363281 592.410156 298.292969 591.695312 Z M 304.960938 589.726562 C 304.957031 588.714844 305.0625 587.898438 305.273438 587.273438 C 305.480469 586.65625 305.789062 586.175781 306.203125 585.839844 C 306.609375 585.503906 307.128906 585.335938 307.757812 585.335938 C 308.21875 585.335938 308.625 585.429688 308.972656 585.613281 C 309.316406 585.800781 309.601562 586.070312 309.832031 586.417969 C 310.054688 586.769531 310.234375 587.195312 310.367188 587.695312 C 310.496094 588.199219 310.558594 588.875 310.5625 589.726562 C 310.558594 590.734375 310.457031 591.546875 310.25 592.164062 C 310.039062 592.785156 309.726562 593.265625 309.320312 593.601562 C 308.90625 593.941406 308.386719 594.105469 307.757812 594.109375 C 306.925781 594.105469 306.277344 593.8125 305.808594 593.21875 C 305.242188 592.503906 304.957031 591.339844 304.960938 589.726562 Z M 306.042969 589.726562 C 306.042969 591.136719 306.207031 592.074219 306.535156 592.542969 C 306.863281 593.011719 307.269531 593.246094 307.757812 593.242188 C 308.238281 593.246094 308.644531 593.011719 308.980469 592.539062 C 309.308594 592.074219 309.476562 591.136719 309.476562 589.726562 C 309.476562 588.3125 309.308594 587.371094 308.980469 586.90625 C 308.644531 586.445312 308.234375 586.214844 307.75 586.210938 C 307.261719 586.214844 306.875 586.417969 306.585938 586.824219 C 306.222656 587.347656 306.042969 588.316406 306.042969 589.726562 Z M 297.789062 583.097656 "/>
<path fill-rule="nonzero" fill="rgb(40%, 40%, 40%)" fill-opacity="1" d="M 382.589844 593.960938 L 382.589844 591.90625 L 378.863281 591.90625 L 378.863281 590.9375 L 382.78125 585.371094 L 383.644531 585.371094 L 383.644531 590.9375 L 384.804688 590.9375 L 384.804688 591.90625 L 383.644531 591.90625 L 383.644531 593.960938 Z M 382.589844 590.9375 L 382.589844 587.0625 L 379.898438 590.9375 Z M 385.882812 589.726562 C 385.878906 588.714844 385.984375 587.898438 386.195312 587.273438 C 386.402344 586.65625 386.710938 586.175781 387.125 585.839844 C 387.53125 585.503906 388.050781 585.335938 388.679688 585.335938 C 389.140625 585.335938 389.546875 585.429688 389.894531 585.613281 C 390.238281 585.800781 390.523438 586.070312 390.753906 586.417969 C 390.976562 586.769531 391.15625 587.195312 391.289062 587.695312 C 391.417969 588.199219 391.480469 588.875 391.484375 589.726562 C 391.480469 590.734375 391.378906 591.546875 391.171875 592.164062 C 390.960938 592.785156 390.648438 593.265625 390.242188 593.601562 C 389.828125 593.941406 389.308594 594.105469 388.679688 594.109375 C 387.847656 594.105469 387.199219 593.8125 386.730469 593.21875 C 386.164062 592.503906 385.878906 591.339844 385.882812 589.726562 Z M 386.964844 589.726562 C 386.964844 591.136719 387.128906 592.074219 387.457031 592.542969 C 387.785156 593.011719 388.191406 593.246094 388.679688 593.242188 C 389.160156 593.246094 389.566406 593.011719 389.902344 592.539062 C 390.230469 592.074219 390.398438 591.136719 390.398438 589.726562 C 390.398438 588.3125 390.230469 587.371094 389.902344 586.90625 C 389.566406 586.445312 389.15625 586.214844 388.671875 586.210938 C 388.183594 586.214844 387.796875 586.417969 387.507812 586.824219 C 387.144531 587.347656 386.964844 588.316406 386.964844 589.726562 Z M 378.710938 583.097656 "/>
<path fill-rule="nonzero" fill="rgb(40%, 40%, 40%)" fill-opacity="1" d="M 460.132812 591.710938 L 461.238281 591.617188 C 461.316406 592.15625 461.503906 592.5625 461.808594 592.835938 C 462.105469 593.109375 462.46875 593.246094 462.890625 593.242188 C 463.398438 593.246094 463.828125 593.054688 464.179688 592.667969 C 464.53125 592.289062 464.707031 591.78125 464.707031 591.140625 C 464.707031 590.546875 464.535156 590.070312 464.199219 589.71875 C 463.859375 589.371094 463.417969 589.199219 462.875 589.195312 C 462.53125 589.199219 462.226562 589.277344 461.953125 589.429688 C 461.679688 589.585938 461.464844 589.785156 461.308594 590.03125 L 460.320312 589.898438 L 461.148438 585.488281 L 465.421875 585.488281 L 465.421875 586.496094 L 461.992188 586.496094 L 461.53125 588.804688 C 462.046875 588.445312 462.585938 588.265625 463.15625 588.265625 C 463.902344 588.265625 464.535156 588.527344 465.054688 589.046875 C 465.566406 589.566406 465.824219 590.234375 465.828125 591.046875 C 465.824219 591.828125 465.597656 592.5 465.148438 593.0625 C 464.59375 593.761719 463.84375 594.105469 462.890625 594.109375 C 462.109375 594.105469 461.46875 593.890625 460.976562 593.453125 C 460.476562 593.019531 460.195312 592.4375 460.132812 591.710938 Z M 466.804688 589.726562 C 466.800781 588.714844 466.90625 587.898438 467.117188 587.273438 C 467.324219 586.65625 467.632812 586.175781 468.046875 585.839844 C 468.453125 585.503906 468.972656 585.335938 469.601562 585.335938 C 470.0625 585.335938 470.46875 585.429688 470.816406 585.613281 C 471.160156 585.800781 471.445312 586.070312 471.675781 586.417969 C 471.898438 586.769531 472.078125 587.195312 472.210938 587.695312 C 472.339844 588.199219 472.402344 588.875 472.40625 589.726562 C 472.402344 590.734375 472.300781 591.546875 472.09375 592.164062 C 471.882812 592.785156 471.570312 593.265625 471.164062 593.601562 C 470.75 593.941406 470.230469 594.105469 469.601562 594.109375 C 468.769531 594.105469 468.121094 593.8125 467.652344 593.21875 C 467.085938 592.503906 466.800781 591.339844 466.804688 589.726562 Z M 467.886719 589.726562 C 467.886719 591.136719 468.050781 592.074219 468.378906 592.542969 C 468.707031 593.011719 469.113281 593.246094 469.601562 593.242188 C 470.082031 593.246094 470.488281 593.011719 470.824219 592.539062 C 471.152344 592.074219 471.320312 591.136719 471.320312 589.726562 C 471.320312 588.3125 471.152344 587.371094 470.824219 586.90625 C 470.488281 586.445312 470.078125 586.214844 469.59375 586.210938 C 469.105469 586.214844 468.71875 586.417969 468.429688 586.824219 C 468.066406 587.347656 467.886719 588.316406 467.886719 589.726562 Z M 459.632812 583.097656 "/>
<path fill-rule="nonzero" fill="rgb(40%, 40%, 40%)" fill-opacity="1" d="M 546.523438 587.476562 L 545.476562 587.554688 C 545.382812 587.148438 545.25 586.847656 545.078125 586.65625 C 544.789062 586.355469 544.4375 586.203125 544.023438 586.203125 C 543.6875 586.203125 543.390625 586.296875 543.140625 586.484375 C 542.804688 586.726562 542.542969 587.082031 542.351562 587.546875 C 542.160156 588.011719 542.0625 588.671875 542.054688 589.53125 C 542.308594 589.148438 542.617188 588.863281 542.988281 588.671875 C 543.351562 588.488281 543.738281 588.394531 544.140625 588.390625 C 544.84375 588.394531 545.441406 588.652344 545.9375 589.167969 C 546.429688 589.683594 546.675781 590.351562 546.679688 591.171875 C 546.675781 591.710938 546.558594 592.214844 546.328125 592.675781 C 546.09375 593.140625 545.777344 593.492188 545.371094 593.738281 C 544.964844 593.984375 544.503906 594.105469 543.988281 594.109375 C 543.109375 594.105469 542.390625 593.785156 541.839844 593.140625 C 541.28125 592.492188 541.003906 591.425781 541.007812 589.941406 C 541.003906 588.285156 541.3125 587.078125 541.925781 586.320312 C 542.457031 585.664062 543.175781 585.335938 544.085938 585.335938 C 544.761719 585.335938 545.316406 585.527344 545.75 585.90625 C 546.179688 586.285156 546.4375 586.808594 546.523438 587.476562 Z M 542.21875 591.179688 C 542.21875 591.542969 542.292969 591.890625 542.449219 592.222656 C 542.597656 592.554688 542.816406 592.808594 543.097656 592.980469 C 543.375 593.160156 543.664062 593.246094 543.96875 593.242188 C 544.414062 593.246094 544.796875 593.066406 545.121094 592.703125 C 545.4375 592.347656 545.597656 591.859375 545.601562 591.234375 C 545.597656 590.644531 545.441406 590.175781 545.125 589.832031 C 544.804688 589.492188 544.40625 589.320312 543.929688 589.320312 C 543.453125 589.320312 543.046875 589.492188 542.714844 589.832031 C 542.382812 590.175781 542.21875 590.625 542.21875 591.179688 Z M 547.726562 589.726562 C 547.722656 588.714844 547.828125 587.898438 548.039062 587.273438 C 548.246094 586.65625 548.554688 586.175781 548.96875 585.839844 C 549.375 585.503906 549.894531 585.335938 550.523438 585.335938 C 550.984375 585.335938 551.390625 585.429688 551.738281 585.613281 C 552.082031 585.800781 552.367188 586.070312 552.597656 586.417969 C 552.820312 586.769531 553 587.195312 553.132812 587.695312 C 553.261719 588.199219 553.324219 588.875 553.328125 589.726562 C 553.324219 590.734375 553.222656 591.546875 553.015625 592.164062 C 552.804688 592.785156 552.492188 593.265625 552.085938 593.601562 C 551.671875 593.941406 551.152344 594.105469 550.523438 594.109375 C 549.691406 594.105469 549.042969 593.8125 548.574219 593.21875 C 548.007812 592.503906 547.722656 591.339844 547.726562 589.726562 Z M 548.808594 589.726562 C 548.808594 591.136719 548.972656 592.074219 549.300781 592.542969 C 549.628906 593.011719 550.035156 593.246094 550.523438 593.242188 C 551.003906 593.246094 551.410156 593.011719 551.746094 592.539062 C 552.074219 592.074219 552.242188 591.136719 552.242188 589.726562 C 552.242188 588.3125 552.074219 587.371094 551.746094 586.90625 C 551.410156 586.445312 551 586.214844 550.515625 586.210938 C 550.027344 586.214844 549.640625 586.417969 549.351562 586.824219 C 548.988281 587.347656 548.808594 588.316406 548.808594 589.726562 Z M 540.554688 583.097656 "/>
<path fill-rule="nonzero" fill="rgb(40%, 40%, 40%)" fill-opacity="1" d="M 622.050781 586.496094 L 622.050781 585.484375 L 627.609375 585.484375 L 627.609375 586.304688 C 627.0625 586.886719 626.519531 587.660156 625.980469 588.625 C 625.441406 589.589844 625.027344 590.582031 624.738281 591.601562 C 624.527344 592.324219 624.390625 593.109375 624.332031 593.960938 L 623.25 593.960938 C 623.261719 593.285156 623.394531 592.46875 623.648438 591.511719 C 623.898438 590.558594 624.261719 589.636719 624.738281 588.746094 C 625.214844 587.855469 625.71875 587.105469 626.253906 586.496094 Z M 628.65625 589.726562 C 628.652344 588.714844 628.757812 587.898438 628.96875 587.273438 C 629.175781 586.65625 629.484375 586.175781 629.898438 585.839844 C 630.304688 585.503906 630.824219 585.335938 631.453125 585.335938 C 631.914062 585.335938 632.320312 585.429688 632.667969 585.613281 C 633.011719 585.800781 633.296875 586.070312 633.527344 586.417969 C 633.75 586.769531 633.929688 587.195312 634.0625 587.695312 C 634.191406 588.199219 634.253906 588.875 634.257812 589.726562 C 634.253906 590.734375 634.152344 591.546875 633.945312 592.164062 C 633.734375 592.785156 633.421875 593.265625 633.015625 593.601562 C 632.601562 593.941406 632.082031 594.105469 631.453125 594.109375 C 630.621094 594.105469 629.972656 593.8125 629.503906 593.21875 C 628.9375 592.503906 628.652344 591.339844 628.65625 589.726562 Z M 629.738281 589.726562 C 629.738281 591.136719 629.902344 592.074219 630.230469 592.542969 C 630.558594 593.011719 630.964844 593.246094 631.453125 593.242188 C 631.933594 593.246094 632.339844 593.011719 632.675781 592.539062 C 633.003906 592.074219 633.171875 591.136719 633.171875 589.726562 C 633.171875 588.3125 633.003906 587.371094 632.675781 586.90625 C 632.339844 586.445312 631.929688 586.214844 631.445312 586.210938 C 630.957031 586.214844 630.570312 586.417969 630.28125 586.824219 C 629.917969 587.347656 629.738281 588.316406 629.738281 589.726562 Z M 621.480469 583.097656 "/>
<path fill-rule="nonzero" fill="rgb(40%, 40%, 40%)" fill-opacity="1" d="M 704.523438 589.304688 C 704.085938 589.144531 703.761719 588.914062 703.550781 588.617188 C 703.339844 588.320312 703.234375 587.964844 703.234375 587.550781 C 703.234375 586.925781 703.457031 586.402344 703.90625 585.976562 C 704.355469 585.550781 704.953125 585.335938 705.699219 585.335938 C 706.445312 585.335938 707.050781 585.554688 707.511719 585.988281 C 707.96875 586.425781 708.195312 586.957031 708.199219 587.578125 C 708.195312 587.984375 708.089844 588.332031 707.882812 588.621094 C 707.671875 588.917969 707.355469 589.144531 706.933594 589.304688 C 707.457031 589.480469 707.859375 589.757812 708.136719 590.136719 C 708.410156 590.523438 708.546875 590.980469 708.550781 591.507812 C 708.546875 592.246094 708.289062 592.863281 707.769531 593.359375 C 707.246094 593.859375 706.5625 594.105469 705.71875 594.109375 C 704.871094 594.105469 704.1875 593.859375 703.667969 593.355469 C 703.144531 592.855469 702.882812 592.226562 702.886719 591.476562 C 702.882812 590.921875 703.023438 590.457031 703.3125 590.074219 C 703.59375 589.699219 704 589.441406 704.523438 589.304688 Z M 704.3125 587.515625 C 704.3125 587.921875 704.441406 588.253906 704.703125 588.511719 C 704.964844 588.769531 705.304688 588.898438 705.722656 588.898438 C 706.125 588.898438 706.457031 588.773438 706.722656 588.515625 C 706.980469 588.265625 707.113281 587.949219 707.113281 587.574219 C 707.113281 587.1875 706.976562 586.863281 706.710938 586.597656 C 706.4375 586.335938 706.105469 586.203125 705.714844 586.203125 C 705.308594 586.203125 704.976562 586.332031 704.710938 586.589844 C 704.445312 586.847656 704.3125 587.15625 704.3125 587.515625 Z M 703.972656 591.484375 C 703.972656 591.785156 704.042969 592.074219 704.1875 592.355469 C 704.328125 592.636719 704.539062 592.855469 704.824219 593.011719 C 705.101562 593.167969 705.40625 593.246094 705.730469 593.242188 C 706.234375 593.246094 706.648438 593.082031 706.980469 592.753906 C 707.304688 592.429688 707.46875 592.019531 707.472656 591.515625 C 707.46875 591.015625 707.300781 590.59375 706.964844 590.257812 C 706.625 589.925781 706.203125 589.761719 705.695312 589.757812 C 705.195312 589.761719 704.78125 589.925781 704.460938 590.25 C 704.132812 590.582031 703.972656 590.992188 703.972656 591.484375 Z M 709.578125 589.726562 C 709.574219 588.714844 709.679688 587.898438 709.890625 587.273438 C 710.097656 586.65625 710.40625 586.175781 710.820312 585.839844 C 711.226562 585.503906 711.746094 585.335938 712.375 585.335938 C 712.835938 585.335938 713.242188 585.429688 713.589844 585.613281 C 713.933594 585.800781 714.21875 586.070312 714.449219 586.417969 C 714.671875 586.769531 714.851562 587.195312 714.984375 587.695312 C 715.113281 588.199219 715.175781 588.875 715.179688 589.726562 C 715.175781 590.734375 715.074219 591.546875 714.867188 592.164062 C 714.65625 592.785156 714.34375 593.265625 713.9375 593.601562 C 713.523438 593.941406 713.003906 594.105469 712.375 594.109375 C 711.542969 594.105469 710.894531 593.8125 710.425781 593.21875 C 709.859375 592.503906 709.574219 591.339844 709.578125 589.726562 Z M 710.660156 589.726562 C 710.660156 591.136719 710.824219 592.074219 711.152344 592.542969 C 711.480469 593.011719 711.886719 593.246094 712.375 593.242188 C 712.855469 593.246094 713.261719 593.011719 713.597656 592.539062 C 713.925781 592.074219 714.09375 591.136719 714.09375 589.726562 C 714.09375 588.3125 713.925781 587.371094 713.597656 586.90625 C 713.261719 586.445312 712.851562 586.214844 712.367188 586.210938 C 711.878906 586.214844 711.492188 586.417969 711.203125 586.824219 C 710.839844 587.347656 710.660156 588.316406 710.660156 589.726562 Z M 702.402344 583.097656 "/>
<path fill-rule="nonzero" fill="rgb(40%, 40%, 40%)" fill-opacity="1" d="M 783.984375 591.976562 L 785 591.882812 C 785.078125 592.359375 785.242188 592.703125 785.488281 592.917969 C 785.726562 593.136719 786.039062 593.246094 786.421875 593.242188 C 786.742188 593.246094 787.023438 593.171875 787.273438 593.019531 C 787.515625 592.875 787.71875 592.675781 787.875 592.425781 C 788.03125 592.175781 788.160156 591.839844 788.265625 591.417969 C 788.371094 590.996094 788.425781 590.566406 788.425781 590.128906 C 788.425781 590.082031 788.421875 590.011719 788.421875 589.917969 C 788.203125 590.253906 787.914062 590.527344 787.554688 590.734375 C 787.1875 590.945312 786.792969 591.050781 786.367188 591.046875 C 785.65625 591.050781 785.054688 590.792969 784.566406 590.273438 C 784.070312 589.761719 783.824219 589.082031 783.828125 588.234375 C 783.824219 587.367188 784.082031 586.664062 784.597656 586.132812 C 785.109375 585.601562 785.753906 585.335938 786.527344 585.335938 C 787.085938 585.335938 787.59375 585.488281 788.058594 585.789062 C 788.519531 586.089844 788.871094 586.519531 789.113281 587.074219 C 789.351562 587.632812 789.472656 588.4375 789.476562 589.492188 C 789.472656 590.589844 789.355469 591.464844 789.117188 592.113281 C 788.875 592.765625 788.519531 593.257812 788.050781 593.597656 C 787.582031 593.9375 787.03125 594.105469 786.398438 594.109375 C 785.726562 594.105469 785.175781 593.921875 784.75 593.550781 C 784.324219 593.175781 784.070312 592.652344 783.984375 591.976562 Z M 788.304688 588.183594 C 788.300781 587.578125 788.140625 587.097656 787.820312 586.742188 C 787.496094 586.390625 787.109375 586.214844 786.65625 586.210938 C 786.1875 586.214844 785.777344 586.40625 785.429688 586.785156 C 785.082031 587.171875 784.910156 587.667969 784.910156 588.273438 C 784.910156 588.824219 785.074219 589.269531 785.402344 589.605469 C 785.730469 589.949219 786.136719 590.117188 786.625 590.117188 C 787.113281 590.117188 787.515625 589.949219 787.832031 589.605469 C 788.144531 589.269531 788.300781 588.792969 788.304688 588.183594 Z M 790.5 589.726562 C 790.496094 588.714844 790.601562 587.898438 790.8125 587.273438 C 791.019531 586.65625 791.328125 586.175781 791.742188 585.839844 C 792.148438 585.503906 792.667969 585.335938 793.296875 585.335938 C 793.757812 585.335938 794.164062 585.429688 794.511719 585.613281 C 794.855469 585.800781 795.140625 586.070312 795.371094 586.417969 C 795.59375 586.769531 795.773438 587.195312 795.90625 587.695312 C 796.035156 588.199219 796.097656 588.875 796.101562 589.726562 C 796.097656 590.734375 795.996094 591.546875 795.789062 592.164062 C 795.578125 592.785156 795.265625 593.265625 794.859375 593.601562 C 794.445312 593.941406 793.925781 594.105469 793.296875 594.109375 C 792.464844 594.105469 791.816406 593.8125 791.347656 593.21875 C 790.78125 592.503906 790.496094 591.339844 790.5 589.726562 Z M 791.582031 589.726562 C 791.582031 591.136719 791.746094 592.074219 792.074219 592.542969 C 792.402344 593.011719 792.808594 593.246094 793.296875 593.242188 C 793.777344 593.246094 794.183594 593.011719 794.519531 592.539062 C 794.847656 592.074219 795.015625 591.136719 795.015625 589.726562 C 795.015625 588.3125 794.847656 587.371094 794.519531 586.90625 C 794.183594 586.445312 793.773438 586.214844 793.289062 586.210938 C 792.800781 586.214844 792.414062 586.417969 792.125 586.824219 C 791.761719 587.347656 791.582031 588.316406 791.582031 589.726562 Z M 783.328125 583.097656 "/>
<g clip-path="url(#clip-0)">
<path fill-rule="evenodd" fill="rgb(100%, 38.823529%, 51.764706%)" fill-opacity="1" d="M 62.515625 42.460938 L 588.347656 42.460938 L 588.347656 98.621094 L 62.515625 98.621094 Z M 62.515625 44.121094 L 586.6875 44.121094 L 586.6875 96.960938 L 62.515625 96.960938 Z M 62.515625 44.121094 "/>
</g>
<g clip-path="url(#clip-1)">
<path fill-rule="nonzero" fill="rgb(100%, 38.823529%, 51.764706%)" fill-opacity="0.2" d="M 62.515625 43.460938 L 587.347656 43.460938 L 587.347656 97.621094 L 62.515625 97.621094 Z M 62.515625 43.460938 "/>
</g>
<g clip-path="url(#clip-2)">
<path fill-rule="evenodd" fill="rgb(100%, 62.352941%, 25.098039%)" fill-opacity="1" d="M 62.515625 119.546875 L 539.792969 119.546875 L 539.792969 175.707031 L 62.515625 175.707031 Z M 62.515625 121.207031 L 538.132812 121.207031 L 538.132812 174.046875 L 62.515625 174.046875 Z M 62.515625 121.207031 "/>
</g>
<g clip-path="url(#clip-3)">
<path fill-rule="nonzero" fill="rgb(100%, 62.352941%, 25.098039%)" fill-opacity="0.2" d="M 62.515625 120.546875 L 538.792969 120.546875 L 538.792969 174.707031 L 62.515625 174.707031 Z M 62.515625 120.546875 "/>
</g>
<g clip-path="url(#clip-4)">
<path fill-rule="evenodd" fill="rgb(100%, 80.392157%, 33.72549%)" fill-opacity="1" d="M 62.515625 196.632812 L 709.730469 196.632812 L 709.730469 252.792969 L 62.515625 252.792969 Z M 62.515625 198.292969 L 708.070312 198.292969 L 708.070312 251.132812 L 62.515625 251.132812 Z M 62.515625 198.292969 "/>
</g>
<g clip-path="url(#clip-5)">
<path fill-rule="nonzero" fill="rgb(100%, 80.392157%, 33.72549%)" fill-opacity="0.2" d="M 62.515625 197.632812 L 708.730469 197.632812 L 708.730469 251.792969 L 62.515625 251.792969 Z M 62.515625 197.632812 "/>
</g>
<g clip-path="url(#clip-6)">
<path fill-rule="evenodd" fill="rgb(29.411765%, 75.294118%, 75.294118%)" fill-opacity="1" d="M 62.515625 273.71875 L 717.824219 273.71875 L 717.824219 329.878906 L 62.515625 329.878906 Z M 62.515625 275.378906 L 716.164062 275.378906 L 716.164062 328.21875 L 62.515625 328.21875 Z M 62.515625 275.378906 "/>
</g>
<g clip-path="url(#clip-7)">
<path fill-rule="nonzero" fill="rgb(29.411765%, 75.294118%, 75.294118%)" fill-opacity="0.2" d="M 62.515625 274.71875 L 716.824219 274.71875 L 716.824219 328.878906 L 62.515625 328.878906 Z M 62.515625 274.71875 "/>
</g>
<g clip-path="url(#clip-8)">
<path fill-rule="evenodd" fill="rgb(21.176471%, 63.529412%, 92.156863%)" fill-opacity="1" d="M 62.515625 350.804688 L 515.515625 350.804688 L 515.515625 406.964844 L 62.515625 406.964844 Z M 62.515625 352.464844 L 513.855469 352.464844 L 513.855469 405.304688 L 62.515625 405.304688 Z M 62.515625 352.464844 "/>
</g>
<g clip-path="url(#clip-9)">
<path fill-rule="nonzero" fill="rgb(21.176471%, 63.529412%, 92.156863%)" fill-opacity="0.2" d="M 62.515625 351.804688 L 514.515625 351.804688 L 514.515625 405.964844 L 62.515625 405.964844 Z M 62.515625 351.804688 "/>
</g>
<g clip-path="url(#clip-10)">
<path fill-rule="evenodd" fill="rgb(60%, 40%, 100%)" fill-opacity="1" d="M 62.515625 427.890625 L 507.421875 427.890625 L 507.421875 484.050781 L 62.515625 484.050781 Z M 62.515625 429.550781 L 505.761719 429.550781 L 505.761719 482.390625 L 62.515625 482.390625 Z M 62.515625 429.550781 "/>
</g>
<g clip-path="url(#clip-11)">
<path fill-rule="nonzero" fill="rgb(60%, 40%, 100%)" fill-opacity="0.2" d="M 62.515625 428.890625 L 506.421875 428.890625 L 506.421875 483.050781 L 62.515625 483.050781 Z M 62.515625 428.890625 "/>
</g>
<g clip-path="url(#clip-12)">
<path fill-rule="evenodd" fill="rgb(78.823529%, 79.607843%, 81.176471%)" fill-opacity="1" d="M 62.515625 504.976562 L 386.039062 504.976562 L 386.039062 561.136719 L 62.515625 561.136719 Z M 62.515625 506.636719 L 384.378906 506.636719 L 384.378906 559.476562 L 62.515625 559.476562 Z M 62.515625 506.636719 "/>
</g>
<g clip-path="url(#clip-13)">
<path fill-rule="nonzero" fill="rgb(78.823529%, 79.607843%, 81.176471%)" fill-opacity="0.2" d="M 62.515625 505.976562 L 385.039062 505.976562 L 385.039062 560.136719 L 62.515625 560.136719 Z M 62.515625 505.976562 "/>
</g>
</svg>
